<svg width="24" height="34" viewBox="0 0 24 34" fill="none" xmlns="http://www.w3.org/2000/svg">
<path d="M11.9987 7.83398C13.1038 7.83398 14.1636 8.27297 14.945 9.05437C15.7264 9.83577 16.1654 10.8956 16.1654 12.0007C16.1654 12.5478 16.0576 13.0896 15.8482 13.5952C15.6388 14.1007 15.3319 14.56 14.945 14.9469C14.5581 15.3338 14.0987 15.6408 13.5932 15.8502C13.0877 16.0595 12.5459 16.1673 11.9987 16.1673C10.8936 16.1673 9.83382 15.7283 9.05242 14.9469C8.27102 14.1655 7.83203 13.1057 7.83203 12.0007C7.83203 10.8956 8.27102 9.83577 9.05242 9.05437C9.83382 8.27297 10.8936 7.83398 11.9987 7.83398ZM11.9987 0.333984C15.0929 0.333984 18.0604 1.56315 20.2483 3.75107C22.4362 5.939 23.6654 8.90646 23.6654 12.0007C23.6654 20.7507 11.9987 33.6673 11.9987 33.6673C11.9987 33.6673 0.332031 20.7507 0.332031 12.0007C0.332031 8.90646 1.56119 5.939 3.74912 3.75107C5.93704 1.56315 8.90451 0.333984 11.9987 0.333984ZM11.9987 3.66732C9.78856 3.66732 7.66895 4.54529 6.10614 6.10809C4.54334 7.6709 3.66536 9.79051 3.66536 12.0007C3.66536 13.6673 3.66536 17.0007 11.9987 28.184C20.332 17.0007 20.332 13.6673 20.332 12.0007C20.332 9.79051 19.4541 7.6709 17.8913 6.10809C16.3285 4.54529 14.2088 3.66732 11.9987 3.66732Z" fill="#FFC300"/>
</svg>
