<svg width="40" height="40" viewBox="0 0 40 40" fill="none" xmlns="http://www.w3.org/2000/svg">
<path d="M19.455 12.0367C17.995 12.0367 15.735 10.3767 13.355 10.4367C10.215 10.4767 7.33498 12.2567 5.71498 15.0767C2.45498 20.7367 4.87498 29.0967 8.05498 33.6967C9.61498 35.9367 11.455 38.4567 13.895 38.3767C16.235 38.2767 17.115 36.8567 19.955 36.8567C22.775 36.8567 23.575 38.3767 26.055 38.3167C28.575 38.2767 30.175 36.0367 31.715 33.7767C33.495 31.1767 34.235 28.6567 34.275 28.5167C34.215 28.4967 29.375 26.6367 29.315 21.0367C29.275 16.3567 33.135 14.1167 33.315 14.0167C31.115 10.7967 27.735 10.4367 26.555 10.3567C23.475 10.1167 20.895 12.0367 19.455 12.0367ZM24.655 7.31675C25.955 5.75675 26.815 3.57675 26.575 1.41675C24.715 1.49675 22.475 2.65675 21.135 4.21675C19.935 5.59675 18.895 7.81675 19.175 9.93675C21.235 10.0967 23.355 8.87675 24.655 7.31675Z" fill="#00152B"/>
</svg>
