<svg width="16" height="13" viewBox="0 0 16 13" fill="none" xmlns="http://www.w3.org/2000/svg">
<path d="M7.15231 12.0549C6.95228 12.2549 6.68102 12.3672 6.39818 12.3672C6.11533 12.3672 5.84407 12.2549 5.64404 12.0549L0.844043 7.25488C0.644074 7.05485 0.531737 6.78359 0.531737 6.50075C0.531737 6.21791 0.644074 5.94664 0.844043 5.74662L5.64404 0.946615C5.84522 0.752313 6.11466 0.644799 6.39434 0.647229C6.67401 0.64966 6.94155 0.76184 7.13932 0.959608C7.33708 1.15738 7.44927 1.42491 7.4517 1.70459C7.45413 1.98426 7.34661 2.25371 7.15231 2.45488L4.26484 5.43408H14.3982C14.6811 5.43408 14.9524 5.54646 15.1524 5.7465C15.3525 5.94654 15.4648 6.21785 15.4648 6.50075C15.4648 6.78365 15.3525 7.05496 15.1524 7.255C14.9524 7.45503 14.6811 7.56742 14.3982 7.56742H4.26484L7.15231 10.5466C7.35228 10.7466 7.46462 11.0179 7.46462 11.3007C7.46462 11.5836 7.35228 11.8549 7.15231 12.0549Z" fill="#003366"/>
</svg>
