<svg width="18" height="16" viewBox="0 0 18 16" fill="none" xmlns="http://www.w3.org/2000/svg">
<path d="M8.57143 0L17.1429 3.42857V4.57143H16C16 4.72619 15.939 4.86012 15.817 4.97321C15.6949 5.08631 15.5506 5.14286 15.3839 5.14286H1.75893C1.59226 5.14286 1.44792 5.08631 1.32589 4.97321C1.20387 4.86012 1.14286 4.72619 1.14286 4.57143H0V3.42857L8.57143 0ZM2.28571 5.71429H4.57143V12.5714H5.71429V5.71429H8V12.5714H9.14286V5.71429H11.4286V12.5714H12.5714V5.71429H14.8571V12.5714H15.3839C15.5506 12.5714 15.6949 12.628 15.817 12.7411C15.939 12.8542 16 12.9881 16 13.1429V13.7143H1.14286V13.1429C1.14286 12.9881 1.20387 12.8542 1.32589 12.7411C1.44792 12.628 1.59226 12.5714 1.75893 12.5714H2.28571V5.71429ZM16.5268 14.2857C16.6935 14.2857 16.8378 14.3423 16.9598 14.4554C17.0818 14.5685 17.1429 14.7024 17.1429 14.8571V16H0V14.8571C0 14.7024 0.0610119 14.5685 0.183036 14.4554C0.30506 14.3423 0.449405 14.2857 0.616072 14.2857H16.5268Z" fill="#003366"/>
</svg>
