<svg width="14" height="15" viewBox="0 0 14 15" fill="none" xmlns="http://www.w3.org/2000/svg">
<path d="M10.8346 11.5934C11.1883 11.5934 11.5274 11.7339 11.7774 11.9839C12.0275 12.234 12.168 12.5731 12.168 12.9268C12.168 13.2804 12.0275 13.6195 11.7774 13.8696C11.5274 14.1196 11.1883 14.2601 10.8346 14.2601C10.481 14.2601 10.1419 14.1196 9.89183 13.8696C9.64178 13.6195 9.5013 13.2804 9.5013 12.9268C9.5013 12.1868 10.0946 11.5934 10.8346 11.5934ZM0.167969 0.926758H2.34797L2.97464 2.26009H12.8346C13.0114 2.26009 13.181 2.33033 13.306 2.45535C13.4311 2.58038 13.5013 2.74995 13.5013 2.92676C13.5013 3.04009 13.468 3.15342 13.4213 3.26009L11.0346 7.57342C10.808 7.98009 10.368 8.26009 9.86797 8.26009H4.9013L4.3013 9.34676L4.2813 9.42676C4.2813 9.47096 4.29886 9.51335 4.33012 9.54461C4.36137 9.57586 4.40377 9.59342 4.44797 9.59342H12.168V10.9268H4.16797C3.81435 10.9268 3.47521 10.7863 3.22516 10.5362C2.97511 10.2862 2.83464 9.94705 2.83464 9.59342C2.83464 9.36009 2.89464 9.14009 2.99464 8.95342L3.9013 7.32009L1.5013 2.26009H0.167969V0.926758ZM4.16797 11.5934C4.52159 11.5934 4.86073 11.7339 5.11078 11.9839C5.36083 12.234 5.5013 12.5731 5.5013 12.9268C5.5013 13.2804 5.36083 13.6195 5.11078 13.8696C4.86073 14.1196 4.52159 14.2601 4.16797 14.2601C3.81435 14.2601 3.47521 14.1196 3.22516 13.8696C2.97511 13.6195 2.83464 13.2804 2.83464 12.9268C2.83464 12.1868 3.42797 11.5934 4.16797 11.5934ZM10.168 6.92676L12.0213 3.59342H3.59464L5.16797 6.92676H10.168Z" fill="#003366"/>
</svg>
