<svg width="14" height="14" viewBox="0 0 14 14" fill="none" xmlns="http://www.w3.org/2000/svg">
<path d="M11.3327 11.0007C11.6863 11.0007 12.0254 11.1411 12.2755 11.3912C12.5255 11.6412 12.666 11.9804 12.666 12.334C12.666 12.6876 12.5255 13.0267 12.2755 13.2768C12.0254 13.5268 11.6863 13.6673 11.3327 13.6673C10.9791 13.6673 10.6399 13.5268 10.3899 13.2768C10.1398 13.0267 9.99935 12.6876 9.99935 12.334C9.99935 11.594 10.5927 11.0007 11.3327 11.0007ZM0.666016 0.333984H2.84602L3.47268 1.66732H13.3327C13.5095 1.66732 13.6791 1.73756 13.8041 1.86258C13.9291 1.9876 13.9993 2.15717 13.9993 2.33398C13.9993 2.44732 13.966 2.56065 13.9193 2.66732L11.5327 6.98065C11.306 7.38732 10.866 7.66732 10.366 7.66732H5.39935L4.79935 8.75398L4.77935 8.83398C4.77935 8.87819 4.79691 8.92058 4.82816 8.95183C4.85942 8.98309 4.90181 9.00065 4.94602 9.00065H12.666V10.334H4.66602C4.31239 10.334 3.97325 10.1935 3.72321 9.94346C3.47316 9.69341 3.33268 9.35427 3.33268 9.00065C3.33268 8.76732 3.39268 8.54732 3.49268 8.36065L4.39935 6.72732L1.99935 1.66732H0.666016V0.333984ZM4.66602 11.0007C5.01964 11.0007 5.35878 11.1411 5.60882 11.3912C5.85887 11.6412 5.99935 11.9804 5.99935 12.334C5.99935 12.6876 5.85887 13.0267 5.60882 13.2768C5.35878 13.5268 5.01964 13.6673 4.66602 13.6673C4.31239 13.6673 3.97325 13.5268 3.72321 13.2768C3.47316 13.0267 3.33268 12.6876 3.33268 12.334C3.33268 11.594 3.92602 11.0007 4.66602 11.0007ZM10.666 6.33398L12.5193 3.00065H4.09268L5.66602 6.33398H10.666Z" fill="white"/>
</svg>
