<svg width="19" height="18" viewBox="0 0 19 18" fill="none" xmlns="http://www.w3.org/2000/svg">
<path d="M7.25 0H1.25C0.984784 0 0.73043 0.105357 0.542893 0.292893C0.355357 0.48043 0.25 0.734784 0.25 1V7C0.25 7.26522 0.355357 7.51957 0.542893 7.70711C0.73043 7.89464 0.984784 8 1.25 8H7.25C7.51522 8 7.76957 7.89464 7.95711 7.70711C8.14464 7.51957 8.25 7.26522 8.25 7V1C8.25 0.734784 8.14464 0.48043 7.95711 0.292893C7.76957 0.105357 7.51522 0 7.25 0ZM6.25 6H2.25V2H6.25V6ZM17.25 10H11.25C10.9848 10 10.7304 10.1054 10.5429 10.2929C10.3554 10.4804 10.25 10.7348 10.25 11V17C10.25 17.2652 10.3554 17.5196 10.5429 17.7071C10.7304 17.8946 10.9848 18 11.25 18H17.25C17.5152 18 17.7696 17.8946 17.9571 17.7071C18.1446 17.5196 18.25 17.2652 18.25 17V11C18.25 10.7348 18.1446 10.4804 17.9571 10.2929C17.7696 10.1054 17.5152 10 17.25 10ZM16.25 16H12.25V12H16.25V16ZM14.25 0C12.044 0 10.25 1.794 10.25 4C10.25 6.206 12.044 8 14.25 8C16.456 8 18.25 6.206 18.25 4C18.25 1.794 16.456 0 14.25 0ZM14.25 6C13.147 6 12.25 5.103 12.25 4C12.25 2.897 13.147 2 14.25 2C15.353 2 16.25 2.897 16.25 4C16.25 5.103 15.353 6 14.25 6ZM4.25 10C2.044 10 0.25 11.794 0.25 14C0.25 16.206 2.044 18 4.25 18C6.456 18 8.25 16.206 8.25 14C8.25 11.794 6.456 10 4.25 10ZM4.25 16C3.147 16 2.25 15.103 2.25 14C2.25 12.897 3.147 12 4.25 12C5.353 12 6.25 12.897 6.25 14C6.25 15.103 5.353 16 4.25 16Z" fill="#827E7E"/>
</svg>
