<svg width="16" height="16" viewBox="0 0 16 16" fill="none" xmlns="http://www.w3.org/2000/svg">
<path d="M3.33398 12V14.5107L4.34398 13.9047L7.51865 12H10.6673C11.4027 12 12.0007 11.402 12.0007 10.6667V5.33333C12.0007 4.598 11.4027 4 10.6673 4H2.66732C1.93198 4 1.33398 4.598 1.33398 5.33333V10.6667C1.33398 11.402 1.93198 12 2.66732 12H3.33398ZM2.66732 5.33333H10.6673V10.6667H7.14932L4.66732 12.156V10.6667H2.66732V5.33333Z" fill="black"/>
<path d="M13.3333 1.3335H5.33333C4.598 1.3335 4 1.9315 4 2.66683H12C12.7353 2.66683 13.3333 3.26483 13.3333 4.00016V9.3335C14.0687 9.3335 14.6667 8.7355 14.6667 8.00016V2.66683C14.6667 1.9315 14.0687 1.3335 13.3333 1.3335Z" fill="black"/>
</svg>
