<svg width="60" height="60" viewBox="0 0 60 60" fill="none" xmlns="http://www.w3.org/2000/svg">
<rect x="0.5" y="0.5" width="59" height="59" rx="29.5" fill="#F3F3F3"/>
<rect x="0.5" y="0.5" width="59" height="59" rx="29.5" stroke="#D9D9D9"/>
<g clip-path="url(#clip0_36_163459)">
<path fill-rule="evenodd" clip-rule="evenodd" d="M30.0004 16C35.2444 16 39.6124 20.368 39.6124 25.61C39.6124 27.322 39.0244 29.01 38.2024 30.538C37.3764 32.074 36.2844 33.506 35.2004 34.726C34.2537 35.7858 33.2375 36.7813 32.1584 37.706C31.8057 38.0087 31.4415 38.2975 31.0664 38.572C30.9399 38.6637 30.8098 38.7504 30.6764 38.832C30.566 38.8984 30.4495 38.954 30.3284 38.998C30.0609 39.0842 29.7703 39.0626 29.5184 38.938C29.4512 38.9063 29.3857 38.8709 29.3224 38.832C29.1883 38.7485 29.0575 38.6598 28.9304 38.566C28.556 38.2902 28.1924 38 27.8404 37.696C26.7617 36.7674 25.7461 35.7678 24.8004 34.704C23.7164 33.48 22.6244 32.044 21.8004 30.514C20.9784 28.99 20.3884 27.308 20.3884 25.61C20.3884 20.368 24.7564 16 30.0004 16ZM30.0004 28.48C29.2393 28.48 28.5093 28.1776 27.971 27.6394C27.4328 27.1012 27.1304 26.3712 27.1304 25.61C27.1304 24.8488 27.4328 24.1188 27.971 23.5806C28.5093 23.0424 29.2393 22.74 30.0004 22.74C30.7616 22.74 31.4916 23.0424 32.0298 23.5806C32.568 24.1188 32.8704 24.8488 32.8704 25.61C32.8704 26.3712 32.568 27.1012 32.0298 27.6394C31.4916 28.1776 30.7616 28.48 30.0004 28.48ZM36.2004 36.312C36.5684 35.8987 36.9351 35.4653 37.3004 35.012H39.9864C40.3864 35.012 40.7464 35.252 40.9064 35.618L43.9004 42.608C43.9657 42.7602 43.9921 42.9262 43.9773 43.0911C43.9626 43.256 43.9071 43.4146 43.8159 43.5528C43.7247 43.691 43.6007 43.8044 43.4548 43.8828C43.309 43.9612 43.146 44.0021 42.9804 44.002H17.0204C16.8549 44.0021 16.6918 43.9612 16.546 43.8828C16.4002 43.8044 16.2761 43.691 16.1849 43.5528C16.0937 43.4146 16.0383 43.256 16.0235 43.0911C16.0088 42.9262 16.0352 42.7602 16.1004 42.608L19.0964 35.618C19.1736 35.438 19.3019 35.2846 19.4654 35.1769C19.629 35.0692 19.8206 35.0118 20.0164 35.012H22.7264C23.0811 35.452 23.4391 35.876 23.8004 36.284C25.1244 37.776 26.4604 39.036 27.5004 39.926C28.0204 40.372 28.4744 40.73 28.8224 40.982C28.9958 41.1087 29.1504 41.2133 29.2864 41.296C29.4027 41.3746 29.5301 41.4353 29.6644 41.476C29.9377 41.5649 30.2349 41.5434 30.4924 41.416C30.5724 41.3773 30.6458 41.338 30.7124 41.298C30.8711 41.2019 31.0253 41.0984 31.1744 40.988C31.5224 40.736 31.9744 40.38 32.4964 39.938C33.5364 39.054 34.8764 37.8 36.1984 36.312H36.2004Z" fill="#827E7E"/>
</g>
<defs>
<clipPath id="clip0_36_163459">
<rect width="28" height="28" fill="white" transform="translate(16 16)"/>
</clipPath>
</defs>
</svg>
