<svg width="24" height="24" viewBox="0 0 24 24" fill="none" xmlns="http://www.w3.org/2000/svg">
<g clip-path="url(#clip0_2493_40238)">
<path d="M17.445 8.62115C16.8866 8.41872 16.2967 8.31689 15.7028 8.3204C13.785 8.3204 12.4298 9.2894 12.4215 10.6761C12.4058 11.6954 13.3822 12.2699 14.1202 12.6134C14.8785 12.9652 15.132 13.1842 15.1283 13.4962C15.1245 13.9769 14.5223 14.1914 13.968 14.1914C13.1978 14.1914 12.78 14.0864 12.1357 13.8164L11.8965 13.7032L11.6235 15.3052C12.0922 15.4964 12.9323 15.6644 13.7992 15.6802C15.8422 15.6802 17.1742 14.7194 17.1893 13.2381C17.205 12.4259 16.6822 11.8094 15.5685 11.3009C14.8965 10.9732 14.4757 10.7497 14.4757 10.4137C14.4757 10.1167 14.835 9.80465 15.585 9.80465C16.0827 9.79299 16.5773 9.88468 17.0378 10.0739L17.2215 10.1557L17.4907 8.6129L17.445 8.62115ZM22.4303 8.45315H20.9303C20.4615 8.45315 20.1135 8.5784 19.9065 9.0434L17.0235 15.5782H19.0627L19.4738 14.5079L21.9615 14.5117C22.0238 14.7614 22.1993 15.5774 22.1993 15.5774H24L22.4303 8.45315ZM9.66 8.39465H11.6017L10.3868 15.5227H8.445L9.66 8.3909V8.39465ZM4.72275 12.3202L4.9215 13.3124L6.8235 8.45315H8.88225L5.81925 15.5661H3.7695L2.0895 9.5429C2.07692 9.49274 2.0541 9.44573 2.02248 9.40482C1.99086 9.3639 1.95112 9.32997 1.90575 9.30515C1.30208 8.99174 0.661976 8.75419 0 8.5979L0.02325 8.44865H3.156C3.57825 8.4644 3.92175 8.5979 4.03875 9.0509L4.72275 12.3239V12.3202ZM20.0272 13.0506L20.805 11.0549C20.793 11.0737 20.9648 10.6447 21.0623 10.3747L21.195 10.9874L21.645 13.0462H20.0272V13.0506Z" fill="#00152B"/>
</g>
<defs>
<clipPath id="clip0_2493_40238">
<rect width="24" height="24" fill="white"/>
</clipPath>
</defs>
</svg>
