<svg width="106" height="39" viewBox="0 0 106 39" fill="none" xmlns="http://www.w3.org/2000/svg">
<mask id="path-1-inside-1_3_15569" fill="white">
<path d="M0 2C0 0.89543 0.895431 0 2 0H36V39H2C0.895431 39 0 38.1046 0 37V2Z"/>
</mask>
<path d="M0 2C0 0.89543 0.895431 0 2 0H36V39H2C0.895431 39 0 38.1046 0 37V2Z" fill="#F6F6F6"/>
<path d="M36 0H37V-1H36V0ZM36 39V40H37V39H36ZM2 1H36V-1H2V1ZM35 0V39H37V0H35ZM36 38H2V40H36V38ZM1 37V2H-1V37H1ZM2 38C1.44772 38 1 37.5523 1 37H-1C-1 38.6569 0.343147 40 2 40V38ZM2 -1C0.343146 -1 -1 0.343146 -1 2H1C1 1.44772 1.44772 1 2 1V-1Z" fill="#D9D9D9" mask="url(#path-1-inside-1_3_15569)"/>
<path d="M23.1429 22H12.8571C12.3857 22 12 21.325 12 20.5C12 19.675 12.3857 19 12.8571 19H23.1429C23.6143 19 24 19.675 24 20.5C24 21.325 23.6143 22 23.1429 22Z" fill="#5E5E5E"/>
<mask id="path-4-inside-2_3_15569" fill="white">
<path d="M36 0H70V39H36V0Z"/>
</mask>
<path d="M36 1H70V-1H36V1ZM70 38H36V40H70V38Z" fill="#D9D9D9" mask="url(#path-4-inside-2_3_15569)"/>
<path d="M54 13.5859V25H52.1172V15.8203L49.3281 16.7656V15.2109L53.7734 13.5859H54Z" fill="#2D2828"/>
<path d="M70.5 0.5H104C104.828 0.5 105.5 1.17157 105.5 2V37C105.5 37.8284 104.828 38.5 104 38.5H70.5V0.5Z" fill="#F6F6F6"/>
<path d="M70.5 0.5H104C104.828 0.5 105.5 1.17157 105.5 2V37C105.5 37.8284 104.828 38.5 104 38.5H70.5V0.5Z" stroke="#D9D9D9"/>
<path d="M82 20H88M88 20H94M88 20V14M88 20V26" stroke="#5E5E5E" stroke-width="2" stroke-linecap="round" stroke-linejoin="round"/>
</svg>
