<svg width="28" height="28" viewBox="0 0 28 28" fill="none" xmlns="http://www.w3.org/2000/svg">
<rect x="0.5" y="0.5" width="27" height="27" rx="13.5" fill="#F3F3F3"/>
<rect x="0.5" y="0.5" width="27" height="27" rx="13.5" stroke="#D9D9D9"/>
<path fill-rule="evenodd" clip-rule="evenodd" d="M11.0167 10.2667L11.558 19.3653C11.5661 19.5009 11.6257 19.6283 11.7246 19.7215C11.8235 19.8146 11.9541 19.8666 12.09 19.8667H16.9113C17.0472 19.8666 17.1779 19.8146 17.2767 19.7215C17.3756 19.6283 17.4352 19.5009 17.4433 19.3653L17.9847 10.2667H11.0167ZM18.7867 10.2667L18.242 19.4127C18.2218 19.7519 18.0728 20.0706 17.8255 20.3037C17.5781 20.5368 17.2512 20.6666 16.9113 20.6667H12.09C11.7501 20.6666 11.4232 20.5368 11.1758 20.3037C10.9285 20.0706 10.7795 19.7519 10.7593 19.4127L10.2147 10.2667H8.83398V9.8C8.83398 9.71159 8.8691 9.62681 8.93162 9.5643C8.99413 9.50179 9.07891 9.46667 9.16732 9.46667H19.834C19.9224 9.46667 20.0072 9.50179 20.0697 9.5643C20.1322 9.62681 20.1673 9.71159 20.1673 9.8V10.2667H18.7867ZM15.834 8C15.9224 8 16.0072 8.03512 16.0697 8.09763C16.1322 8.16014 16.1673 8.24493 16.1673 8.33333V8.8H12.834V8.33333C12.834 8.24493 12.8691 8.16014 12.9316 8.09763C12.9941 8.03512 13.0789 8 13.1673 8H15.834ZM12.834 12H13.634L13.9673 18H13.1673L12.834 12ZM15.3673 12H16.1673L15.834 18H15.034L15.3673 12Z" fill="#827E7E"/>
</svg>
