<svg width="40" height="40" viewBox="0 0 40 40" fill="none" xmlns="http://www.w3.org/2000/svg">
<rect width="40" height="40" rx="20" fill="#003366" fill-opacity="0.15"/>
<path d="M30.7551 19.04L27.5001 15.38C27.3233 15.1809 27.1061 15.0217 26.863 14.9131C26.6199 14.8045 26.3564 14.7489 26.0901 14.75H23.0901V12.125C23.0902 11.6303 22.8947 11.1557 22.5463 10.8044C22.1979 10.4532 21.7248 10.254 21.2301 10.25H10.6401C10.1429 10.25 9.66594 10.4475 9.31431 10.7992C8.96268 11.1508 8.76514 11.6277 8.76514 12.125V24.875C8.76514 25.3723 8.96268 25.8492 9.31431 26.2008C9.66594 26.5525 10.1429 26.75 10.6401 26.75H11.1351C11.1626 27.571 11.5142 28.3476 12.113 28.9099C12.7118 29.4722 13.5091 29.7743 14.3301 29.75C15.1527 29.7743 15.9515 29.4727 16.5527 28.9108C17.154 28.349 17.5088 27.5723 17.5401 26.75H23.0001C23.0276 27.571 23.3792 28.3476 23.978 28.9099C24.5768 29.4722 25.3741 29.7743 26.1951 29.75C27.0177 29.7743 27.8165 29.4727 28.4177 28.9108C29.019 28.349 29.3738 27.5723 29.4051 26.75C29.8881 26.727 30.3438 26.5198 30.6786 26.171C31.0134 25.8223 31.2018 25.3585 31.2051 24.875V20.285C31.2158 19.8284 31.0552 19.3843 30.7551 19.04ZM14.3301 27.875C14.0061 27.8999 13.6854 27.7955 13.4381 27.5847C13.1908 27.374 13.0369 27.0739 13.0101 26.75C13.0369 26.4261 13.1908 26.126 13.4381 25.9153C13.6854 25.7045 14.0061 25.6001 14.3301 25.625C14.6557 25.6 14.9781 25.7039 15.2279 25.9143C15.4776 26.1247 15.6346 26.4249 15.6651 26.75C15.6346 27.0751 15.4776 27.3753 15.2279 27.5857C14.9781 27.7961 14.6557 27.9 14.3301 27.875ZM21.2301 16.505V24.875H16.8351C16.5248 24.5163 16.1398 24.2297 15.7071 24.0354C15.2744 23.8411 14.8044 23.7437 14.3301 23.75C13.8584 23.7459 13.3913 23.8443 12.9614 24.0386C12.5314 24.2328 12.1488 24.5182 11.8401 24.875H10.6401V12.125H21.2301V16.505ZM23.1051 16.625H26.1051L28.2651 19.07H23.1051V16.625ZM26.2251 27.875C25.9011 27.8999 25.5804 27.7955 25.3331 27.5847C25.0858 27.374 24.9319 27.0739 24.9051 26.75C24.9319 26.4261 25.0858 26.126 25.3331 25.9153C25.5804 25.7045 25.9011 25.6001 26.2251 25.625C26.5507 25.6 26.8731 25.7039 27.1229 25.9143C27.3726 26.1247 27.5296 26.4249 27.5601 26.75C27.5296 27.0751 27.3726 27.3753 27.1229 27.5857C26.8731 27.7961 26.5507 27.9 26.2251 27.875ZM26.2251 23.75C25.7534 23.7459 25.2863 23.8443 24.8564 24.0386C24.4264 24.2328 24.0438 24.5182 23.7351 24.875H23.1051V20.93H29.3601V24.875H28.7301C28.4198 24.5163 28.0348 24.2297 27.6021 24.0354C27.1694 23.8411 26.6994 23.7437 26.2251 23.75Z" fill="#003366"/>
</svg>
