<svg width="25" height="24" viewBox="0 0 25 24" fill="none" xmlns="http://www.w3.org/2000/svg">
<g clip-path="url(#clip0_381_21213)">
<path d="M4.64993 10.3027L3.88293 11.3457H8.06293C8.27293 11.3457 8.27093 11.4237 8.16793 11.5637C8.06293 11.7057 7.88793 11.9537 7.78193 12.0977C7.72793 12.1707 7.62793 12.3047 7.95293 12.3047H9.66293L10.1679 11.6147C10.4819 11.1887 10.1959 10.3027 9.07293 10.3027H4.64993ZM11.8539 10.3027L10.3789 12.3047H15.7689L17.2419 10.3027H15.0399L14.1969 11.4487H13.2119L14.0579 10.3027H11.8549H11.8539ZM17.9589 10.3027L16.4849 12.3047H18.8189L20.2909 10.3027H17.9599H17.9589ZM5.11393 11.6027L3.57393 13.6967H7.32793C8.56793 13.6967 9.25993 12.8527 9.47293 12.5607H6.91293C6.58693 12.5607 6.68693 12.4277 6.74093 12.3537C6.84793 12.2107 7.02393 11.9657 7.12893 11.8237C7.23293 11.6837 7.23593 11.6037 7.02393 11.6037H5.11393V11.6027ZM0.429932 12.5617V12.8037H3.82793L4.00393 12.5617H0.429932ZM10.1919 12.5617L9.35593 13.6977H11.5589L12.3949 12.5617H10.1919ZM13.3769 12.5617L12.5409 13.6977H14.7439L15.5799 12.5617H13.3769ZM16.2949 12.5617C16.2949 12.5617 16.1359 12.7817 16.0569 12.8877C15.7809 13.2617 16.0239 13.6977 16.9269 13.6977H20.4649L21.2989 12.5617H16.2949ZM21.7029 12.5617L21.5259 12.8037H24.4299V12.5617H21.7029ZM0.429932 13.0097V13.2497H3.49793L3.67593 13.0097H0.429932ZM21.3729 13.0097L21.1979 13.2497H24.4299V13.0097H21.3729ZM0.429932 13.4567V13.6967H3.16993L3.34593 13.4567H0.429932ZM21.0449 13.4567L20.8679 13.6967H24.4299V13.4567H21.0449Z" fill="white"/>
</g>
<defs>
<clipPath id="clip0_381_21213">
<rect width="24" height="24" fill="white" transform="translate(0.429932)"/>
</clipPath>
</defs>
</svg>
