<svg width="28" height="28" viewBox="0 0 28 28" fill="none" xmlns="http://www.w3.org/2000/svg">
<rect x="0.5" y="0.5" width="27" height="27" rx="13.5" fill="#F3F3F3"/>
<rect x="0.5" y="0.5" width="27" height="27" rx="13.5" stroke="#D9D9D9"/>
<path d="M15.8733 12.0133L16.4867 12.6267L10.4467 18.6667H9.83333V18.0533L15.8733 12.0133ZM18.2733 8C18.1067 8 17.9333 8.06667 17.8067 8.19333L16.5867 9.41333L19.0867 11.9133L20.3067 10.6933C20.3685 10.6317 20.4175 10.5584 20.451 10.4777C20.4844 10.3971 20.5016 10.3106 20.5016 10.2233C20.5016 10.136 20.4844 10.0496 20.451 9.96892C20.4175 9.88827 20.3685 9.81501 20.3067 9.75333L18.7467 8.19333C18.6133 8.06 18.4467 8 18.2733 8ZM15.8733 10.1267L8.5 17.5V20H11L18.3733 12.6267L15.8733 10.1267Z" fill="#827E7E"/>
</svg>
