<svg width="24" height="24" viewBox="0 0 24 24" fill="none" xmlns="http://www.w3.org/2000/svg">
<path d="M9.60195 21.0264V13.7524H6.81795C6.67341 13.7524 6.53478 13.695 6.43258 13.5928C6.33037 13.4906 6.27295 13.352 6.27295 13.2074V10.3304C6.27295 10.1859 6.33037 10.0473 6.43258 9.94506C6.53478 9.84286 6.67341 9.78544 6.81795 9.78544H9.59095V7.00044C9.52461 6.33999 9.60368 5.67303 9.8226 5.04639C10.0415 4.41976 10.395 3.84866 10.8581 3.37319C11.3213 2.89773 11.883 2.52944 12.5036 2.29418C13.1243 2.05893 13.789 1.96242 14.4509 2.01144H16.7709C16.9169 2.01115 17.057 2.06824 17.1613 2.17038C17.2655 2.27253 17.3253 2.41154 17.3279 2.55744V4.99344C17.3248 5.13907 17.2647 5.27768 17.1606 5.37956C17.0565 5.48144 16.9166 5.53847 16.7709 5.53844H15.3209C13.7549 5.53844 13.4539 6.28044 13.4539 7.37144V9.78444H17.1769C17.2543 9.78187 17.3313 9.7962 17.4026 9.82641C17.4739 9.85662 17.5377 9.90201 17.5897 9.95939C17.6417 10.0168 17.6805 10.0848 17.7035 10.1587C17.7265 10.2326 17.7332 10.3107 17.7229 10.3874L17.3859 13.2754C17.3691 13.4077 17.3043 13.5292 17.2038 13.6169C17.1034 13.7047 16.9743 13.7525 16.8409 13.7514H13.4769V21.0254C13.4788 21.154 13.4549 21.2815 13.4066 21.4006C13.3582 21.5197 13.2865 21.6279 13.1955 21.7187C13.1046 21.8096 12.9964 21.8812 12.8772 21.9294C12.7581 21.9777 12.6305 22.0015 12.5019 21.9994H10.5649C10.4374 21.9999 10.3111 21.9749 10.1934 21.9259C10.0756 21.877 9.96883 21.8051 9.87918 21.7144C9.78953 21.6237 9.71884 21.5161 9.67125 21.3978C9.62365 21.2795 9.60009 21.1539 9.60195 21.0264Z" fill="white"/>
</svg>
