<svg width="12" height="20" viewBox="0 0 12 20" fill="none" xmlns="http://www.w3.org/2000/svg">
<path d="M3.60244 19.0259V11.7519H0.818438C0.673895 11.7519 0.535272 11.6945 0.433064 11.5923C0.330857 11.4901 0.273438 11.3515 0.273438 11.2069V8.32995C0.273438 8.18541 0.330857 8.04678 0.433064 7.94458C0.535272 7.84237 0.673895 7.78495 0.818438 7.78495H3.59144V4.99995C3.5251 4.3395 3.60417 3.67254 3.82309 3.04591C4.042 2.41927 4.39546 1.84817 4.85863 1.37271C5.3218 0.897242 5.88345 0.528949 6.50413 0.293696C7.12481 0.0584433 7.78948 -0.0380653 8.45144 0.0109495H10.7714C10.9174 0.0106634 11.0575 0.0677509 11.1617 0.169896C11.2659 0.272041 11.3258 0.411056 11.3284 0.556949V2.99295C11.3253 3.13859 11.2652 3.2772 11.1611 3.37907C11.057 3.48095 10.9171 3.53798 10.7714 3.53795H9.32144C7.75544 3.53795 7.45444 4.27995 7.45444 5.37095V7.78395H11.1774C11.2548 7.78139 11.3318 7.79571 11.4031 7.82592C11.4744 7.85614 11.5382 7.90152 11.5902 7.95891C11.6422 8.0163 11.681 8.08432 11.704 8.15824C11.727 8.23216 11.7336 8.31021 11.7234 8.38695L11.3864 11.2749C11.3696 11.4072 11.3048 11.5287 11.2043 11.6164C11.1039 11.7042 10.9748 11.752 10.8414 11.7509H7.47744V19.025C7.47933 19.1535 7.45539 19.281 7.40705 19.4001C7.35871 19.5192 7.28695 19.6274 7.19602 19.7182C7.10509 19.8091 6.99684 19.8807 6.8777 19.9289C6.75856 19.9772 6.63095 20.001 6.50244 19.999H4.56544C4.43793 19.9994 4.31162 19.9744 4.19387 19.9254C4.07613 19.8765 3.96932 19.8046 3.87967 19.7139C3.79002 19.6232 3.71933 19.5156 3.67173 19.3973C3.62413 19.279 3.60058 19.1534 3.60244 19.0259Z" fill="#2D2828"/>
</svg>
