<svg width="20" height="20" viewBox="0 0 20 20" fill="none" xmlns="http://www.w3.org/2000/svg">
<path d="M10 6.66602C10 6.66602 10 6.66602 10.6333 5.83268C11.3667 4.86602 12.45 4.16602 13.75 4.16602C15.825 4.16602 17.5 5.84102 17.5 7.91602C17.5 8.69102 17.2667 9.40768 16.8667 9.99935C16.1917 11.0077 10 17.4993 10 17.4993C10 17.4993 3.80833 11.0077 3.13333 9.99935C2.73333 9.40768 2.5 8.69102 2.5 7.91602C2.5 5.84102 4.175 4.16602 6.25 4.16602C7.55 4.16602 8.64167 4.86602 9.36667 5.83268C10 6.66602 10 6.66602 10 6.66602Z" fill="#003366"/>
<path d="M10 6.66602C10 6.66602 10 6.66602 9.36667 5.83268C8.63333 4.86602 7.55 4.16602 6.25 4.16602C4.175 4.16602 2.5 5.84102 2.5 7.91602C2.5 8.69102 2.73333 9.40768 3.13333 9.99935C3.80833 11.0077 10 17.4993 10 17.4993M10 6.66602C10 6.66602 10 6.66602 10.6333 5.83268C11.3667 4.86602 12.45 4.16602 13.75 4.16602C15.825 4.16602 17.5 5.84102 17.5 7.91602C17.5 8.69102 17.2667 9.40768 16.8667 9.99935C16.1917 11.0077 10 17.4993 10 17.4993" stroke="#003366" stroke-width="1.66667" stroke-linecap="round" stroke-linejoin="round"/>
</svg>
