<svg width="20" height="21" viewBox="0 0 20 21" fill="none" xmlns="http://www.w3.org/2000/svg">
<path d="M3.125 6.42676C3.125 6.261 3.19085 6.10203 3.30806 5.98482C3.42527 5.86761 3.58424 5.80176 3.75 5.80176H16.25C16.4158 5.80176 16.5747 5.86761 16.6919 5.98482C16.8092 6.10203 16.875 6.261 16.875 6.42676C16.875 6.59252 16.8092 6.75149 16.6919 6.8687C16.5747 6.98591 16.4158 7.05176 16.25 7.05176H3.75C3.58424 7.05176 3.42527 6.98591 3.30806 6.8687C3.19085 6.75149 3.125 6.59252 3.125 6.42676ZM5.20833 10.5934C5.20833 10.4277 5.27418 10.2687 5.39139 10.1515C5.5086 10.0343 5.66757 9.96842 5.83333 9.96842H14.1667C14.3324 9.96842 14.4914 10.0343 14.6086 10.1515C14.7258 10.2687 14.7917 10.4277 14.7917 10.5934C14.7917 10.7592 14.7258 10.9182 14.6086 11.0354C14.4914 11.1526 14.3324 11.2184 14.1667 11.2184H5.83333C5.66757 11.2184 5.5086 11.1526 5.39139 11.0354C5.27418 10.9182 5.20833 10.7592 5.20833 10.5934ZM7.70833 14.7601C7.70833 14.5943 7.77418 14.4354 7.89139 14.3181C8.0086 14.2009 8.16757 14.1351 8.33333 14.1351H11.6667C11.8324 14.1351 11.9914 14.2009 12.1086 14.3181C12.2258 14.4354 12.2917 14.5943 12.2917 14.7601C12.2917 14.9259 12.2258 15.0848 12.1086 15.202C11.9914 15.3192 11.8324 15.3851 11.6667 15.3851H8.33333C8.16757 15.3851 8.0086 15.3192 7.89139 15.202C7.77418 15.0848 7.70833 14.9259 7.70833 14.7601Z" fill="white"/>
</svg>
