<svg width="174" height="46" viewBox="0 0 174 46" fill="none" xmlns="http://www.w3.org/2000/svg">
<ellipse cx="22.25" cy="23" rx="22.25" ry="22.25" fill="#003366"/>
<path d="M29.1621 41.3194C32.9538 39.8887 36.2082 37.3167 38.4763 33.9581C40.7444 30.5996 41.9145 26.62 41.8251 22.5683C41.7357 18.5166 40.3913 14.5924 37.9773 11.3371C35.5633 8.08187 32.1986 5.65586 28.3475 4.39376L28.201 4.84085C31.9596 6.07262 35.2434 8.44033 37.5994 11.6174C39.9554 14.7944 41.2675 18.6243 41.3547 22.5786C41.4419 26.533 40.3 30.417 38.0864 33.6948C35.8728 36.9727 32.6966 39.4829 28.996 40.8792L29.1621 41.3194Z" fill="white"/>
<path d="M15.9221 4.47061C12.0005 5.80987 8.60482 8.35886 6.22396 11.7507C3.84309 15.1426 2.59978 19.2023 2.67298 23.3457C2.74617 27.4891 4.13209 31.5025 6.63126 34.8081C9.13043 38.1138 12.614 40.5412 16.5805 41.7412L16.7167 41.2908C12.8455 40.1198 9.44567 37.7506 7.00655 34.5244C4.56743 31.2982 3.21482 27.3813 3.14338 23.3374C3.07195 19.2936 4.28538 15.3314 6.60904 12.021C8.93269 8.71066 12.2467 6.22292 16.0742 4.91584L15.9221 4.47061Z" fill="white"/>
<path d="M27.3481 41.4251C27.0544 41.9681 25.5856 41.9592 25.0604 42.0615C24.6332 41.2248 24.2281 40.4236 23.8365 39.6537H21.3574C21.0147 40.4414 20.6675 41.2381 20.307 42.0704C19.7907 42.0704 18.2285 42.0215 17.917 41.5497C17.5743 41.0245 17.9081 39.4222 17.9081 38.7902C17.2093 38.4164 16.5061 38.0425 15.7673 37.6508C15.3044 37.9802 14.2451 39.0395 13.6754 39.0217C13.1146 39.0039 12.309 37.9668 11.9352 37.6197C12.4114 36.7785 12.8609 35.9996 13.3193 35.194C12.7541 34.4685 12.1978 33.7564 11.6503 33.0532C11.3521 33.1066 11.0984 33.1556 10.8625 33.1956C10.0124 32.3233 9.1757 31.4732 8.31226 30.5919C8.38792 30.4985 8.47248 30.405 8.57485 30.2848C8.92646 30.6498 9.25136 30.9881 9.59852 31.3441C9.68754 31.2418 9.74985 31.175 9.82551 31.0904C9.49616 30.7344 9.1757 30.3872 8.83299 30.0178C9.33148 29.5416 9.80771 29.0876 10.324 28.598C12.7853 31.037 15.1531 34.2505 18.2552 35.875C21.3262 37.4862 25.0738 37.4105 27.811 35.1317C30.0853 33.2401 31.1491 30.1647 30.5616 27.2672C30.1877 25.4202 29.1818 24.4455 27.9 23.1548C26.5603 21.8017 25.2162 20.4531 23.8765 19.1001C26.7428 16.6077 22.7994 12.4151 20.3649 15.1434C19.3412 16.2872 19.5014 18.1432 20.7387 19.069C21.304 19.4918 21.8692 19.4428 22.4923 19.6387C23.3647 19.9146 24.0546 20.9383 24.6866 21.5703C25.4654 22.3536 26.2488 23.1325 27.0321 23.9114C27.6775 24.5567 28.4786 25.1709 28.9014 25.9899C29.618 27.3741 29.7026 29.1544 29.3109 30.6409C28.4207 34.0502 24.967 36.2088 21.5221 35.7103C19.1721 35.3721 17.9837 33.841 16.3904 32.2476C14.7881 30.6454 13.1369 29.0742 11.5925 27.4097C11.8417 27.196 12.082 26.9913 12.3669 26.751C14.6279 28.7716 16.6396 31.1127 18.7849 33.2579C20.4584 34.927 23.0576 35.1718 25.1583 34.1303C27.2101 33.1111 28.5009 30.908 28.4519 28.6247C28.4207 27.1738 27.8555 25.7985 26.8407 24.7659C26.3022 24.2185 25.7414 23.6933 25.1895 23.1592C24.6866 22.6696 24.0679 21.7661 23.4003 21.5347C25.0604 23.3417 27.317 25.0908 27.7932 27.6188C28.2294 29.9466 27.2413 32.2699 25.1717 33.4671C23.1377 34.6421 20.6364 34.3128 18.9406 32.7194C16.782 30.6854 14.7436 28.4912 12.6651 26.3726C12.8431 26.1724 13.0033 25.9943 13.1992 25.7718C14.3964 26.9468 15.5714 28.104 16.7776 29.2923C17.3384 28.874 17.7701 28.4111 18.2196 27.8992C16.9245 26.3237 15.3266 24.935 13.8935 23.4841C13.3238 22.9055 12.7586 22.0599 11.9352 21.9174C11.2408 21.7973 10.3106 22.1088 9.58962 22.1088C9.28697 21.3522 9.10894 20.5822 8.95316 19.7722C9.60742 19.1936 10.4486 18.9399 11.1919 18.4637V16.2116C10.6177 15.9267 9.66528 15.6508 9.22021 15.2102C8.75288 14.7473 8.97987 14.4268 9.16235 13.7859C9.30032 13.3097 9.32703 12.8112 9.80326 12.6243C10.2884 12.4329 11.5435 12.7178 12.0464 12.7489C12.4292 12.1703 12.8476 11.5294 13.3015 10.8395C12.7764 10.0785 12.2334 9.28623 11.7037 8.51625C11.9752 8.03557 12.8075 7.29674 13.4974 6.91398C14.1917 7.39021 14.8949 7.87089 15.6115 8.36047C16.2657 8.02666 16.9022 7.69731 17.552 7.3635C17.5164 6.70479 17.0802 4.97345 17.5876 4.41266C18.0015 3.95868 19.4124 3.99429 19.9688 3.90527C20.3382 4.72421 20.6809 5.48974 21.028 6.26417H23.4359C23.7697 5.5298 24.1258 4.75537 24.5041 3.92753C25.0738 3.99874 26.4669 3.95423 26.8318 4.46162C27.2235 5.00906 26.9921 6.67364 26.9921 7.34125C27.6463 7.6439 28.2961 7.94655 28.9815 8.267C29.6358 7.79077 30.3034 7.31009 31.0066 6.80271C31.6297 7.23443 32.2706 7.6172 32.8003 8.19579C32.3508 9.08149 31.9146 9.94049 31.4695 10.8173C31.9769 11.4404 32.4665 12.0457 32.9739 12.6643C33.2854 12.6109 33.6014 12.5575 33.8818 12.5086C34.5761 13.5322 35.493 14.2933 36.3119 15.1835C36.2407 15.2725 36.165 15.3615 36.0538 15.4995C35.7244 15.1434 35.4173 14.8096 35.0524 14.4179C34.9411 14.5426 34.8699 14.6182 34.7853 14.7117C35.1547 15.09 35.4841 15.4283 35.8357 15.7843C35.3061 16.2872 34.7942 16.7679 34.2913 17.2442C32.9694 15.9445 31.6475 14.6449 30.339 13.332C29.0661 12.0501 27.9579 10.8128 26.2799 10.0562C23.1911 8.66312 19.6038 8.82335 16.92 11.0176C14.7436 12.8023 13.5997 15.9134 14.1071 18.6818C14.7658 22.278 18.4333 24.5389 20.8144 27.0714C19.8041 28.1262 19.319 29.4837 20.1958 30.8189C20.8678 31.8426 22.2698 32.2476 23.3869 31.7402C26.2577 30.4362 24.9047 26.6397 22.0428 26.6397C20.8189 25.4202 19.5994 24.1962 18.371 22.9856C17.0847 21.7216 15.8874 20.8448 15.4023 19.0467C14.6323 16.1982 15.8963 13.1228 18.3131 11.4626C20.4272 10.0072 23.5516 9.85147 25.7102 11.3024C27.0366 12.1926 28.0736 13.5812 29.2041 14.6983C30.4681 15.9401 31.7187 17.1952 32.9694 18.4548C32.7602 18.6728 32.551 18.8865 32.3196 19.1224C30.0141 17.1062 28.1403 14.5203 25.7681 12.5931C23.9655 11.1288 21.2417 10.9864 19.2477 12.1392C17.1915 13.332 16.0032 15.8066 16.2835 18.1521C16.4438 19.4918 17.0535 20.5689 18.0104 21.4991C18.5712 22.0465 19.1498 22.5762 19.7195 23.1147C19.9688 23.3506 21.0503 24.6368 21.3975 24.6101C19.6038 22.6741 17.0046 20.8003 16.7687 17.9563C16.5817 15.6864 17.8013 13.4076 19.862 12.4106C21.7046 11.5205 24.0145 11.7475 25.5901 13.0783C26.6627 13.9818 27.6152 15.0811 28.6032 16.0736C29.7115 17.1863 30.9087 18.2545 31.9279 19.4428C31.7588 19.6209 31.5986 19.7944 31.4116 19.9947C30.2322 18.9621 29.2352 17.7248 28.0157 16.7412C27.4505 17.1685 26.9119 17.5869 26.4847 18.1699C27.8778 20.0837 29.8138 21.7038 31.4651 23.3995C32.4353 24.3965 32.8804 24.1206 34.1934 24.036C34.9455 23.987 34.9633 23.9648 35.2571 24.6591C35.4885 25.211 35.6265 25.8207 35.809 26.3904C34.9277 26.9334 33.6237 27.2583 33.5703 28.3488C33.5391 29.0253 33.4189 29.7196 33.913 30.178C34.3847 30.6098 35.3105 30.8323 35.8668 31.1794C35.809 31.9895 35.5063 32.7239 35.2704 33.5072C34.4426 33.5339 33.6548 33.4182 32.8314 33.3425C32.4309 33.9968 32.0348 34.6466 31.6119 35.3409C32.0659 36.1109 32.5199 36.8853 32.9872 37.682C32.5288 38.3273 31.9546 38.7902 31.2737 39.1997C30.5794 38.7057 29.8939 38.2161 29.2174 37.7354C28.5587 38.1048 27.9312 38.4564 27.3214 38.7991C27.3437 39.4311 27.6864 40.8598 27.3659 41.4473L27.3481 41.4251Z" fill="white"/>
<path d="M55.4917 27.7057C56.0805 25.825 56.643 24.0497 57.2142 22.2041C57.557 22.2041 57.8558 22.2041 58.1634 22.2041C63.0498 22.2041 67.9362 22.2041 72.8226 22.2041C74.0705 22.2041 74.6594 21.8175 75.0988 20.6486C75.2307 20.2883 75.3361 19.9104 75.3976 19.5325C75.4943 18.9348 75.2219 18.5921 74.633 18.513C74.4309 18.4866 74.2199 18.5042 74.0178 18.5042C70.5727 18.5042 67.1276 18.513 63.6825 18.5042C63.1728 18.5042 62.6455 18.4691 62.1621 18.346C60.7384 17.9857 59.763 16.7992 59.719 15.3403C59.7014 14.7076 59.7805 14.0485 59.9387 13.4333C60.2287 12.3171 60.5714 11.2098 60.9493 10.12C62.1182 6.78037 65.1766 4.53052 68.7184 4.40748C70.1597 4.36354 71.601 4.38992 73.0423 4.39871C76.7949 4.39871 80.5477 4.39869 84.3092 4.40748C84.6168 4.40748 84.9155 4.40748 85.3285 4.40748C84.7485 6.26185 84.1949 8.02833 83.6236 9.84755C83.3512 9.84755 83.1227 9.84755 82.903 9.84755C78.2451 9.84755 73.596 9.84757 68.9381 9.83878C67.1013 9.83878 65.9237 10.9373 65.7655 12.7917C65.7303 13.2047 65.8621 13.4333 66.2752 13.5211C66.574 13.5827 66.8903 13.5826 67.1979 13.5826C70.2563 13.5826 73.3148 13.5826 76.3819 13.5826C76.918 13.5826 77.4629 13.6266 77.999 13.653C80.284 13.7409 81.9978 15.7973 81.4617 18.3109C81.1277 19.884 80.5828 21.422 80.0116 22.9336C79.6337 23.9531 78.9217 24.7968 78.078 25.491C76.3204 26.9324 74.343 27.776 72.0053 27.7585C67.0662 27.7233 62.1271 27.7585 57.1967 27.7497C56.6694 27.7497 56.1333 27.7145 55.5093 27.6969L55.4917 27.7057Z" fill="#003366"/>
<path d="M154.001 9.84777C152.05 15.8679 150.143 21.7737 148.219 27.7148H142.471C144.967 19.937 147.445 12.2031 149.924 4.44287C150.108 4.42529 150.258 4.39014 150.407 4.39014C155.733 4.39014 161.05 4.39892 166.376 4.4077C167.334 4.4077 168.292 4.44287 169.197 4.75047C169.821 4.96139 170.462 5.21625 171.016 5.56779C172.624 6.60483 173.573 8.36253 172.958 10.5772C172.563 11.9834 172.088 13.372 171.64 14.7693C171.095 16.4567 170.48 18.1177 169.997 19.8227C168.845 23.883 166.024 26.0977 162.096 27.1347C160.619 27.5214 159.116 27.6972 157.596 27.7323C155.513 27.7851 153.43 27.7587 151.347 27.7587C151.145 27.7587 150.943 27.7323 150.644 27.7148C151.233 25.8604 151.804 24.0675 152.384 22.2395C152.622 22.2219 152.824 22.1956 153.017 22.1956C155.328 22.1956 157.649 22.1956 159.96 22.1956C160.347 22.1956 160.733 22.1956 161.12 22.1868C162.43 22.1604 163.361 21.5277 163.924 20.3588C164.143 19.9018 164.31 19.4096 164.469 18.9175C165.286 16.4303 166.086 13.9344 166.894 11.4385C166.947 11.2715 167.008 11.0957 167.044 10.92C167.219 10.1642 166.991 9.86535 166.209 9.84777C165.005 9.83019 163.792 9.8302 162.579 9.8302C160.004 9.8302 157.438 9.8302 154.863 9.8302C154.581 9.8302 154.3 9.8302 154.001 9.8302V9.84777Z" fill="#003366"/>
<path d="M93.176 27.7587C91.348 27.7587 89.52 27.785 87.7008 27.7499C86.9625 27.7323 86.1979 27.6708 85.4949 27.4599C83.1659 26.7568 82.1113 24.6915 82.5683 22.7053C82.8144 21.6331 83.1571 20.5785 83.4998 19.5327C84.5105 16.3776 85.5739 13.2401 86.5582 10.0763C87.6568 6.5521 90.847 4.43408 94.3624 4.42529C98.1151 4.42529 101.868 4.4165 105.629 4.42529C106.192 4.42529 106.763 4.48681 107.317 4.59228C109.769 5.06685 111.175 7.20244 110.595 9.63685C110.296 10.9112 109.857 12.1504 109.461 13.3983C108.6 16.114 107.686 18.8208 106.86 21.5452C105.814 24.9815 103.379 26.8095 100.04 27.662C99.6707 27.7587 99.2752 27.7587 98.8885 27.7587C96.9814 27.7675 95.0831 27.7587 93.176 27.7587ZM94.5206 22.2044C96.2168 22.2044 97.9129 22.1956 99.6091 22.2132C100.356 22.2219 100.831 21.8968 101.086 21.2201C101.147 21.0531 101.209 20.8861 101.261 20.7103C102.193 17.8541 103.125 14.9978 104.047 12.1416C104.188 11.7021 104.355 11.2627 104.46 10.8233C104.627 10.129 104.416 9.84777 103.713 9.84777C100.4 9.84777 97.0869 9.84777 93.7736 9.84777C92.9475 9.84777 92.4202 10.252 92.095 10.9727C91.9895 11.21 91.9192 11.4561 91.8313 11.6933C90.8031 14.8396 89.7836 17.9859 88.7641 21.141C88.4741 22.0286 88.5971 22.1956 89.5111 22.2219C89.5902 22.2219 89.6693 22.2219 89.7396 22.2219C91.3304 22.2219 92.9211 22.2219 94.5206 22.2219V22.2044Z" fill="#003366"/>
<path d="M115.059 4.42529H120.816C120.701 4.84714 120.614 5.23384 120.491 5.61174C118.838 10.6915 117.177 15.7624 115.534 20.8422C115.411 21.2201 115.174 21.598 115.393 22.1253C115.692 22.1516 116.044 22.2132 116.386 22.2132C121.528 22.2132 126.669 22.2131 131.81 22.2044C132.012 22.2044 132.214 22.2044 132.531 22.2044C131.933 24.0851 131.362 25.9043 130.782 27.7147C130.571 27.7323 130.421 27.7499 130.263 27.7499C124.814 27.7499 119.366 27.7499 113.917 27.7499C113.433 27.7499 112.932 27.7411 112.458 27.6532C109.962 27.2226 108.705 25.4034 109.162 22.9162C109.241 22.5119 109.338 22.1077 109.461 21.721C111.271 16.07 113.091 10.4278 114.91 4.78562C114.945 4.68895 114.98 4.59226 115.042 4.43406L115.059 4.42529Z" fill="#003366"/>
<path d="M140.607 4.43359H146.443C143.912 12.2378 141.398 19.9804 138.894 27.6967H133.146C135.651 19.8837 138.129 12.1674 140.607 4.43359Z" fill="#003366"/>
<path d="M63.5889 37.8126C63.3604 37.7774 63.167 37.7159 62.9648 37.7159C61.6817 37.6983 60.3987 37.6895 59.1156 37.6808C58.9134 37.6808 58.7024 37.6807 58.5003 37.6632C57.7972 37.6016 57.3578 37.1974 57.2963 36.5031C57.2699 36.1779 57.2963 35.8264 57.3842 35.5188C57.5775 34.8245 57.8236 34.1478 58.0697 33.4711C58.43 32.4692 59.177 31.9067 60.2228 31.8892C62.666 31.854 65.1005 31.8892 67.5437 31.8892C67.5876 31.8892 67.6315 31.9331 67.7282 31.977C67.5261 32.6186 67.324 33.2602 67.1043 33.9457C66.4891 33.9457 65.9266 33.9457 65.3642 33.9457C63.9229 33.9457 62.4903 33.9369 61.049 33.9369C60.1262 33.9369 60.1262 33.9369 59.8098 34.8421C59.7307 35.053 59.6779 35.2815 59.5813 35.6067C59.9592 35.633 60.2756 35.6682 60.6008 35.6682C61.7608 35.6682 62.9121 35.6682 64.0722 35.6682C64.5907 35.6682 65.1004 35.7297 65.5047 36.1076C65.8475 36.424 66.0584 36.7843 66.0057 37.2589C65.9002 38.4278 65.5311 39.5351 64.8895 40.5019C64.3622 41.2928 63.4746 41.5828 62.5342 41.5916C61.7344 41.6004 60.9435 41.5477 60.1437 41.5389C58.9837 41.5301 57.8324 41.5389 56.6723 41.5389C56.2944 41.5389 55.9077 41.5389 55.3979 41.5389C55.6528 40.7919 55.8726 40.1591 56.1099 39.4736C56.4438 39.4736 56.7426 39.4736 57.0502 39.4736C58.7727 39.4736 60.4953 39.4736 62.2178 39.4736C63.3603 39.4736 63.6592 39.1309 63.5889 37.8214V37.8126Z" fill="#003366"/>
<path d="M95.948 41.5565H93.4697C93.0567 40.5282 92.6435 39.5088 92.2041 38.4278H90.1916C90.4553 37.6984 90.6838 37.0568 90.9386 36.3361C91.2286 36.3361 91.5011 36.3361 91.7823 36.3361C92.7314 36.3186 93.6806 36.301 94.6297 36.2922C94.9461 36.2922 95.1658 36.1604 95.2801 35.8615C95.4383 35.4573 95.6228 35.053 95.7371 34.64C95.8513 34.2005 95.6931 33.9632 95.2625 33.9632C93.7245 33.9457 92.1866 33.9632 90.6135 33.9632C89.761 36.5207 88.9173 39.043 88.0912 41.5389H86.0083C87.019 38.2872 88.012 35.1233 89.0051 31.9243C89.2072 31.9067 89.4094 31.8804 89.6116 31.8804C91.7208 31.8804 93.8212 31.8804 95.9304 31.8804C96.238 31.8804 96.5457 31.8804 96.8533 31.9243C97.7936 32.0473 98.4264 32.8295 98.1803 33.726C97.8815 34.8333 97.4948 35.9319 97.0466 36.9953C96.7566 37.6896 96.1414 38.0938 95.3943 38.2608C95.1483 38.3223 94.8934 38.3663 94.5595 38.4454C95.0253 39.4736 95.4647 40.4667 95.9568 41.5565H95.948Z" fill="#003366"/>
<path d="M142.948 41.5741H140.531C140.109 40.5546 139.705 39.5615 139.31 38.5948C138.554 38.542 137.868 38.4893 137.165 38.4366C137.438 37.7159 137.684 37.0832 137.947 36.3713C138.211 36.3625 138.484 36.3449 138.756 36.3449C139.6 36.3449 140.452 36.3449 141.296 36.3537C141.77 36.3625 142.078 36.1692 142.227 35.7122C142.35 35.3167 142.517 34.9388 142.597 34.5433C142.684 34.1478 142.526 33.9457 142.122 33.9369C140.637 33.9193 139.151 33.9369 137.64 33.9369C136.814 36.4943 136.005 39.0078 135.188 41.5477H133.017C134.08 38.2872 135.117 35.1057 136.155 31.9243C136.304 31.9067 136.401 31.8804 136.506 31.8804C138.791 31.8804 141.085 31.8804 143.37 31.8892C143.572 31.8892 143.783 31.898 143.985 31.9419C144.873 32.1352 145.382 32.9438 145.11 33.805C144.811 34.763 144.468 35.7034 144.126 36.6437C143.818 37.4699 143.194 37.9708 142.359 38.2344C142.14 38.3048 141.92 38.3487 141.639 38.419C142.078 39.4736 142.5 40.4931 142.957 41.5741H142.948Z" fill="#003366"/>
<path d="M161.483 37.8035C161.149 37.786 160.894 37.7596 160.648 37.7596C159.418 37.7596 158.179 37.7596 156.948 37.7596C156.667 37.7596 156.377 37.742 156.114 37.6805C155.314 37.4872 154.839 36.8632 155.05 36.081C155.331 35.0176 155.718 33.9805 156.14 32.9699C156.421 32.3019 157.054 32.0295 157.748 31.9153C158.029 31.8713 158.311 31.8801 158.592 31.8801C160.728 31.8801 162.854 31.8801 164.99 31.8801C165.139 31.8801 165.289 31.8977 165.526 31.9153C165.298 32.6183 165.087 33.2687 164.867 33.9366C164.586 33.9454 164.357 33.9718 164.137 33.9718C162.415 33.9718 160.692 33.9718 158.97 33.9718C158.794 33.9718 158.609 33.9806 158.434 33.9893C157.994 33.9893 157.713 34.1827 157.59 34.6221C157.502 34.9385 157.388 35.2461 157.247 35.6591C157.608 35.6943 157.871 35.7383 158.135 35.7383C159.216 35.7383 160.288 35.7295 161.369 35.7383C161.729 35.7383 162.09 35.7382 162.441 35.7998C163.417 35.958 163.979 36.7489 163.733 37.6981C163.513 38.5154 163.223 39.3152 162.881 40.0885C162.424 41.108 161.51 41.5562 160.455 41.5826C158.451 41.6265 156.448 41.5826 154.444 41.565C154.066 41.565 153.688 41.5386 153.222 41.5211C153.468 40.8092 153.679 40.194 153.908 39.5349C154.145 39.5261 154.373 39.4997 154.602 39.4997C156.43 39.4997 158.249 39.4997 160.077 39.4997C161.105 39.4997 161.176 39.4382 161.395 38.4099C161.431 38.2605 161.439 38.1111 161.475 37.8387L161.483 37.8035Z" fill="#003366"/>
<path d="M116.627 38.5157C116.935 37.6983 117.181 37.048 117.445 36.3449C117.875 36.3449 118.279 36.3449 118.684 36.3449C119.378 36.3449 120.072 36.3449 120.766 36.3449C121.698 36.3273 121.76 36.2746 122.05 35.3518C122.129 35.0794 122.225 34.8157 122.261 34.5345C122.313 34.1654 122.181 34.0248 121.812 33.9632C121.76 33.9632 121.707 33.9632 121.654 33.9632C120.195 33.9632 118.728 33.9632 117.207 33.9632C116.381 36.4943 115.564 39.0078 114.746 41.5301C114.035 41.6795 113.358 41.618 112.602 41.4862C113.639 38.2784 114.659 35.1145 115.678 31.9331C115.933 31.9155 116.135 31.8979 116.337 31.8979C118.394 31.8979 120.45 31.8979 122.507 31.8979C122.814 31.8979 123.131 31.898 123.429 31.9595C124.379 32.1265 124.976 32.9614 124.721 33.8842C124.449 34.8685 124.15 35.8703 123.719 36.7931C123.201 37.9005 122.181 38.463 120.986 38.5333C119.58 38.6124 118.174 38.5508 116.636 38.5508L116.627 38.5157Z" fill="#003366"/>
<path d="M68.7559 31.8804C68.9757 31.8804 69.2042 31.8804 69.4327 31.8804C71.4364 31.8804 73.4402 31.8804 75.4528 31.8804C75.734 31.8804 76.024 31.8804 76.2964 31.9155C77.228 32.021 77.9311 32.768 77.7201 33.6644C77.4565 34.8333 77.0962 36.011 76.5601 37.0744C76.1031 37.9796 75.1715 38.419 74.1081 38.4278C72.7019 38.4278 71.287 38.4278 69.7929 38.4278C70.0302 37.7335 70.2676 37.0743 70.5224 36.3449C70.9267 36.3449 71.3046 36.3449 71.6825 36.3449C72.5349 36.3273 73.3787 36.3098 74.2311 36.301C74.5827 36.301 74.82 36.1604 74.9255 35.8176C75.0837 35.2903 75.4176 34.7981 75.3473 34.1302C75.1364 34.0775 74.9255 33.9808 74.7058 33.9808C73.2908 33.9633 71.8758 33.9808 70.3906 33.9808C69.5469 36.4943 68.7032 39.0166 67.8419 41.6092C67.1476 41.5741 66.4621 41.5477 65.7502 41.5125C66.7521 38.3047 67.7453 35.1409 68.7559 31.9067V31.8804Z" fill="#003366"/>
<path d="M84.4789 31.8803C84.9095 35.1496 85.3137 38.3047 85.7356 41.5037H83.4418C83.3275 40.9852 83.2221 40.4842 83.1078 39.9569C81.9302 39.9042 80.7965 39.8515 79.61 39.7987C79.9352 39.2978 80.234 38.8759 80.4801 38.4365C80.6471 38.1465 80.858 38.0498 81.1656 38.0586C81.7281 38.0762 82.2817 38.0586 82.9145 38.0586C82.7563 36.7491 82.5981 35.5363 82.4311 34.1829C81.6138 35.3254 80.858 36.3624 80.1197 37.4083C79.2321 38.665 78.3533 39.9393 77.4569 41.1873C77.3514 41.3367 77.1581 41.5213 76.9999 41.5388C76.2441 41.6091 75.4794 41.6883 74.6621 41.4246C74.9609 41.0116 75.2333 40.6424 75.5058 40.2733C77.4129 37.6895 79.3375 35.1145 81.2183 32.5131C81.5786 32.0121 81.9917 31.8364 82.5717 31.8715C83.1518 31.9067 83.7406 31.8715 84.4613 31.8715L84.4789 31.8803Z" fill="#003366"/>
<path d="M121.522 41.5916C122.102 40.7919 122.559 40.1679 123.007 39.5527C124.73 37.1886 126.47 34.8245 128.175 32.4429C128.482 32.021 128.807 31.8365 129.326 31.8628C129.967 31.898 130.609 31.8716 131.312 31.8716C131.962 35.0618 132.173 38.296 132.736 41.4686C132.244 41.6356 131.277 41.6708 130.442 41.5301C130.345 40.994 130.24 40.4492 130.126 39.8515C128.948 39.8252 127.805 39.7988 126.575 39.7636C127.006 39.166 127.375 38.6475 127.797 38.0675H129.897C129.739 36.7756 129.598 35.5628 129.44 34.2708C129.335 34.3587 129.256 34.3939 129.212 34.4642C127.603 36.7316 126.004 38.9903 124.413 41.2665C124.22 41.5477 123.991 41.6004 123.693 41.6004C123.033 41.6004 122.365 41.6004 121.522 41.6004V41.5916Z" fill="#003366"/>
<path d="M108.419 33.9545H101.335C100.747 35.7297 100.184 37.461 99.6042 39.2012C99.8678 39.5 100.211 39.4297 100.527 39.4297C102.197 39.4297 103.867 39.4297 105.536 39.4297C105.844 39.4297 106.143 39.4297 106.556 39.4297C106.327 40.1679 106.125 40.8095 105.914 41.495C105.22 41.5213 104.552 41.5741 103.893 41.5741C102.17 41.5741 100.448 41.5477 98.7253 41.5125C97.4158 41.495 96.8621 40.748 97.2664 39.4736C97.7761 37.8565 98.3387 36.257 98.8748 34.6487C98.9714 34.3587 99.0592 34.0599 99.1295 33.7611C99.4196 32.5659 100.184 31.8979 101.423 31.8716C102.917 31.8364 104.403 31.854 105.897 31.854C106.723 31.854 107.54 31.854 108.366 31.854C108.568 31.854 108.762 31.8804 109.069 31.8979C108.841 32.6098 108.639 33.2514 108.419 33.9457V33.9545Z" fill="#003366"/>
<path d="M146.226 31.8892H155.472C155.261 32.5922 155.067 33.2338 154.857 33.9193H151.253C150.33 36.4416 149.619 39.0078 148.81 41.5653H146.701C147.351 38.999 148.23 36.5558 148.968 33.972C147.817 33.9544 146.727 33.9281 145.541 33.9105C145.787 33.1898 145.998 32.5747 146.226 31.8892Z" fill="#003366"/>
<path d="M101.906 35.7739H107.514C107.338 36.4155 107.171 37.0043 106.995 37.6371C105.079 37.6458 103.198 37.7074 101.247 37.5931C101.485 36.934 101.687 36.3628 101.906 35.7651V35.7739Z" fill="#003366"/>
</svg>
