<svg width="20" height="20" viewBox="0 0 20 20" fill="none" xmlns="http://www.w3.org/2000/svg">
<path d="M15.9488 10.2688C15.6775 10.2688 15.4122 10.3493 15.1865 10.5001C14.9609 10.6508 14.785 10.8651 14.6812 11.1158C14.5774 11.3666 14.5502 11.6424 14.6031 11.9086C14.6561 12.1748 14.7867 12.4192 14.9786 12.6111C15.1705 12.803 15.415 12.9337 15.6812 12.9866C15.9473 13.0396 16.2232 13.0124 16.4739 12.9085C16.7246 12.8047 16.9389 12.6288 17.0897 12.4032C17.2404 12.1776 17.3209 11.9123 17.3209 11.6409C17.3204 11.2772 17.1757 10.9284 16.9185 10.6712C16.6613 10.414 16.3126 10.2693 15.9488 10.2688ZM15.9488 12.7248C15.7345 12.7248 15.5251 12.6613 15.3469 12.5422C15.1687 12.4232 15.0299 12.254 14.9479 12.056C14.8659 11.858 14.8444 11.6402 14.8862 11.43C14.928 11.2199 15.0312 11.0268 15.1827 10.8753C15.3342 10.7238 15.5273 10.6206 15.7374 10.5788C15.9476 10.537 16.1654 10.5584 16.3634 10.6404C16.5614 10.7224 16.7306 10.8613 16.8497 11.0394C16.9687 11.2176 17.0323 11.4271 17.0323 11.6413C17.0323 11.7837 17.0043 11.9246 16.9499 12.0561C16.8955 12.1876 16.8157 12.3071 16.7151 12.4078C16.6145 12.5084 16.495 12.5883 16.3636 12.6427C16.2321 12.6972 16.0911 12.7253 15.9488 12.7253V12.7248ZM16.2955 11.6413C16.2956 11.7099 16.2752 11.777 16.2371 11.834C16.199 11.891 16.1449 11.9355 16.0815 11.9617C16.0182 11.988 15.9485 11.9948 15.8812 11.9814C15.814 11.9681 15.7522 11.9351 15.7037 11.8866C15.6552 11.8381 15.6222 11.7763 15.6088 11.709C15.5954 11.6418 15.6023 11.5721 15.6285 11.5087C15.6547 11.4454 15.6992 11.3912 15.7562 11.3531C15.8132 11.315 15.8803 11.2947 15.9488 11.2947C16.0408 11.2947 16.129 11.3312 16.194 11.3962C16.259 11.4612 16.2955 11.5494 16.2955 11.6413ZM5.92297 11.6413C5.92296 11.37 5.84248 11.1047 5.69172 10.8791C5.54095 10.6535 5.32666 10.4776 5.07595 10.3738C4.82524 10.2699 4.54936 10.2427 4.28321 10.2957C4.01706 10.3486 3.77258 10.4793 3.5807 10.6712C3.38881 10.8631 3.25814 11.1075 3.20519 11.3737C3.15225 11.6399 3.17942 11.9157 3.28326 12.1664C3.38711 12.4171 3.56296 12.6314 3.78859 12.7822C4.01422 12.933 4.27949 13.0134 4.55086 13.0135C4.91463 13.013 5.26336 12.8683 5.52059 12.6111C5.77781 12.3539 5.92251 12.0051 5.92297 11.6413ZM4.55086 12.7248C4.33658 12.7248 4.12711 12.6613 3.94895 12.5422C3.77078 12.4232 3.63192 12.254 3.54993 12.056C3.46793 11.858 3.44647 11.6402 3.48828 11.43C3.53009 11.2198 3.63327 11.0268 3.78479 10.8753C3.93631 10.7238 4.12936 10.6206 4.33952 10.5788C4.54968 10.537 4.76752 10.5584 4.96549 10.6404C5.16346 10.7224 5.33267 10.8613 5.45173 11.0394C5.57078 11.2176 5.63433 11.4271 5.63434 11.6413C5.6344 11.7837 5.60642 11.9246 5.552 12.0561C5.49757 12.1876 5.41777 12.3071 5.31716 12.4078C5.21654 12.5084 5.09708 12.5883 4.96559 12.6427C4.83411 12.6972 4.69318 12.7253 4.55086 12.7253V12.7248ZM18.0451 11.8724C18.079 11.5862 18.0539 11.2961 17.9714 11.02C17.8888 10.7439 17.7506 10.4877 17.5652 10.267C17.3798 10.0464 17.1512 9.86616 16.8934 9.73734C16.6356 9.60852 16.3542 9.53389 16.0664 9.51805C15.7787 9.50221 15.4908 9.54549 15.2204 9.64524C14.95 9.74498 14.703 9.89907 14.4945 10.098C14.286 10.2969 14.1205 10.5364 14.0081 10.8018C13.8958 11.0672 13.839 11.3528 13.8413 11.6409C13.841 11.9605 13.9138 12.276 14.0541 12.5632H6.44562C6.59076 12.2655 6.66372 11.9377 6.6586 11.6065C6.65347 11.2754 6.57042 10.9501 6.41615 10.657C6.26188 10.3639 6.04074 10.1112 5.77065 9.91949C5.50056 9.72778 5.1891 9.60238 4.86152 9.55345C4.53393 9.50453 4.19943 9.53346 3.8851 9.63789C3.57078 9.74232 3.28547 9.91933 3.0523 10.1546C2.81913 10.3898 2.64464 10.6767 2.54298 10.9919C2.44132 11.3071 2.41534 11.6419 2.46715 11.969C1.46648 11.5486 0.820312 10.8608 0.820312 9.77303C0.820312 8.64623 4.21367 7.06139 6.37195 6.98682V8.31861C6.37195 8.57585 6.47414 8.82256 6.65604 9.00445C6.83793 9.18635 7.08464 9.28854 7.34188 9.28854H9.19801C9.42722 9.28819 9.64887 9.2065 9.82348 9.058C9.99809 8.90951 10.1143 8.70386 10.1515 8.47768C10.1515 8.47768 10.0882 7.63127 9.88535 7.48088L10.0184 7.38166L10.9745 8.47854H14.6504C17.1502 8.47768 19.1797 9.39338 19.1797 10.5202C19.1797 11.0403 18.7511 11.5122 18.0451 11.8724ZM4.89758 11.6409C4.89758 11.7095 4.87724 11.7765 4.83915 11.8335C4.80105 11.8906 4.7469 11.935 4.68354 11.9612C4.62019 11.9875 4.55047 11.9944 4.48322 11.981C4.41596 11.9676 4.35418 11.9346 4.30569 11.8861C4.2572 11.8376 4.22418 11.7758 4.2108 11.7086C4.19742 11.6413 4.20429 11.5716 4.23053 11.5082C4.25678 11.4449 4.30121 11.3907 4.35823 11.3526C4.41525 11.3145 4.48228 11.2942 4.55086 11.2942C4.59643 11.2942 4.64155 11.3032 4.68364 11.3206C4.72574 11.3381 4.76398 11.3637 4.79618 11.3959C4.82838 11.4281 4.85391 11.4664 4.87131 11.5085C4.88871 11.5506 4.89763 11.5958 4.89758 11.6413V11.6409Z" fill="#827E7E"/>
</svg>
