<svg width="24" height="24" viewBox="0 0 24 24" fill="none" xmlns="http://www.w3.org/2000/svg">
<path d="M10.5841 1.5148C10.3987 1.51418 10.2128 1.51429 10.0263 1.51513C9.12877 1.5193 8.21691 1.54288 7.29727 1.57701L7.56333 2.74387C8.52103 2.63558 9.57099 2.55496 10.6208 2.51465C11.1896 2.4928 11.7549 2.48127 12.3033 2.48418C13.9484 2.49276 15.441 2.6309 16.4175 3.00927L16.8351 3.17118L16.6486 3.57829C15.2864 6.55415 14.9714 9.4251 15.1848 12.242C15.2902 8.89897 16.6798 5.9256 18.504 2.11382C16.0217 1.70132 13.365 1.52404 10.5841 1.51476V1.5148ZM11.8982 3.33308C11.4885 3.33341 11.0708 3.34171 10.6532 3.35774C8.69986 3.43274 6.75328 3.66196 5.48461 3.92474C6.90178 6.55344 8.0482 9.18819 8.7885 11.7567C8.88058 11.7536 8.97275 11.7543 9.06478 11.7588C9.25313 11.7681 9.43941 11.7936 9.62142 11.8334C8.86791 9.42412 8.00962 7.2021 6.9427 4.98346L6.70163 4.48218L7.24941 4.38524C8.62547 4.14158 10.0458 4.04727 11.3976 4.04685C11.4877 4.04685 11.5775 4.04723 11.667 4.04798C12.5259 4.05548 13.3538 4.09991 14.1207 4.1668L14.6389 4.21204L14.4878 4.70971C13.6112 7.59548 13.4395 10.6946 13.9351 13.6432C13.9434 13.6508 13.9516 13.6585 13.9598 13.6662C14.1385 13.6036 14.3057 13.5397 14.4615 13.4715C14.0746 10.3124 14.2461 7.05323 15.691 3.66519C14.8847 3.45974 13.6555 3.35235 12.3048 3.33547C12.1693 3.3338 12.0337 3.33297 11.8982 3.33308ZM18.6925 3.67926C17.2414 6.75219 16.2108 9.21473 16.0418 11.8731C16.9811 8.7418 18.7966 5.93479 20.8655 4.13137C20.1474 3.95222 19.4225 3.8014 18.6925 3.67926ZM4.86619 4.5478C3.98681 4.72912 3.12778 4.95927 2.29688 5.27727C2.70122 5.6279 3.43219 6.28016 4.31906 7.14707C4.72725 6.72693 5.14355 6.31185 5.57775 5.93441C5.34777 5.46855 5.11056 5.00629 4.86619 4.5478ZM11.5235 4.89852C10.8851 4.89543 10.2315 4.91371 9.57567 4.95913C9.50686 5.60048 9.12755 6.20048 8.6745 6.79054C9.39783 8.50002 10.0225 10.2444 10.5849 12.0965C11.4463 12.3506 12.2984 12.6509 12.9887 13.0108C12.7323 11.0205 12.7673 8.98124 13.1003 6.98694C12.4963 6.36304 12.1816 5.67023 12.1564 4.90851C11.9455 4.90289 11.7345 4.89956 11.5235 4.89852ZM20.0556 6.16344C18.8964 7.53688 17.8749 9.25705 17.1789 11.1281C18.4569 9.31016 20.0284 7.89219 21.7013 6.89057C21.1563 6.64022 20.6077 6.39782 20.0556 6.16344ZM5.95842 6.72402C5.27433 7.34221 4.59839 8.08419 3.89447 8.79107C5.40802 9.69065 6.69717 10.756 7.74881 11.9626C7.81411 11.938 7.88006 11.9158 7.94639 11.8956C7.4543 10.2036 6.77991 8.47218 5.95842 6.72402ZM16.8984 12.5718C16.1298 13.4993 15.4062 13.989 14.4098 14.3797C14.5219 14.8119 14.3555 15.3081 13.9723 15.6876C13.7469 15.9108 13.4637 16.1652 13.0496 16.3305C13.1094 16.3659 13.1703 16.3991 13.2324 16.4302C13.812 16.7194 14.8359 16.6261 15.7871 16.1935C16.7354 15.7623 17.5825 15.0173 17.8965 14.2627C18.0539 13.8385 17.9415 13.6172 17.666 13.2928C17.4699 13.0619 17.1834 12.8292 16.8984 12.5718V12.5718ZM8.92598 12.5992C8.42372 12.5946 7.91363 12.7396 7.49208 13.0567C6.89255 13.5078 6.43036 14.3122 6.42623 15.6786V15.688L6.42577 15.6974C6.28889 18.5746 6.50077 19.9021 6.92053 20.6223C7.29103 21.258 7.90725 21.5624 8.80866 22.122C8.85159 22.0093 8.89631 21.8706 8.93827 21.6956C9.045 21.2503 9.13331 20.6388 9.18928 19.9624C9.30127 18.6096 9.28491 16.9853 9.09764 15.8165L8.99869 15.1982L9.60881 15.3386C11.0908 15.6795 11.9385 15.7198 12.4307 15.633C12.923 15.5461 13.0898 15.3741 13.3785 15.0881C13.65 14.8194 13.6449 14.7227 13.5874 14.5715C13.5299 14.4202 13.2992 14.171 12.9077 13.9325C12.1248 13.4555 10.7944 13.0132 9.55083 12.6834C9.34687 12.6294 9.13696 12.6011 8.92598 12.5992ZM17.79 15.8531C17.3207 16.3103 16.7431 16.6857 16.1364 16.9616C15.1529 17.4088 14.071 17.6135 13.1734 17.3156C12.8565 17.4336 12.6725 17.5691 12.5796 17.6812C12.4522 17.8352 12.4442 17.9484 12.4874 18.1106C12.5306 18.2728 12.6592 18.4654 12.8183 18.6039C12.9773 18.7425 13.1664 18.8145 13.2383 18.8179C15.4317 18.922 16.381 18.2925 17.5637 17.5624C17.9086 17.3495 18.0406 16.9182 18.0076 16.4875C17.991 16.2722 17.9284 16.0698 17.856 15.9424C17.8381 15.9098 17.8159 15.8798 17.79 15.8531ZM10 16.2795C10.1279 17.4546 10.13 18.8255 10.0301 20.032C9.97167 20.7385 9.8813 21.381 9.75877 21.8922C9.70547 22.1147 9.64683 22.3119 9.57595 22.4856L16.4524 22.1826C16.3748 21.8943 16.2956 21.6049 16.2165 21.3153C15.9524 21.4032 15.6823 21.4725 15.4084 21.5226L15.4105 21.5569L15.0207 21.5811C14.7806 21.6099 14.5307 21.6258 14.2715 21.6276L10.3405 21.8719L10.4574 21.3278C10.8299 19.5931 10.8643 18.0658 10.6345 16.3949C10.4223 16.3606 10.2107 16.3221 9.99998 16.2795H10ZM11.4987 16.4991C11.6838 17.9959 11.6615 19.4245 11.3859 20.9616L12.2889 20.9055C12.1473 20.6966 12.05 20.4608 12.003 20.2128C11.9423 19.8903 11.976 19.5313 12.187 19.2345C12.1964 19.2213 12.2064 19.2087 12.2164 19.196C11.9705 18.9689 11.7651 18.6775 11.672 18.3277C11.5729 17.9553 11.6348 17.4994 11.9297 17.1432C12.0271 17.0255 12.1449 16.9193 12.2833 16.8237C12.1609 16.7262 12.0537 16.6228 11.961 16.5151C11.8174 16.5161 11.6636 16.5108 11.4987 16.4991ZM17.7174 18.4577C16.6179 19.1258 15.3826 19.7644 13.1982 19.6607C13.1269 19.6572 13.0561 19.6476 12.9864 19.6319C12.9286 19.6578 12.8978 19.6908 12.8748 19.7232C12.8296 19.7867 12.803 19.9013 12.8322 20.0566C12.8907 20.3672 13.1849 20.7076 13.4589 20.7395C15.3988 20.9651 16.7392 20.3305 17.553 19.5921C17.928 19.2519 17.9312 19.0343 17.876 18.7976C17.8483 18.6793 17.7874 18.5646 17.7174 18.4577ZM17.4042 20.7575C17.2739 20.8391 17.1403 20.9151 17.0035 20.9853C17.0809 21.269 17.1584 21.5526 17.235 21.8363L18.1687 21.6688C17.9278 21.4632 17.7392 21.2491 17.5879 21.0362C17.5203 20.9411 17.4608 20.8487 17.4042 20.7575Z" fill="#00152B"/>
</svg>
