<svg width="21" height="20" viewBox="0 0 21 20" fill="none" xmlns="http://www.w3.org/2000/svg">
<path d="M18.6726 8.36791H18.0013V8.33332H10.5013V11.6667H15.2109C14.5238 13.6071 12.6776 15 10.5013 15C7.74005 15 5.5013 12.7612 5.5013 9.99999C5.5013 7.23874 7.74005 4.99999 10.5013 4.99999C11.7759 4.99999 12.9355 5.48082 13.8184 6.26624L16.1755 3.90916C14.6871 2.52207 12.6963 1.66666 10.5013 1.66666C5.89922 1.66666 2.16797 5.39791 2.16797 9.99999C2.16797 14.6021 5.89922 18.3333 10.5013 18.3333C15.1034 18.3333 18.8346 14.6021 18.8346 9.99999C18.8346 9.44124 18.7771 8.89582 18.6726 8.36791Z" fill="#FFC107"/>
<path d="M3.12891 6.12124L5.86682 8.12916C6.60766 6.29499 8.40182 4.99999 10.5014 4.99999C11.776 4.99999 12.9356 5.48082 13.8185 6.26624L16.1756 3.90916C14.6872 2.52207 12.6964 1.66666 10.5014 1.66666C7.30057 1.66666 4.52474 3.47374 3.12891 6.12124Z" fill="#FF3D00"/>
<path d="M10.5008 18.3333C12.6533 18.3333 14.6091 17.5096 16.0879 16.17L13.5087 13.9875C12.6439 14.6451 11.5872 15.0008 10.5008 15C8.33328 15 6.49286 13.6179 5.79953 11.6891L3.08203 13.7829C4.4612 16.4816 7.26203 18.3333 10.5008 18.3333Z" fill="#4CAF50"/>
<path d="M18.6712 8.3679H18V8.33331H10.5V11.6666H15.2096C14.8809 12.5902 14.2889 13.3971 13.5067 13.9879L13.5079 13.9871L16.0871 16.1696C15.9046 16.3354 18.8333 14.1666 18.8333 9.99998C18.8333 9.44123 18.7758 8.89581 18.6712 8.3679Z" fill="#1976D2"/>
</svg>
