<svg width="32" height="32" viewBox="0 0 32 32" fill="none" xmlns="http://www.w3.org/2000/svg">
<path d="M15.9332 23.9998C16.3998 23.9998 16.7945 23.8385 17.1172 23.5158C17.4398 23.1932 17.6007 22.799 17.5998 22.3332C17.5989 21.8674 17.4381 21.4727 17.1172 21.1492C16.7963 20.8256 16.4016 20.6647 15.9332 20.6665C15.4647 20.6683 15.0705 20.8296 14.7505 21.1505C14.4305 21.4714 14.2692 21.8656 14.2665 22.3332C14.2638 22.8007 14.4252 23.1954 14.7505 23.5172C15.0758 23.839 15.4701 23.9998 15.9332 23.9998ZM14.7332 18.8665H17.1998C17.1998 18.1332 17.2834 17.5554 17.4505 17.1332C17.6176 16.711 18.0896 16.1332 18.8665 15.3998C19.4443 14.8221 19.8998 14.2718 20.2332 13.7492C20.5665 13.2265 20.7332 12.599 20.7332 11.8665C20.7332 10.6221 20.2776 9.66651 19.3665 8.99984C18.4554 8.33318 17.3776 7.99984 16.1332 7.99984C14.8665 7.99984 13.839 8.33318 13.0505 8.99984C12.2621 9.66651 11.7118 10.4665 11.3998 11.3998L13.5998 12.2665C13.7109 11.8665 13.9612 11.4332 14.3505 10.9665C14.7398 10.4998 15.3341 10.2665 16.1332 10.2665C16.8443 10.2665 17.3776 10.4612 17.7332 10.8505C18.0887 11.2398 18.2665 11.6674 18.2665 12.1332C18.2665 12.5776 18.1332 12.9945 17.8665 13.3838C17.5998 13.7732 17.2665 14.1341 16.8665 14.4665C15.8887 15.3332 15.2887 15.9887 15.0665 16.4332C14.8443 16.8776 14.7332 17.6887 14.7332 18.8665ZM15.9998 29.3332C14.1554 29.3332 12.4221 28.9834 10.7998 28.2838C9.17762 27.5843 7.76651 26.6341 6.56651 25.4332C5.36651 24.2323 4.41673 22.8212 3.71717 21.1998C3.01762 19.5785 2.66739 17.8452 2.66651 15.9998C2.66562 14.1545 3.01584 12.4212 3.71717 10.7998C4.41851 9.17851 5.36828 7.7674 6.56651 6.56651C7.76473 5.36562 9.17584 4.41584 10.7998 3.71718C12.4238 3.01851 14.1572 2.66829 15.9998 2.66651C17.8425 2.66473 19.5758 3.01496 21.1998 3.71718C22.8238 4.4194 24.235 5.36918 25.4332 6.56651C26.6314 7.76384 27.5816 9.17496 28.2838 10.7998C28.9861 12.4247 29.3358 14.1581 29.3332 15.9998C29.3305 17.8416 28.9803 19.575 28.2825 21.1998C27.5847 22.8247 26.635 24.2358 25.4332 25.4332C24.2314 26.6305 22.8203 27.5807 21.1998 28.2838C19.5794 28.987 17.8461 29.3367 15.9998 29.3332ZM15.9998 26.6665C18.9776 26.6665 21.4998 25.6332 23.5665 23.5665C25.6332 21.4998 26.6665 18.9776 26.6665 15.9998C26.6665 13.0221 25.6332 10.4998 23.5665 8.43318C21.4998 6.36651 18.9776 5.33318 15.9998 5.33318C13.0221 5.33318 10.4998 6.36651 8.43317 8.43318C6.36651 10.4998 5.33317 13.0221 5.33317 15.9998C5.33317 18.9776 6.36651 21.4998 8.43317 23.5665C10.4998 25.6332 13.0221 26.6665 15.9998 26.6665Z" fill="#2D2828"/>
</svg>
