<svg width="21" height="20" viewBox="0 0 21 20" fill="none" xmlns="http://www.w3.org/2000/svg">
<path fill-rule="evenodd" clip-rule="evenodd" d="M20.25 10C20.25 15.523 15.773 20 10.25 20C4.727 20 0.25 15.523 0.25 10C0.25 4.477 4.727 0 10.25 0C15.773 0 20.25 4.477 20.25 10ZM10.25 18C12.3717 18 14.4066 17.1571 15.9069 15.6569C17.4071 14.1566 18.25 12.1217 18.25 10C18.25 7.87827 17.4071 5.84344 15.9069 4.34315C14.4066 2.84285 12.3717 2 10.25 2C8.12827 2 6.09344 2.84285 4.59315 4.34315C3.09285 5.84344 2.25 7.87827 2.25 10C2.25 12.1217 3.09285 14.1566 4.59315 15.6569C6.09344 17.1571 8.12827 18 10.25 18Z" fill="#827E7E"/>
<path d="M9.25 15C9.25 14.7348 9.35536 14.4804 9.54289 14.2929C9.73043 14.1054 9.98478 14 10.25 14C10.5152 14 10.7696 14.1054 10.9571 14.2929C11.1446 14.4804 11.25 14.7348 11.25 15C11.25 15.2652 11.1446 15.5196 10.9571 15.7071C10.7696 15.8946 10.5152 16 10.25 16C9.98478 16 9.73043 15.8946 9.54289 15.7071C9.35536 15.5196 9.25 15.2652 9.25 15Z" fill="#827E7E"/>
<path fill-rule="evenodd" clip-rule="evenodd" d="M11.4795 5.93081C11.0555 5.70581 10.5315 5.62981 10.1535 5.64381C8.71347 5.69981 8.22047 6.57881 8.23547 6.94881C8.24581 7.2139 8.15043 7.47223 7.9703 7.66699C7.79017 7.86174 7.54005 7.97697 7.27497 7.98731C7.00989 7.99765 6.75155 7.90227 6.55679 7.72214C6.36204 7.54201 6.24681 7.2919 6.23647 7.02681C6.16447 5.16881 7.95847 3.72681 10.0765 3.64581C10.7165 3.62081 11.6105 3.73581 12.4185 4.16581C13.2645 4.61581 14.0215 5.42481 14.2075 6.70081C14.3805 7.89081 13.6065 8.79081 12.9525 9.26681C12.4525 9.62981 11.9975 10.0128 11.6775 10.4278C11.3645 10.8328 11.2195 11.2148 11.2345 11.6068C11.2386 11.8681 11.1403 12.1205 10.9606 12.3102C10.781 12.4999 10.5342 12.6118 10.2731 12.6219C10.012 12.6319 9.75736 12.5394 9.56363 12.3641C9.36989 12.1888 9.25246 11.9446 9.23647 11.6838C9.19747 10.6878 9.59147 9.85681 10.0945 9.20581C10.5895 8.56581 11.2255 8.04881 11.7765 7.64881C11.9565 7.51781 12.0865 7.37481 12.1605 7.24881C12.2295 7.12881 12.2365 7.04881 12.2285 6.98881C12.1485 6.44681 11.8645 6.13581 11.4795 5.93081Z" fill="#827E7E"/>
</svg>
