<svg width="18" height="20" viewBox="0 0 18 20" fill="none" xmlns="http://www.w3.org/2000/svg">
<path d="M9.60701 2.06019L15.473 6.87719C15.803 7.14719 16 7.56319 16 8.00719V16.8102C16 17.6242 15.362 18.2502 14.617 18.2502H12V13.5002C12 12.7708 11.7103 12.0714 11.1946 11.5556C10.6788 11.0399 9.97936 10.7502 9.25001 10.7502H8.25001C7.52067 10.7502 6.82119 11.0399 6.30547 11.5556C5.78974 12.0714 5.50001 12.7708 5.50001 13.5002V18.2502H2.88301C2.13801 18.2502 1.50001 17.6242 1.50001 16.8102V8.00819C1.50001 7.56319 1.69701 7.14819 2.02701 6.87819L7.89301 2.05919C8.1337 1.85895 8.43691 1.74931 8.75001 1.74931C9.06311 1.74931 9.36632 1.85995 9.60701 2.06019ZM14.617 19.7492C16.227 19.7492 17.5 18.4142 17.5 16.8092V8.00719C17.5012 7.56977 17.4054 7.13753 17.2195 6.74156C17.0336 6.3456 16.7623 5.99575 16.425 5.71719L10.56 0.900192C10.051 0.479596 9.41132 0.249512 8.75101 0.249512C8.0907 0.249512 7.45103 0.479596 6.94201 0.900192L1.07501 5.71819C0.737751 5.99675 0.466423 6.3466 0.280545 6.74256C0.0946657 7.13853 -0.00114312 7.57077 1.02918e-05 8.00819V16.8102C1.02918e-05 18.4152 1.27301 19.7502 2.88301 19.7502L14.617 19.7492Z" fill="#003366"/>
</svg>
