<svg width="16" height="16" viewBox="0 0 16 16" fill="none" xmlns="http://www.w3.org/2000/svg">
<path d="M8.16895 3.38C8.11773 3.34987 8.05938 3.33398 7.99995 3.33398C7.94053 3.33398 7.88218 3.34987 7.83095 3.38L1.87695 6.88234L2.21495 7.457L7.99995 4.054L13.785 7.45734L14.123 6.88267L12 5.634V4.00067C12 3.91226 11.9648 3.82748 11.9023 3.76497C11.8398 3.70245 11.755 3.66734 11.6666 3.66734H10.6666C10.5782 3.66734 10.4934 3.70245 10.4309 3.76497C10.3684 3.82748 10.3333 3.91226 10.3333 4.00067V4.653L8.16895 3.38ZM4.66662 8.334H8.33329V10.334H4.66662V8.334Z" fill="#5E5E5E"/>
<path fill-rule="evenodd" clip-rule="evenodd" d="M8.00065 4.66797L3.33398 7.33464V12.0013H1.66732C1.57891 12.0013 1.49413 12.0364 1.43162 12.0989C1.3691 12.1614 1.33398 12.2462 1.33398 12.3346C1.33398 12.423 1.3691 12.5078 1.43162 12.5703C1.49413 12.6329 1.57891 12.668 1.66732 12.668H13.6673C13.7557 12.668 13.8405 12.6329 13.903 12.5703C13.9655 12.5078 14.0007 12.423 14.0007 12.3346C14.0007 12.2462 13.9655 12.1614 13.903 12.0989C13.8405 12.0364 13.7557 12.0013 13.6673 12.0013H12.6673V7.33464L8.00065 4.66797ZM8.00065 5.43564L4.00065 7.72164V12.0013H9.33398V8.33464H11.334V12.0013H12.0007V7.7213L8.00065 5.43564Z" fill="#5E5E5E"/>
</svg>
