<svg width="19" height="20" viewBox="0 0 19 20" fill="none" xmlns="http://www.w3.org/2000/svg">
<path d="M9.42882 6.87579C7.70851 6.87579 6.3046 8.2797 6.3046 10C6.3046 11.7203 7.70851 13.1242 9.42882 13.1242C11.1491 13.1242 12.553 11.7203 12.553 10C12.553 8.2797 11.1491 6.87579 9.42882 6.87579ZM18.7991 10C18.7991 8.70626 18.8109 7.42423 18.7382 6.13283C18.6655 4.63283 18.3234 3.30158 17.2265 2.2047C16.1273 1.10548 14.7984 0.765639 13.2984 0.692982C12.0046 0.620326 10.7226 0.632045 9.43116 0.632045C8.13741 0.632045 6.85538 0.620326 5.56398 0.692982C4.06398 0.765639 2.73273 1.10783 1.63585 2.2047C0.536635 3.30392 0.196791 4.63283 0.124135 6.13283C0.0514784 7.42658 0.0631971 8.70861 0.0631971 10C0.0631971 11.2914 0.0514784 12.5758 0.124135 13.8672C0.196791 15.3672 0.538978 16.6985 1.63585 17.7953C2.73507 18.8945 4.06398 19.2344 5.56398 19.307C6.85773 19.3797 8.13976 19.368 9.43116 19.368C10.7249 19.368 12.0069 19.3797 13.2984 19.307C14.7984 19.2344 16.1296 18.8922 17.2265 17.7953C18.3257 16.6961 18.6655 15.3672 18.7382 13.8672C18.8132 12.5758 18.7991 11.2938 18.7991 10ZM9.42882 14.807C6.76867 14.807 4.62179 12.6602 4.62179 10C4.62179 7.33986 6.76867 5.19298 9.42882 5.19298C12.089 5.19298 14.2359 7.33986 14.2359 10C14.2359 12.6602 12.089 14.807 9.42882 14.807ZM14.4327 6.11876C13.8116 6.11876 13.3101 5.6172 13.3101 4.99611C13.3101 4.37501 13.8116 3.87345 14.4327 3.87345C15.0538 3.87345 15.5554 4.37501 15.5554 4.99611C15.5556 5.14359 15.5267 5.28966 15.4703 5.42595C15.414 5.56224 15.3313 5.68607 15.227 5.79036C15.1227 5.89464 14.9989 5.97733 14.8626 6.03368C14.7263 6.09004 14.5802 6.11895 14.4327 6.11876Z" fill="#2D2828"/>
</svg>
