<svg width="25" height="24" viewBox="0 0 25 24" fill="none" xmlns="http://www.w3.org/2000/svg">
<path d="M12.43 8.87531C10.7097 8.87531 9.30582 10.2792 9.30582 11.9995C9.30582 13.7198 10.7097 15.1237 12.43 15.1237C14.1504 15.1237 15.5543 13.7198 15.5543 11.9995C15.5543 10.2792 14.1504 8.87531 12.43 8.87531ZM21.8004 11.9995C21.8004 10.7058 21.8121 9.42374 21.7394 8.13234C21.6668 6.63234 21.3246 5.30109 20.2277 4.20421C19.1285 3.10499 17.7996 2.76515 16.2996 2.69249C15.0058 2.61984 13.7238 2.63156 12.4324 2.63156C11.1386 2.63156 9.85661 2.61984 8.5652 2.69249C7.0652 2.76515 5.73395 3.10734 4.63707 4.20421C3.53786 5.30343 3.19801 6.63234 3.12536 8.13234C3.0527 9.42609 3.06442 10.7081 3.06442 11.9995C3.06442 13.2909 3.0527 14.5753 3.12536 15.8667C3.19801 17.3667 3.5402 18.698 4.63707 19.7948C5.73629 20.8941 7.0652 21.2339 8.5652 21.3066C9.85895 21.3792 11.141 21.3675 12.4324 21.3675C13.7261 21.3675 15.0082 21.3792 16.2996 21.3066C17.7996 21.2339 19.1308 20.8917 20.2277 19.7948C21.3269 18.6956 21.6668 17.3667 21.7394 15.8667C21.8144 14.5753 21.8004 13.2933 21.8004 11.9995ZM12.43 16.8066C9.76989 16.8066 7.62301 14.6597 7.62301 11.9995C7.62301 9.33937 9.76989 7.19249 12.43 7.19249C15.0902 7.19249 17.2371 9.33937 17.2371 11.9995C17.2371 14.6597 15.0902 16.8066 12.43 16.8066ZM17.4339 8.11827C16.8129 8.11827 16.3113 7.61671 16.3113 6.99562C16.3113 6.37453 16.8129 5.87296 17.4339 5.87296C18.055 5.87296 18.5566 6.37453 18.5566 6.99562C18.5568 7.1431 18.5279 7.28917 18.4715 7.42546C18.4152 7.56175 18.3325 7.68558 18.2282 7.78987C18.1239 7.89415 18.0001 7.97684 17.8638 8.0332C17.7275 8.08955 17.5814 8.11846 17.4339 8.11827Z" fill="white"/>
</svg>
