<svg width="24" height="24" viewBox="0 0 24 24" fill="none" xmlns="http://www.w3.org/2000/svg">
<path d="M11.0491 12.0139H11.7901C11.8281 11.7999 11.7601 11.6169 11.5231 11.6169C11.2861 11.6169 11.1181 11.7389 11.0491 12.0139ZM6.87208 12.4109L6.83508 12.4049C6.72508 12.3849 6.53108 12.3489 6.36108 12.4649C6.17008 12.5949 6.11608 12.8229 6.31508 12.8999C6.50608 12.9729 6.78808 12.8469 6.82708 12.6479L6.87208 12.4109ZM20.4721 12.3419C20.5341 12.1439 20.5001 11.8959 20.4341 11.8079C20.2511 11.5639 19.8301 11.7569 19.7011 12.2359C19.6171 12.5489 19.8011 12.7859 20.0071 12.7859C20.2281 12.7859 20.3651 12.6099 20.4721 12.3419ZM16.9521 12.4109L16.9151 12.4049C16.8051 12.3849 16.6101 12.3489 16.4411 12.4649C16.2501 12.5949 16.1961 12.8229 16.3951 12.8999C16.5861 12.9729 16.8681 12.8469 16.9061 12.6479L16.9521 12.4109Z" fill="#00152B"/>
<path d="M16.082 6.08009C17.652 6.08009 19.1578 6.70381 20.268 7.81402C21.3782 8.92424 22.002 10.43 22.002 12.0001C22.002 13.5702 21.3782 15.076 20.268 16.1862C19.1578 17.2964 17.652 17.9201 16.082 17.9201C14.7224 17.9231 13.4042 17.4532 12.353 16.5911C13.1426 15.8328 13.7244 14.8845 14.043 13.8371H13.551C13.2447 14.7697 12.7105 15.6111 11.997 16.2851C11.2878 15.6107 10.7575 14.7705 10.454 13.8401H9.96195C10.2764 14.8831 10.8519 15.8287 11.634 16.5871C10.587 17.4455 9.27585 17.9164 7.92195 17.9201C6.35187 17.9201 4.8461 17.2964 3.73588 16.1862C2.62567 15.076 2.00195 13.5702 2.00195 12.0001C2.00195 10.43 2.62567 8.92424 3.73588 7.81402C4.8461 6.70381 6.35187 6.08009 7.92195 6.08009C9.33195 6.08009 10.617 6.59009 11.634 7.41309C10.8519 8.17153 10.2764 9.11705 9.96195 10.1601H10.454C10.7575 9.22974 11.2878 8.38951 11.997 7.71509C12.7105 8.38912 13.2447 9.23053 13.551 10.1631H14.043C13.7244 9.11566 13.1426 8.16744 12.353 7.40909C13.4044 6.54672 14.7231 6.07688 16.083 6.08009M18.061 11.1961L17.652 13.3861H18.254L18.439 12.3841C18.607 11.7621 18.866 11.7641 19.018 11.7671H19.041L19.203 11.1971C18.902 11.1971 18.724 11.3041 18.632 11.4121L18.578 11.1961H18.061ZM10.327 10.6401H9.73095L9.31895 12.7171C9.20395 13.3121 9.65495 13.3971 9.79195 13.3971C9.9467 13.4021 10.0999 13.3648 10.235 13.2891L10.273 12.8471C9.92995 12.9001 9.91395 12.7471 9.94495 12.5791L10.113 11.6931H10.418L10.525 11.2201H10.205L10.327 10.6401ZM11.495 11.1901C10.562 11.1901 10.419 12.0871 10.391 12.2671L10.388 12.2811C10.365 12.4191 10.35 13.3891 11.381 13.3891C11.633 13.3961 11.999 13.3661 12.145 13.2891L12.236 12.8391C12.0138 12.8756 11.789 12.8934 11.564 12.8921H11.544C11.306 12.8921 10.948 12.8931 11.014 12.4121H12.312C12.382 12.0601 12.542 11.1901 11.495 11.1901ZM9.30395 11.2651C9.05695 11.1711 8.85695 11.1771 8.75395 11.1801H8.71095C8.60995 11.1801 7.91395 11.1801 7.80595 11.7001C7.72195 12.1051 7.86995 12.2721 8.01195 12.3341C8.16195 12.3991 8.26895 12.4601 8.35995 12.5121C8.40662 12.5401 8.45129 12.5648 8.49395 12.5861C8.64395 12.6611 8.61695 12.9141 8.41695 12.9141L8.34495 12.9171C8.19095 12.9261 7.87695 12.9431 7.63095 12.8611L7.54695 13.3111C7.82195 13.3881 8.04295 13.3881 8.24895 13.3881H8.27195C8.45695 13.3901 9.10895 13.3961 9.20295 12.7691C9.25195 12.4491 9.11195 12.3031 8.99695 12.2351C8.86049 12.146 8.71778 12.0668 8.56995 11.9981C8.44795 11.9441 8.35595 11.7381 8.57695 11.6781C8.71495 11.6621 8.99695 11.6621 9.16495 11.7081L9.30395 11.2651ZM5.79895 10.7451H4.82095L4.09595 12.3491L3.98095 10.7451H3.02695L2.51495 13.3881H3.11095L3.47695 11.4781L3.63695 13.3881H4.20295L5.03495 11.5241L4.68395 13.3881H5.30095L5.79895 10.7451ZM5.86695 11.7311L6.01095 11.7131C6.19095 11.6901 6.45195 11.6561 6.60795 11.6621L6.66795 11.6631C6.85495 11.6671 7.03695 11.6711 6.97495 11.9671C6.95429 11.9684 6.92095 11.9684 6.87495 11.9671C6.56195 11.9571 5.73095 11.9321 5.58495 12.7311C5.51595 13.1811 5.90495 13.4111 6.21095 13.3951C6.51595 13.3801 6.60095 13.3421 6.70695 13.2651L6.78395 13.3881H7.34095L7.57795 12.1961C7.63895 11.8991 7.73795 11.1811 6.73795 11.1811L6.64195 11.1841C6.47995 11.1881 6.28195 11.1941 5.95895 11.2571L5.86695 11.7311ZM15.153 11.2501C15.352 11.2501 15.458 11.2651 15.611 11.3561L16.001 10.9671C15.848 10.7991 15.672 10.6341 15.184 10.6161C14.771 10.6001 14.064 10.9011 13.84 11.7231C13.534 12.8381 14.206 13.3881 14.825 13.3881C15.153 13.3881 15.352 13.3421 15.55 13.2501L15.374 12.7161C14.764 12.9221 14.328 12.6091 14.428 11.9751C14.511 11.4391 14.954 11.2491 15.153 11.2491M20.605 11.3681C20.525 11.2841 20.433 11.1881 20.223 11.1881H20.169C19.841 11.1841 19.368 11.1791 19.093 12.1191C18.899 12.7821 19.292 13.3871 19.719 13.3871C19.918 13.3791 20.116 13.2951 20.239 13.2111L20.315 13.3871H20.956L21.476 10.6071H20.849L20.689 11.4471C20.6594 11.4221 20.6314 11.3954 20.605 11.3671M15.947 11.7291L16.091 11.7111C16.271 11.6881 16.531 11.6541 16.688 11.6601L16.748 11.6611C16.935 11.6651 17.117 11.6691 17.054 11.9651C17.034 11.9664 17.0006 11.9664 16.954 11.9651C16.642 11.9551 15.811 11.9301 15.664 12.7291C15.596 13.1791 15.985 13.4091 16.291 13.3931C16.596 13.3781 16.68 13.3401 16.787 13.2631L16.864 13.3861H17.421L17.658 12.1941C17.718 11.8971 17.818 11.1791 16.818 11.1791L16.722 11.1821C16.56 11.1861 16.362 11.1921 16.039 11.2551L15.947 11.7291ZM12.734 11.2171L12.329 13.3861H12.925L13.108 12.3931C13.273 11.7831 13.534 11.7871 13.684 11.7891H13.711L13.864 11.2171C13.567 11.2171 13.391 11.3241 13.299 11.4311L13.246 11.2171H12.734Z" fill="#00152B"/>
</svg>
