<svg width="14" height="12" viewBox="0 0 14 12" fill="none" xmlns="http://www.w3.org/2000/svg">
<path d="M1.07373 2.66634C1.07373 2.31272 1.21421 1.97358 1.46425 1.72353C1.7143 1.47348 2.05344 1.33301 2.40706 1.33301H11.7404C12.094 1.33301 12.4332 1.47348 12.6832 1.72353C12.9333 1.97358 13.0737 2.31272 13.0737 2.66634V9.33301C13.0737 9.68663 12.9333 10.0258 12.6832 10.2758C12.4332 10.5259 12.094 10.6663 11.7404 10.6663H2.40706C2.05344 10.6663 1.7143 10.5259 1.46425 10.2758C1.21421 10.0258 1.07373 9.68663 1.07373 9.33301V2.66634Z" stroke="#827E7E" stroke-width="1.33333" stroke-linecap="round" stroke-linejoin="round"/>
<path d="M1.07373 2.66602L7.07373 6.66602L13.0737 2.66602" stroke="#827E7E" stroke-width="1.33333" stroke-linecap="round" stroke-linejoin="round"/>
</svg>
