<svg width="16" height="16" viewBox="0 0 16 16" fill="none" xmlns="http://www.w3.org/2000/svg">
<path d="M2.66647 12.0001V4.73338L1.63313 2.50005C1.55536 2.33338 1.5498 2.16383 1.61647 1.99138C1.68313 1.81894 1.7998 1.69405 1.96647 1.61672C2.13313 1.53938 2.30269 1.53116 2.47513 1.59205C2.64758 1.65294 2.77247 1.76672 2.8498 1.93338L4.13313 4.70005H11.8665L13.1498 1.93338C13.2276 1.76672 13.3527 1.65005 13.5251 1.58338C13.6976 1.51672 13.8669 1.52783 14.0331 1.61672C14.1998 1.6945 14.3165 1.81961 14.3831 1.99205C14.4498 2.1645 14.4442 2.33383 14.3665 2.50005L13.3331 4.73338V12.0001C13.3331 12.3667 13.2027 12.6807 12.9418 12.9421C12.6809 13.2034 12.3669 13.3338 11.9998 13.3334H3.9998C3.63313 13.3334 3.31936 13.2029 3.05847 12.9421C2.79758 12.6812 2.66691 12.3672 2.66647 12.0001ZM6.66647 8.66672H9.33313C9.52202 8.66672 9.68047 8.60272 9.80847 8.47472C9.93647 8.34672 10.0002 8.1885 9.9998 8.00005C9.99936 7.81161 9.93536 7.65338 9.8078 7.52538C9.68024 7.39738 9.52202 7.33338 9.33313 7.33338H6.66647C6.47758 7.33338 6.31936 7.39738 6.1918 7.52538C6.06424 7.65338 6.00024 7.81161 5.9998 8.00005C5.99936 8.1885 6.06336 8.34694 6.1918 8.47538C6.32024 8.60383 6.47847 8.66761 6.66647 8.66672ZM3.9998 12.0001H11.9998V6.03338H3.9998V12.0001Z" fill="black"/>
</svg>
