<svg width="20" height="20" viewBox="0 0 20 20" fill="none" xmlns="http://www.w3.org/2000/svg">
<path fill-rule="evenodd" clip-rule="evenodd" d="M9.16653 7.5V10.975C8.61028 11.1716 8.14145 11.5585 7.8429 12.0673C7.54434 12.5762 7.43529 13.1742 7.53502 13.7557C7.63475 14.3371 7.93684 14.8646 8.38789 15.2449C8.83893 15.6252 9.4099 15.8337 9.99986 15.8337C10.5898 15.8337 11.1608 15.6252 11.6118 15.2449C12.0629 14.8646 12.365 14.3371 12.4647 13.7557C12.5644 13.1742 12.4554 12.5762 12.1568 12.0673C11.8583 11.5585 11.3894 11.1716 10.8332 10.975V7.5H9.16653ZM9.16653 13.3333C9.16653 13.1123 9.25433 12.9004 9.41061 12.7441C9.56689 12.5878 9.77885 12.5 9.99986 12.5C10.2209 12.5 10.4328 12.5878 10.5891 12.7441C10.7454 12.9004 10.8332 13.1123 10.8332 13.3333C10.8332 13.5543 10.7454 13.7663 10.5891 13.9226C10.4328 14.0789 10.2209 14.1667 9.99986 14.1667C9.77885 14.1667 9.56689 14.0789 9.41061 13.9226C9.25433 13.7663 9.16653 13.5543 9.16653 13.3333Z" fill="#827E7E"/>
<path d="M9.99935 4.16699C11.5464 4.16699 13.0302 4.78157 14.1241 5.87554C15.2181 6.9695 15.8327 8.45323 15.8327 10.0003V10.8337H14.166V10.0003C14.166 8.89526 13.727 7.83545 12.9456 7.05405C12.1642 6.27265 11.1044 5.83366 9.99935 5.83366C8.89428 5.83366 7.83447 6.27265 7.05307 7.05405C6.27167 7.83545 5.83268 8.89526 5.83268 10.0003V10.8337H4.16602V10.0003C4.16602 8.45323 4.7806 6.9695 5.87456 5.87554C6.96852 4.78157 8.45225 4.16699 9.99935 4.16699Z" fill="#827E7E"/>
<path fill-rule="evenodd" clip-rule="evenodd" d="M9.99967 19.1668C15.0622 19.1668 19.1663 15.0627 19.1663 10.0002C19.1663 4.93766 15.0622 0.833496 9.99967 0.833496C4.93717 0.833496 0.833008 4.93766 0.833008 10.0002C0.833008 15.0627 4.93717 19.1668 9.99967 19.1668ZM9.99967 17.5002C10.9846 17.5002 11.9599 17.3062 12.8698 16.9293C13.7797 16.5523 14.6065 15.9999 15.303 15.3035C15.9994 14.607 16.5519 13.7802 16.9288 12.8703C17.3057 11.9603 17.4997 10.9851 17.4997 10.0002C17.4997 9.01525 17.3057 8.03998 16.9288 7.13004C16.5519 6.22009 15.9994 5.3933 15.303 4.69686C14.6065 4.00042 13.7797 3.44798 12.8698 3.07107C11.9599 2.69416 10.9846 2.50016 9.99967 2.50016C8.01055 2.50016 6.1029 3.29034 4.69637 4.69686C3.28985 6.10338 2.49967 8.01104 2.49967 10.0002C2.49967 11.9893 3.28985 13.8969 4.69637 15.3035C6.1029 16.71 8.01055 17.5002 9.99967 17.5002Z" fill="#827E7E"/>
</svg>
