<svg width="1440" height="356" viewBox="0 0 1440 356" fill="none" xmlns="http://www.w3.org/2000/svg">
<path d="M469.516 0.5L-1799 387.5" stroke="#E3E6EA"/>
<path d="M474.578 0.5L-1403.19 387.5" stroke="#E3E6EA"/>
<path d="M479.641 0.5L-1118.65 387.5" stroke="#E3E6EA"/>
<path d="M484.711 0.5L-903.308 387.5" stroke="#E3E6EA"/>
<path d="M489.773 0.5L-733.937 387.5" stroke="#E3E6EA"/>
<path d="M494.836 0.5L-596.646 387.5" stroke="#E3E6EA"/>
<path d="M499.898 0.5L-482.629 387.5" stroke="#E3E6EA"/>
<path d="M504.961 0.5L-386.027 387.5" stroke="#E3E6EA"/>
<path d="M510.023 0.5L-302.793 387.5" stroke="#E3E6EA"/>
<path d="M515.086 0.5L-230.041 387.5" stroke="#E3E6EA"/>
<path d="M520.148 0.5L-165.656 387.5" stroke="#E3E6EA"/>
<path d="M525.211 0.5L-108.053 387.5" stroke="#E3E6EA"/>
<path d="M530.273 0.5L-56.0212 387.5" stroke="#E3E6EA"/>
<path d="M535.344 0.5L-8.61077 387.5" stroke="#E3E6EA"/>
<path d="M540.406 0.5L34.9064 387.5" stroke="#E3E6EA"/>
<path d="M545.469 0.5L75.1336 387.5" stroke="#E3E6EA"/>
<path d="M550.531 0.5L112.553 387.5" stroke="#E3E6EA"/>
<path d="M555.594 0.5L147.56 387.5" stroke="#E3E6EA"/>
<path d="M560.656 0.5L180.482 387.5" stroke="#E3E6EA"/>
<path d="M565.719 0.5L211.592 387.5" stroke="#E3E6EA"/>
<path d="M570.781 0.5L241.121 387.5" stroke="#E3E6EA"/>
<path d="M575.844 0.5L269.264 387.5" stroke="#E3E6EA"/>
<path d="M580.906 0.5L296.189 387.5" stroke="#E3E6EA"/>
<path d="M585.977 0.5L322.048 387.5" stroke="#E3E6EA"/>
<path d="M591.039 0.5L346.951 387.5" stroke="#E3E6EA"/>
<path d="M596.102 0.5L371.016 387.5" stroke="#E3E6EA"/>
<path d="M601.164 0.5L394.339 387.5" stroke="#E3E6EA"/>
<path d="M606.227 0.5L417.007 387.5" stroke="#E3E6EA"/>
<path d="M611.289 0.5L439.095 387.5" stroke="#E3E6EA"/>
<path d="M616.352 0.5L460.673 387.5" stroke="#E3E6EA"/>
<path d="M621.414 0.5L481.802 387.5" stroke="#E3E6EA"/>
<path d="M626.477 0.5L502.54 387.5" stroke="#E3E6EA"/>
<path d="M631.539 0.5L522.937 387.5" stroke="#E3E6EA"/>
<path d="M636.609 0.5L543.051 387.5" stroke="#E3E6EA"/>
<path d="M641.672 0.5L562.91 387.5" stroke="#E3E6EA"/>
<path d="M646.734 0.5L582.565 387.5" stroke="#E3E6EA"/>
<path d="M651.797 0.5L602.055 387.5" stroke="#E3E6EA"/>
<path d="M656.859 0.5L621.419 387.5" stroke="#E3E6EA"/>
<path d="M661.922 0.5L640.693 387.5" stroke="#E3E6EA"/>
<path d="M666.984 0.5L659.914 387.5" stroke="#E3E6EA"/>
<path d="M672.047 0.5L679.117 387.5" stroke="#E3E6EA"/>
<path d="M677.109 0.5L698.338 387.5" stroke="#E3E6EA"/>
<path d="M682.172 0.5L717.613 387.5" stroke="#E3E6EA"/>
<path d="M687.242 0.5L736.984 387.5" stroke="#E3E6EA"/>
<path d="M692.305 0.5L756.474 387.5" stroke="#E3E6EA"/>
<path d="M697.367 0.5L776.129 387.5" stroke="#E3E6EA"/>
<path d="M702.43 0.5L795.988 387.5" stroke="#E3E6EA"/>
<path d="M707.492 0.5L816.094 387.5" stroke="#E3E6EA"/>
<path d="M712.555 0.5L836.492 387.5" stroke="#E3E6EA"/>
<path d="M717.617 0.5L857.229 387.5" stroke="#E3E6EA"/>
<path d="M722.68 0.5L878.358 387.5" stroke="#E3E6EA"/>
<path d="M727.742 0.5L899.936 387.5" stroke="#E3E6EA"/>
<path d="M732.805 0.5L922.024 387.5" stroke="#E3E6EA"/>
<path d="M737.875 0.5L944.7 387.5" stroke="#E3E6EA"/>
<path d="M742.938 0.5L968.023 387.5" stroke="#E3E6EA"/>
<path d="M748 0.5L992.088 387.5" stroke="#E3E6EA"/>
<path d="M753.062 0.5L1016.99 387.5" stroke="#E3E6EA"/>
<path d="M758.125 0.5L1042.84 387.5" stroke="#E3E6EA"/>
<path d="M763.188 0.5L1069.77 387.5" stroke="#E3E6EA"/>
<path d="M768.25 0.5L1097.91 387.5" stroke="#E3E6EA"/>
<path d="M773.312 0.5L1127.44 387.5" stroke="#E3E6EA"/>
<path d="M778.375 0.5L1158.55 387.5" stroke="#E3E6EA"/>
<path d="M783.438 0.5L1191.47 387.5" stroke="#E3E6EA"/>
<path d="M788.508 0.5L1226.49 387.5" stroke="#E3E6EA"/>
<path d="M793.57 0.5L1263.91 387.5" stroke="#E3E6EA"/>
<path d="M798.633 0.5L1304.13 387.5" stroke="#E3E6EA"/>
<path d="M803.695 0.5L1347.65 387.5" stroke="#E3E6EA"/>
<path d="M808.758 0.5L1395.05 387.5" stroke="#E3E6EA"/>
<path d="M813.82 0.5L1447.08 387.5" stroke="#E3E6EA"/>
<path d="M818.883 0.5L1504.69 387.5" stroke="#E3E6EA"/>
<path d="M823.945 0.5L1569.07 387.5" stroke="#E3E6EA"/>
<path d="M829.008 0.5L1641.82 387.5" stroke="#E3E6EA"/>
<path d="M834.078 0.5L1725.07 387.5" stroke="#E3E6EA"/>
<path d="M839.141 0.5L1821.67 387.5" stroke="#E3E6EA"/>
<path d="M844.203 0.5L1935.69 387.5" stroke="#E3E6EA"/>
<path d="M849.266 0.5L2072.98 387.5" stroke="#E3E6EA"/>
<path d="M854.328 0.5L2242.35 387.5" stroke="#E3E6EA"/>
<path d="M859.391 0.5L2457.68 387.5" stroke="#E3E6EA"/>
<path d="M864.453 0.5L2742.23 387.5" stroke="#E3E6EA"/>
<path d="M869.516 0.5L3138.03 387.5" stroke="#E3E6EA"/>
<path d="M469.516 0.5H869.516" stroke="#E3E6EA"/>
<path d="M469.516 0.5H869.516" stroke="#E3E6EA"/>
<path d="M469.516 0.5H869.516" stroke="#E3E6EA"/>
<path d="M469.516 0.5H869.516" stroke="#E3E6EA"/>
<path d="M469.516 0.5H869.516" stroke="#E3E6EA"/>
<path d="M469.516 0.5H869.516" stroke="#E3E6EA"/>
<path d="M469.516 0.5H869.516" stroke="#E3E6EA"/>
<path d="M469.516 0.5H869.516" stroke="#E3E6EA"/>
<path d="M469.516 0.5H869.516" stroke="#E3E6EA"/>
<path d="M469.516 0.5H869.516" stroke="#E3E6EA"/>
<path d="M469.516 0.5H869.516" stroke="#E3E6EA"/>
<path d="M469.516 0.5H869.516" stroke="#E3E6EA"/>
<path d="M469.516 0.5H869.516" stroke="#E3E6EA"/>
<path d="M469.516 0.5H869.516" stroke="#E3E6EA"/>
<path d="M469.516 0.5H869.516" stroke="#E3E6EA"/>
<path d="M469.516 0.5H869.516" stroke="#E3E6EA"/>
<path d="M469.516 0.5H869.516" stroke="#E3E6EA"/>
<path d="M469.516 0.5H869.516" stroke="#E3E6EA"/>
<path d="M469.516 0.5H869.516" stroke="#E3E6EA"/>
<path d="M469.516 0.5H869.516" stroke="#E3E6EA"/>
<path d="M469.516 0.5H869.517" stroke="#E3E6EA"/>
<path d="M469.516 0.5H869.518" stroke="#E3E6EA"/>
<path d="M469.516 0.5H869.519" stroke="#E3E6EA"/>
<path d="M469.516 0.5H869.52" stroke="#E3E6EA"/>
<path d="M469.516 0.5H869.522" stroke="#E3E6EA"/>
<path d="M469.516 0.5H869.525" stroke="#E3E6EA"/>
<path d="M469.508 0.5H869.521" stroke="#E3E6EA"/>
<path d="M469.508 0.501953H869.527" stroke="#E3E6EA"/>
<path d="M469.508 0.501953H869.534" stroke="#E3E6EA"/>
<path d="M469.5 0.503906H869.536" stroke="#E3E6EA"/>
<path d="M469.492 0.503906H869.541" stroke="#E3E6EA"/>
<path d="M469.484 0.505859H869.55" stroke="#E3E6EA"/>
<path d="M469.477 0.507812H869.563" stroke="#E3E6EA"/>
<path d="M469.461 0.509766H869.575" stroke="#E3E6EA"/>
<path d="M469.445 0.511719H869.595" stroke="#E3E6EA"/>
<path d="M469.422 0.515625H869.616" stroke="#E3E6EA"/>
<path d="M469.391 0.521484H869.641" stroke="#E3E6EA"/>
<path d="M469.359 0.527344H869.68" stroke="#E3E6EA"/>
<path d="M469.312 0.535156H869.72" stroke="#E3E6EA"/>
<path d="M469.258 0.542969H869.773" stroke="#E3E6EA"/>
<path d="M469.195 0.554688H869.842" stroke="#E3E6EA"/>
<path d="M469.117 0.568359H869.925" stroke="#E3E6EA"/>
<path d="M469.016 0.585938H870.019" stroke="#E3E6EA"/>
<path d="M468.898 0.605469H870.139" stroke="#E3E6EA"/>
<path d="M468.758 0.628906H870.283" stroke="#E3E6EA"/>
<path d="M468.586 0.660156H870.453" stroke="#E3E6EA"/>
<path d="M468.383 0.695312H870.659" stroke="#E3E6EA"/>
<path d="M468.133 0.734375H870.895" stroke="#E3E6EA"/>
<path d="M467.852 0.785156H871.19" stroke="#E3E6EA"/>
<path d="M467.508 0.841797H871.526" stroke="#E3E6EA"/>
<path d="M467.109 0.910156H871.929" stroke="#E3E6EA"/>
<path d="M466.641 0.992188H872.401" stroke="#E3E6EA"/>
<path d="M466.086 1.08594H872.946" stroke="#E3E6EA"/>
<path d="M465.445 1.19531H873.589" stroke="#E3E6EA"/>
<path d="M464.703 1.32031H874.338" stroke="#E3E6EA"/>
<path d="M463.836 1.46875H875.201" stroke="#E3E6EA"/>
<path d="M462.836 1.64062H876.202" stroke="#E3E6EA"/>
<path d="M461.68 1.83594H877.354" stroke="#E3E6EA"/>
<path d="M460.352 2.0625H878.682" stroke="#E3E6EA"/>
<path d="M458.828 2.32422H880.207" stroke="#E3E6EA"/>
<path d="M457.086 2.62109H881.956" stroke="#E3E6EA"/>
<path d="M455.086 2.96094H883.945" stroke="#E3E6EA"/>
<path d="M452.812 3.34961H886.22" stroke="#E3E6EA"/>
<path d="M450.227 3.79102H888.808" stroke="#E3E6EA"/>
<path d="M447.289 4.29297H891.746" stroke="#E3E6EA"/>
<path d="M443.961 4.85938H895.075" stroke="#E3E6EA"/>
<path d="M440.195 5.50195H898.838" stroke="#E3E6EA"/>
<path d="M435.945 6.22656H903.087" stroke="#E3E6EA"/>
<path d="M431.156 7.04297H907.874" stroke="#E3E6EA"/>
<path d="M425.773 7.96289H913.264" stroke="#E3E6EA"/>
<path d="M419.727 8.99414H919.313" stroke="#E3E6EA"/>
<path d="M412.945 10.1504H926.092" stroke="#E3E6EA"/>
<path d="M405.352 11.4453H933.676" stroke="#E3E6EA"/>
<path d="M396.875 12.8926H942.161" stroke="#E3E6EA"/>
<path d="M387.414 14.5059H951.625" stroke="#E3E6EA"/>
<path d="M376.867 16.3047H962.164" stroke="#E3E6EA"/>
<path d="M365.141 18.3047H973.897" stroke="#E3E6EA"/>
<path d="M352.109 20.5293H986.929" stroke="#E3E6EA"/>
<path d="M337.648 22.9961H1001.38" stroke="#E3E6EA"/>
<path d="M321.633 25.7285H1017.41" stroke="#E3E6EA"/>
<path d="M303.906 28.7539H1035.13" stroke="#E3E6EA"/>
<path d="M284.312 32.0938H1054.72" stroke="#E3E6EA"/>
<path d="M262.688 35.7832H1076.35" stroke="#E3E6EA"/>
<path d="M238.852 39.8516H1100.19" stroke="#E3E6EA"/>
<path d="M212.594 44.3301H1126.44" stroke="#E3E6EA"/>
<path d="M183.719 49.2559H1155.31" stroke="#E3E6EA"/>
<path d="M151.992 54.668H1187.04" stroke="#E3E6EA"/>
<path d="M117.18 60.6074H1221.86" stroke="#E3E6EA"/>
<path d="M79.0078 67.1191H1260.03" stroke="#E3E6EA"/>
<path d="M37.2031 74.25H1301.83" stroke="#E3E6EA"/>
<path d="M-8.53125 82.0527H1347.56" stroke="#E3E6EA"/>
<path d="M-58.5156 90.5801H1397.55" stroke="#E3E6EA"/>
<path d="M-113.094 99.8906H1452.13" stroke="#E3E6EA"/>
<path d="M-172.625 110.047H1511.67" stroke="#E3E6EA"/>
<path d="M-237.516 121.117H1576.54" stroke="#E3E6EA"/>
<path d="M-308.164 133.168H1647.19" stroke="#E3E6EA"/>
<path d="M-385.016 146.279H1724.05" stroke="#E3E6EA"/>
<path d="M-468.547 160.531H1807.58" stroke="#E3E6EA"/>
<path d="M-559.258 176.006H1898.3" stroke="#E3E6EA"/>
<path d="M-657.688 192.797H1996.73" stroke="#E3E6EA"/>
<path d="M-764.406 211.002H2103.44" stroke="#E3E6EA"/>
<path d="M-880 230.723H2219.04" stroke="#E3E6EA"/>
<path d="M-1005.13 252.07H2344.17" stroke="#E3E6EA"/>
<path d="M-1140.47 275.158H2479.5" stroke="#E3E6EA"/>
<path d="M-1286.73 300.109H2625.77" stroke="#E3E6EA"/>
<path d="M-1444.7 327.059H2783.74" stroke="#E3E6EA"/>
<path d="M-1615.16 356.139H2954.2" stroke="#E3E6EA"/>
</svg>
