<svg width="174" height="45" viewBox="0 0 174 45" fill="none" xmlns="http://www.w3.org/2000/svg">
<ellipse cx="22.25" cy="22.25" rx="22.25" ry="22.25" fill="white"/>
<path d="M29.1621 40.5694C32.9538 39.1387 36.2082 36.5667 38.4763 33.2081C40.7444 29.8496 41.9145 25.87 41.8251 21.8183C41.7357 17.7666 40.3913 13.8424 37.9773 10.5871C35.5633 7.33187 32.1986 4.90586 28.3475 3.64376L28.201 4.09085C31.9596 5.32262 35.2434 7.69033 37.5994 10.8674C39.9554 14.0444 41.2675 17.8743 41.3547 21.8286C41.4419 25.783 40.3 29.667 38.0864 32.9448C35.8728 36.2227 32.6966 38.7329 28.996 40.1292L29.1621 40.5694Z" fill="#003366"/>
<path d="M15.9221 3.72061C12.0005 5.05987 8.60482 7.60886 6.22396 11.0007C3.84309 14.3926 2.59978 18.4523 2.67298 22.5957C2.74617 26.7391 4.13209 30.7525 6.63126 34.0581C9.13043 37.3638 12.614 39.7912 16.5805 40.9912L16.7167 40.5408C12.8455 39.3698 9.44567 37.0006 7.00655 33.7744C4.56743 30.5482 3.21482 26.6313 3.14338 22.5874C3.07195 18.5436 4.28538 14.5814 6.60904 11.271C8.93269 7.96066 12.2467 5.47292 16.0742 4.16584L15.9221 3.72061Z" fill="#003366"/>
<path d="M27.3481 40.6751C27.0544 41.2181 25.5856 41.2092 25.0604 41.3115C24.6332 40.4748 24.2281 39.6736 23.8365 38.9037H21.3574C21.0147 39.6914 20.6675 40.4881 20.307 41.3204C19.7907 41.3204 18.2285 41.2715 17.917 40.7997C17.5743 40.2745 17.9081 38.6722 17.9081 38.0402C17.2093 37.6664 16.5061 37.2925 15.7673 36.9008C15.3044 37.2302 14.2451 38.2895 13.6754 38.2717C13.1146 38.2539 12.309 37.2168 11.9352 36.8697C12.4114 36.0285 12.8609 35.2496 13.3193 34.444C12.7541 33.7185 12.1978 33.0064 11.6503 32.3032C11.3521 32.3566 11.0984 32.4056 10.8625 32.4456C10.0124 31.5733 9.1757 30.7232 8.31226 29.8419C8.38792 29.7485 8.47248 29.655 8.57485 29.5348C8.92646 29.8998 9.25136 30.2381 9.59852 30.5941C9.68754 30.4918 9.74985 30.425 9.82551 30.3404C9.49616 29.9844 9.1757 29.6372 8.83299 29.2678C9.33148 28.7916 9.80771 28.3376 10.324 27.848C12.7853 30.287 15.1531 33.5005 18.2552 35.125C21.3262 36.7362 25.0738 36.6605 27.811 34.3817C30.0853 32.4901 31.1491 29.4147 30.5616 26.5172C30.1877 24.6702 29.1818 23.6955 27.9 22.4048C26.5603 21.0517 25.2162 19.7031 23.8765 18.3501C26.7428 15.8577 22.7994 11.6651 20.3649 14.3934C19.3412 15.5372 19.5014 17.3932 20.7387 18.319C21.304 18.7418 21.8692 18.6928 22.4923 18.8887C23.3647 19.1646 24.0546 20.1883 24.6866 20.8203C25.4654 21.6036 26.2488 22.3825 27.0321 23.1614C27.6775 23.8067 28.4786 24.4209 28.9014 25.2399C29.618 26.6241 29.7026 28.4044 29.3109 29.8909C28.4207 33.3002 24.967 35.4588 21.5221 34.9603C19.1721 34.6221 17.9837 33.091 16.3904 31.4976C14.7881 29.8954 13.1369 28.3242 11.5925 26.6597C11.8417 26.446 12.082 26.2413 12.3669 26.001C14.6279 28.0216 16.6396 30.3627 18.7849 32.5079C20.4584 34.177 23.0576 34.4218 25.1583 33.3803C27.2101 32.3611 28.5009 30.158 28.4519 27.8747C28.4207 26.4238 27.8555 25.0485 26.8407 24.0159C26.3022 23.4685 25.7414 22.9433 25.1895 22.4092C24.6866 21.9196 24.0679 21.0161 23.4003 20.7847C25.0604 22.5917 27.317 24.3408 27.7932 26.8688C28.2294 29.1966 27.2413 31.5199 25.1717 32.7171C23.1377 33.8921 20.6364 33.5628 18.9406 31.9694C16.782 29.9354 14.7436 27.7412 12.6651 25.6226C12.8431 25.4224 13.0033 25.2443 13.1992 25.0218C14.3964 26.1968 15.5714 27.354 16.7776 28.5423C17.3384 28.124 17.7701 27.6611 18.2196 27.1492C16.9245 25.5737 15.3266 24.185 13.8935 22.7341C13.3238 22.1555 12.7586 21.3099 11.9352 21.1674C11.2408 21.0473 10.3106 21.3588 9.58962 21.3588C9.28697 20.6022 9.10894 19.8322 8.95316 19.0222C9.60742 18.4436 10.4486 18.1899 11.1919 17.7137V15.4616C10.6177 15.1767 9.66528 14.9008 9.22021 14.4602C8.75288 13.9973 8.97987 13.6768 9.16235 13.0359C9.30032 12.5597 9.32703 12.0612 9.80326 11.8743C10.2884 11.6829 11.5435 11.9678 12.0464 11.9989C12.4292 11.4203 12.8476 10.7794 13.3015 10.0895C12.7764 9.32846 12.2334 8.53623 11.7037 7.76625C11.9752 7.28557 12.8075 6.54674 13.4974 6.16398C14.1917 6.64021 14.8949 7.12089 15.6115 7.61047C16.2657 7.27666 16.9022 6.94731 17.552 6.6135C17.5164 5.95479 17.0802 4.22345 17.5876 3.66266C18.0015 3.20868 19.4124 3.24429 19.9688 3.15527C20.3382 3.97421 20.6809 4.73974 21.028 5.51417H23.4359C23.7697 4.7798 24.1258 4.00537 24.5041 3.17753C25.0738 3.24874 26.4669 3.20423 26.8318 3.71162C27.2235 4.25906 26.9921 5.92364 26.9921 6.59125C27.6463 6.8939 28.2961 7.19655 28.9815 7.517C29.6358 7.04077 30.3034 6.56009 31.0066 6.05271C31.6297 6.48443 32.2706 6.8672 32.8003 7.44579C32.3508 8.33149 31.9146 9.19049 31.4695 10.0673C31.9769 10.6904 32.4665 11.2957 32.9739 11.9143C33.2854 11.8609 33.6014 11.8075 33.8818 11.7586C34.5761 12.7822 35.493 13.5433 36.3119 14.4335C36.2407 14.5225 36.165 14.6115 36.0538 14.7495C35.7244 14.3934 35.4173 14.0596 35.0524 13.6679C34.9411 13.7926 34.8699 13.8682 34.7853 13.9617C35.1547 14.34 35.4841 14.6783 35.8357 15.0343C35.3061 15.5372 34.7942 16.0179 34.2913 16.4942C32.9694 15.1945 31.6475 13.8949 30.339 12.582C29.0661 11.3001 27.9579 10.0628 26.2799 9.3062C23.1911 7.91312 19.6038 8.07335 16.92 10.2676C14.7436 12.0523 13.5997 15.1634 14.1071 17.9318C14.7658 21.528 18.4333 23.7889 20.8144 26.3214C19.8041 27.3762 19.319 28.7337 20.1958 30.0689C20.8678 31.0926 22.2698 31.4976 23.3869 30.9902C26.2577 29.6862 24.9047 25.8897 22.0428 25.8897C20.8189 24.6702 19.5994 23.4462 18.371 22.2356C17.0847 20.9716 15.8874 20.0948 15.4023 18.2967C14.6323 15.4482 15.8963 12.3728 18.3131 10.7126C20.4272 9.25725 23.5516 9.10147 25.7102 10.5524C27.0366 11.4426 28.0736 12.8312 29.2041 13.9483C30.4681 15.1901 31.7187 16.4452 32.9694 17.7048C32.7602 17.9228 32.551 18.1365 32.3196 18.3724C30.0141 16.3562 28.1403 13.7703 25.7681 11.8431C23.9655 10.3788 21.2417 10.2364 19.2477 11.3892C17.1915 12.582 16.0032 15.0566 16.2835 17.4021C16.4438 18.7418 17.0535 19.8189 18.0104 20.7491C18.5712 21.2965 19.1498 21.8262 19.7195 22.3647C19.9688 22.6006 21.0503 23.8868 21.3975 23.8601C19.6038 21.9241 17.0046 20.0503 16.7687 17.2063C16.5817 14.9364 17.8013 12.6576 19.862 11.6606C21.7046 10.7705 24.0145 10.9975 25.5901 12.3283C26.6627 13.2318 27.6152 14.3311 28.6032 15.3236C29.7115 16.4363 30.9087 17.5045 31.9279 18.6928C31.7588 18.8709 31.5986 19.0444 31.4116 19.2447C30.2322 18.2121 29.2352 16.9748 28.0157 15.9912C27.4505 16.4185 26.9119 16.8369 26.4847 17.4199C27.8778 19.3337 29.8138 20.9538 31.4651 22.6495C32.4353 23.6465 32.8804 23.3706 34.1934 23.286C34.9455 23.237 34.9633 23.2148 35.2571 23.9091C35.4885 24.461 35.6265 25.0707 35.809 25.6404C34.9277 26.1834 33.6237 26.5083 33.5703 27.5988C33.5391 28.2753 33.4189 28.9696 33.913 29.428C34.3847 29.8598 35.3105 30.0823 35.8668 30.4294C35.809 31.2395 35.5063 31.9739 35.2704 32.7572C34.4426 32.7839 33.6548 32.6682 32.8314 32.5925C32.4309 33.2468 32.0348 33.8966 31.6119 34.5909C32.0659 35.3609 32.5199 36.1353 32.9872 36.932C32.5288 37.5773 31.9546 38.0402 31.2737 38.4497C30.5794 37.9557 29.8939 37.4661 29.2174 36.9854C28.5587 37.3548 27.9312 37.7064 27.3214 38.0491C27.3437 38.6811 27.6864 40.1098 27.3659 40.6973L27.3481 40.6751Z" fill="#003366"/>
<path d="M55.4917 26.9557C56.0805 25.075 56.643 23.2997 57.2142 21.4541C57.557 21.4541 57.8558 21.4541 58.1634 21.4541C63.0498 21.4541 67.9362 21.4541 72.8226 21.4541C74.0705 21.4541 74.6594 21.0675 75.0988 19.8986C75.2307 19.5383 75.3361 19.1604 75.3976 18.7825C75.4943 18.1848 75.2219 17.8421 74.633 17.763C74.4309 17.7366 74.2199 17.7542 74.0178 17.7542C70.5727 17.7542 67.1276 17.763 63.6825 17.7542C63.1728 17.7542 62.6455 17.7191 62.1621 17.596C60.7384 17.2357 59.763 16.0492 59.719 14.5903C59.7014 13.9576 59.7805 13.2985 59.9387 12.6833C60.2287 11.5671 60.5714 10.4598 60.9493 9.36999C62.1182 6.03037 65.1766 3.78052 68.7184 3.65748C70.1597 3.61354 71.601 3.63992 73.0423 3.64871C76.7949 3.64871 80.5477 3.64869 84.3092 3.65748C84.6168 3.65748 84.9155 3.65748 85.3285 3.65748C84.7485 5.51185 84.1949 7.27833 83.6236 9.09755C83.3512 9.09755 83.1227 9.09755 82.903 9.09755C78.2451 9.09755 73.596 9.09757 68.9381 9.08878C67.1013 9.08878 65.9237 10.1873 65.7655 12.0417C65.7303 12.4547 65.8621 12.6833 66.2752 12.7711C66.574 12.8327 66.8903 12.8326 67.1979 12.8326C70.2563 12.8326 73.3148 12.8326 76.3819 12.8326C76.918 12.8326 77.4629 12.8766 77.999 12.903C80.284 12.9909 81.9978 15.0473 81.4617 17.5609C81.1277 19.134 80.5828 20.672 80.0116 22.1836C79.6337 23.2031 78.9217 24.0468 78.078 24.741C76.3204 26.1824 74.343 27.026 72.0053 27.0085C67.0662 26.9733 62.1271 27.0085 57.1967 26.9997C56.6694 26.9997 56.1333 26.9645 55.5093 26.9469L55.4917 26.9557Z" fill="white"/>
<path d="M154.001 9.09826C152.05 15.1184 150.143 21.0242 148.219 26.9652H142.471C144.967 19.1874 147.445 11.4536 149.924 3.69335C150.108 3.67578 150.258 3.64062 150.407 3.64062C155.733 3.64062 161.05 3.6494 166.376 3.65819C167.334 3.65819 168.292 3.69336 169.197 4.00096C169.821 4.21188 170.462 4.46674 171.016 4.81828C172.624 5.85532 173.573 7.61302 172.958 9.82772C172.563 11.2339 172.088 12.6224 171.64 14.0198C171.095 15.7072 170.48 17.3682 169.997 19.0732C168.845 23.1335 166.024 25.3482 162.096 26.3852C160.619 26.7719 159.116 26.9477 157.596 26.9828C155.513 27.0355 153.43 27.0092 151.347 27.0092C151.145 27.0092 150.943 26.9828 150.644 26.9652C151.233 25.1109 151.804 23.318 152.384 21.49C152.622 21.4724 152.824 21.4461 153.017 21.4461C155.328 21.4461 157.649 21.4461 159.96 21.4461C160.347 21.4461 160.733 21.4461 161.12 21.4373C162.43 21.4109 163.361 20.7782 163.924 19.6093C164.143 19.1523 164.31 18.6601 164.469 18.168C165.286 15.6808 166.086 13.1849 166.894 10.689C166.947 10.522 167.008 10.3462 167.044 10.1705C167.219 9.41465 166.991 9.11584 166.209 9.09826C165.005 9.08068 163.792 9.08069 162.579 9.08069C160.004 9.08069 157.438 9.08069 154.863 9.08069C154.581 9.08069 154.3 9.08069 154.001 9.08069V9.09826Z" fill="white"/>
<path d="M93.176 27.0082C91.348 27.0082 89.52 27.0345 87.7008 26.9994C86.9625 26.9818 86.1979 26.9203 85.4949 26.7094C83.1659 26.0063 82.1113 23.941 82.5683 21.9548C82.8144 20.8826 83.1571 19.828 83.4998 18.7822C84.5105 15.6271 85.5739 12.4896 86.5582 9.32579C87.6568 5.80161 90.847 3.68359 94.3624 3.6748C98.1151 3.6748 101.868 3.66602 105.629 3.6748C106.192 3.6748 106.763 3.73633 107.317 3.84179C109.769 4.31637 111.175 6.45196 110.595 8.88636C110.296 10.1607 109.857 11.3999 109.461 12.6478C108.6 15.3635 107.686 18.0703 106.86 20.7947C105.814 24.231 103.379 26.059 100.04 26.9115C99.6707 27.0082 99.2752 27.0082 98.8885 27.0082C96.9814 27.017 95.0831 27.0082 93.176 27.0082ZM94.5206 21.4539C96.2168 21.4539 97.9129 21.4451 99.6091 21.4627C100.356 21.4715 100.831 21.1463 101.086 20.4696C101.147 20.3026 101.209 20.1356 101.261 19.9598C102.193 17.1036 103.125 14.2473 104.047 11.3911C104.188 10.9517 104.355 10.5122 104.46 10.0728C104.627 9.37852 104.416 9.09728 103.713 9.09728C100.4 9.09728 97.0869 9.09728 93.7736 9.09728C92.9475 9.09728 92.4202 9.50155 92.095 10.2222C91.9895 10.4595 91.9192 10.7056 91.8313 10.9429C90.8031 14.0891 89.7836 17.2354 88.7641 20.3905C88.4741 21.2781 88.5971 21.4451 89.5111 21.4715C89.5902 21.4715 89.6693 21.4715 89.7396 21.4715C91.3304 21.4715 92.9211 21.4715 94.5206 21.4715V21.4539Z" fill="white"/>
<path d="M115.059 3.67578H120.816C120.701 4.09763 120.614 4.48433 120.491 4.86223C118.838 9.94197 117.177 15.0129 115.534 20.0926C115.411 20.4705 115.174 20.8484 115.393 21.3758C115.692 21.4021 116.044 21.4636 116.386 21.4636C121.528 21.4636 126.669 21.4636 131.81 21.4548C132.012 21.4548 132.214 21.4548 132.531 21.4548C131.933 23.3356 131.362 25.1548 130.782 26.9652C130.571 26.9828 130.421 27.0004 130.263 27.0004C124.814 27.0004 119.366 27.0004 113.917 27.0004C113.433 27.0004 112.932 26.9916 112.458 26.9037C109.962 26.4731 108.705 24.6538 109.162 22.1667C109.241 21.7624 109.338 21.3582 109.461 20.9715C111.271 15.3205 113.091 9.67831 114.91 4.03611C114.945 3.93944 114.98 3.84274 115.042 3.68455L115.059 3.67578Z" fill="white"/>
<path d="M140.607 3.68359H146.443C143.912 11.4878 141.398 19.2304 138.894 26.9467H133.146C135.651 19.1337 138.129 11.4174 140.607 3.68359Z" fill="white"/>
<path d="M63.5889 37.0621C63.3604 37.0269 63.167 36.9654 62.9648 36.9654C61.6817 36.9479 60.3987 36.9391 59.1156 36.9303C58.9134 36.9303 58.7024 36.9303 58.5003 36.9127C57.7972 36.8512 57.3578 36.4469 57.2963 35.7526C57.2699 35.4274 57.2963 35.0759 57.3842 34.7683C57.5775 34.074 57.8236 33.3973 58.0697 32.7206C58.43 31.7187 59.177 31.1562 60.2228 31.1387C62.666 31.1035 65.1005 31.1387 67.5437 31.1387C67.5876 31.1387 67.6315 31.1826 67.7282 31.2266C67.5261 31.8681 67.324 32.5097 67.1043 33.1952C66.4891 33.1952 65.9266 33.1952 65.3642 33.1952C63.9229 33.1952 62.4903 33.1864 61.049 33.1864C60.1262 33.1864 60.1262 33.1864 59.8098 34.0916C59.7307 34.3025 59.6779 34.531 59.5813 34.8562C59.9592 34.8825 60.2756 34.9177 60.6008 34.9177C61.7608 34.9177 62.9121 34.9177 64.0722 34.9177C64.5907 34.9177 65.1004 34.9792 65.5047 35.3571C65.8475 35.6735 66.0584 36.0338 66.0057 36.5084C65.9002 37.6773 65.5311 38.7846 64.8895 39.7514C64.3622 40.5423 63.4746 40.8323 62.5342 40.8411C61.7344 40.8499 60.9435 40.7972 60.1437 40.7884C58.9837 40.7796 57.8324 40.7884 56.6723 40.7884C56.2944 40.7884 55.9077 40.7884 55.3979 40.7884C55.6528 40.0414 55.8726 39.4086 56.1099 38.7231C56.4438 38.7231 56.7426 38.7231 57.0502 38.7231C58.7727 38.7231 60.4953 38.7231 62.2178 38.7231C63.3603 38.7231 63.6592 38.3804 63.5889 37.0709V37.0621Z" fill="white"/>
<path d="M95.948 40.807H93.4697C93.0567 39.7787 92.6435 38.7593 92.2041 37.6783H90.1916C90.4553 36.9488 90.6838 36.3073 90.9386 35.5866C91.2286 35.5866 91.5011 35.5866 91.7823 35.5866C92.7314 35.569 93.6806 35.5515 94.6297 35.5427C94.9461 35.5427 95.1658 35.4108 95.2801 35.112C95.4383 34.7078 95.6228 34.3035 95.7371 33.8905C95.8513 33.451 95.6931 33.2137 95.2625 33.2137C93.7245 33.1961 92.1866 33.2137 90.6135 33.2137C89.761 35.7712 88.9173 38.2935 88.0912 40.7894H86.0083C87.019 37.5376 88.012 34.3738 89.0051 31.1748C89.2072 31.1572 89.4094 31.1309 89.6116 31.1309C91.7208 31.1309 93.8212 31.1309 95.9304 31.1309C96.238 31.1309 96.5457 31.1308 96.8533 31.1748C97.7936 31.2978 98.4264 32.08 98.1803 32.9764C97.8815 34.0838 97.4948 35.1824 97.0466 36.2458C96.7566 36.94 96.1414 37.3443 95.3943 37.5113C95.1483 37.5728 94.8934 37.6168 94.5595 37.6958C95.0253 38.7241 95.4647 39.7172 95.9568 40.807H95.948Z" fill="white"/>
<path d="M142.948 40.8245H140.531C140.109 39.8051 139.705 38.812 139.31 37.8453C138.554 37.7925 137.868 37.7398 137.165 37.6871C137.438 36.9664 137.684 36.3336 137.947 35.6218C138.211 35.613 138.484 35.5954 138.756 35.5954C139.6 35.5954 140.452 35.5954 141.296 35.6042C141.77 35.613 142.078 35.4196 142.227 34.9626C142.35 34.5672 142.517 34.1892 142.597 33.7938C142.684 33.3983 142.526 33.1961 142.122 33.1874C140.637 33.1698 139.151 33.1874 137.64 33.1874C136.814 35.7448 136.005 38.2583 135.188 40.7982H133.017C134.08 37.5377 135.117 34.3562 136.155 31.1748C136.304 31.1572 136.401 31.1309 136.506 31.1309C138.791 31.1309 141.085 31.1309 143.37 31.1397C143.572 31.1397 143.783 31.1484 143.985 31.1924C144.873 31.3857 145.382 32.1943 145.11 33.0555C144.811 34.0135 144.468 34.9539 144.126 35.8942C143.818 36.7203 143.194 37.2213 142.359 37.4849C142.14 37.5552 141.92 37.5992 141.639 37.6695C142.078 38.7241 142.5 39.7436 142.957 40.8245H142.948Z" fill="white"/>
<path d="M161.483 37.053C161.149 37.0355 160.894 37.0091 160.648 37.0091C159.418 37.0091 158.179 37.0091 156.948 37.0091C156.667 37.0091 156.377 36.9915 156.114 36.93C155.314 36.7367 154.839 36.1127 155.05 35.3305C155.331 34.2671 155.718 33.2301 156.14 32.2194C156.421 31.5515 157.054 31.279 157.748 31.1648C158.029 31.1208 158.311 31.1296 158.592 31.1296C160.728 31.1296 162.854 31.1296 164.99 31.1296C165.139 31.1296 165.289 31.1472 165.526 31.1648C165.298 31.8679 165.087 32.5182 164.867 33.1861C164.586 33.1949 164.357 33.2213 164.137 33.2213C162.415 33.2213 160.692 33.2213 158.97 33.2213C158.794 33.2213 158.609 33.2301 158.434 33.2389C157.994 33.2389 157.713 33.4322 157.59 33.8716C157.502 34.188 157.388 34.4956 157.247 34.9087C157.608 34.9438 157.871 34.9878 158.135 34.9878C159.216 34.9878 160.288 34.979 161.369 34.9878C161.729 34.9878 162.09 34.9878 162.441 35.0493C163.417 35.2075 163.979 35.9984 163.733 36.9476C163.513 37.7649 163.223 38.5647 162.881 39.3381C162.424 40.3575 161.51 40.8057 160.455 40.8321C158.451 40.876 156.448 40.8321 154.444 40.8145C154.066 40.8145 153.688 40.7882 153.222 40.7706C153.468 40.0587 153.679 39.4435 153.908 38.7844C154.145 38.7756 154.373 38.7492 154.602 38.7492C156.43 38.7492 158.249 38.7492 160.077 38.7492C161.105 38.7492 161.176 38.6877 161.395 37.6595C161.431 37.51 161.439 37.3606 161.475 37.0882L161.483 37.053Z" fill="white"/>
<path d="M116.627 37.7662C116.935 36.9488 117.181 36.2985 117.445 35.5954C117.875 35.5954 118.279 35.5954 118.684 35.5954C119.378 35.5954 120.072 35.5954 120.766 35.5954C121.698 35.5778 121.76 35.5251 122.05 34.6023C122.129 34.3299 122.225 34.0662 122.261 33.785C122.313 33.4159 122.181 33.2753 121.812 33.2137C121.76 33.2137 121.707 33.2137 121.654 33.2137C120.195 33.2137 118.728 33.2137 117.207 33.2137C116.381 35.7448 115.564 38.2583 114.746 40.7806C114.035 40.93 113.358 40.8685 112.602 40.7367C113.639 37.5289 114.659 34.365 115.678 31.1836C115.933 31.166 116.135 31.1484 116.337 31.1484C118.394 31.1484 120.45 31.1484 122.507 31.1484C122.814 31.1484 123.131 31.1484 123.429 31.21C124.379 31.3769 124.976 32.2119 124.721 33.1346C124.449 34.1189 124.15 35.1208 123.719 36.0436C123.201 37.151 122.181 37.7134 120.986 37.7838C119.58 37.8628 118.174 37.8013 116.636 37.8013L116.627 37.7662Z" fill="white"/>
<path d="M68.7559 31.1309C68.9757 31.1309 69.2042 31.1309 69.4327 31.1309C71.4364 31.1309 73.4402 31.1309 75.4528 31.1309C75.734 31.1309 76.024 31.1309 76.2964 31.166C77.228 31.2715 77.9311 32.0185 77.7201 32.9149C77.4565 34.0838 77.0962 35.2614 76.5601 36.3248C76.1031 37.2301 75.1715 37.6695 74.1081 37.6783C72.7019 37.6783 71.287 37.6783 69.7929 37.6783C70.0302 36.984 70.2676 36.3248 70.5224 35.5954C70.9267 35.5954 71.3046 35.5954 71.6825 35.5954C72.5349 35.5778 73.3787 35.5602 74.2311 35.5515C74.5827 35.5515 74.82 35.4109 74.9255 35.0681C75.0837 34.5408 75.4176 34.0486 75.3473 33.3807C75.1364 33.328 74.9255 33.2313 74.7058 33.2313C73.2908 33.2137 71.8758 33.2313 70.3906 33.2313C69.5469 35.7448 68.7032 38.2671 67.8419 40.8597C67.1476 40.8246 66.4621 40.7982 65.7502 40.763C66.7521 37.5552 67.7453 34.3914 68.7559 31.1572V31.1309Z" fill="white"/>
<path d="M84.4789 31.1303C84.9095 34.3996 85.3137 37.5547 85.7356 40.7537H83.4418C83.3275 40.2352 83.2221 39.7342 83.1078 39.2069C81.9302 39.1542 80.7965 39.1015 79.61 39.0487C79.9352 38.5478 80.234 38.1259 80.4801 37.6865C80.6471 37.3965 80.858 37.2998 81.1656 37.3086C81.7281 37.3262 82.2817 37.3086 82.9145 37.3086C82.7563 35.9991 82.5981 34.7863 82.4311 33.4329C81.6138 34.5754 80.858 35.6124 80.1197 36.6583C79.2321 37.915 78.3533 39.1893 77.4569 40.4373C77.3514 40.5867 77.1581 40.7713 76.9999 40.7888C76.2441 40.8591 75.4794 40.9383 74.6621 40.6746C74.9609 40.2616 75.2333 39.8924 75.5058 39.5233C77.4129 36.9395 79.3375 34.3645 81.2183 31.7631C81.5786 31.2621 81.9917 31.0864 82.5717 31.1215C83.1518 31.1567 83.7406 31.1215 84.4613 31.1215L84.4789 31.1303Z" fill="white"/>
<path d="M121.522 40.8416C122.102 40.0419 122.559 39.4179 123.007 38.8027C124.73 36.4386 126.47 34.0745 128.175 31.6929C128.482 31.271 128.807 31.0865 129.326 31.1128C129.967 31.148 130.609 31.1216 131.312 31.1216C131.962 34.3118 132.173 37.546 132.736 40.7186C132.244 40.8856 131.277 40.9208 130.442 40.7801C130.345 40.244 130.24 39.6992 130.126 39.1015C128.948 39.0752 127.805 39.0488 126.575 39.0136C127.006 38.416 127.375 37.8975 127.797 37.3175H129.897C129.739 36.0256 129.598 34.8128 129.44 33.5208C129.335 33.6087 129.256 33.6439 129.212 33.7142C127.603 35.9816 126.004 38.2403 124.413 40.5165C124.22 40.7977 123.991 40.8504 123.693 40.8504C123.033 40.8504 122.365 40.8504 121.522 40.8504V40.8416Z" fill="white"/>
<path d="M108.419 33.2045H101.335C100.747 34.9797 100.184 36.711 99.6042 38.4512C99.8678 38.75 100.211 38.6797 100.527 38.6797C102.197 38.6797 103.867 38.6797 105.536 38.6797C105.844 38.6797 106.143 38.6797 106.556 38.6797C106.327 39.4179 106.125 40.0595 105.914 40.745C105.22 40.7713 104.552 40.8241 103.893 40.8241C102.17 40.8241 100.448 40.7977 98.7253 40.7625C97.4158 40.745 96.8621 39.998 97.2664 38.7236C97.7761 37.1065 98.3387 35.507 98.8748 33.8987C98.9714 33.6087 99.0592 33.3099 99.1295 33.0111C99.4196 31.8159 100.184 31.1479 101.423 31.1216C102.917 31.0864 104.403 31.104 105.897 31.104C106.723 31.104 107.54 31.104 108.366 31.104C108.568 31.104 108.762 31.1304 109.069 31.1479C108.841 31.8598 108.639 32.5014 108.419 33.1957V33.2045Z" fill="white"/>
<path d="M146.226 31.1387H155.472C155.261 31.8417 155.067 32.4833 154.857 33.1688H151.253C150.33 35.6911 149.619 38.2573 148.81 40.8148H146.701C147.351 38.2485 148.23 35.8053 148.968 33.2215C147.817 33.204 146.727 33.1776 145.541 33.16C145.787 32.4394 145.998 31.8242 146.226 31.1387Z" fill="white"/>
<path d="M101.906 35.0244H107.514C107.338 35.666 107.171 36.2548 106.995 36.8875C105.079 36.8963 103.198 36.9579 101.247 36.8436C101.485 36.1845 101.687 35.6132 101.906 35.0156V35.0244Z" fill="white"/>
</svg>
