<svg width="6" height="4" viewBox="0 0 6 4" fill="none" xmlns="http://www.w3.org/2000/svg">
<path d="M2.90376 3.385L1.04626 1.156C0.997604 1.09758 0.966602 1.0265 0.95689 0.951092C0.947178 0.875684 0.95916 0.79907 0.99143 0.730227C1.0237 0.661383 1.07492 0.603163 1.1391 0.562388C1.20327 0.521613 1.27773 0.499972 1.35376 0.5H4.64576C4.72175 0.500066 4.79615 0.521777 4.86025 0.562589C4.92435 0.603402 4.97549 0.661628 5.0077 0.730453C5.03991 0.799277 5.05185 0.875853 5.04212 0.951216C5.03239 1.02658 5.0014 1.09761 4.95276 1.156L3.09576 3.385C3.08403 3.39907 3.06935 3.41038 3.05276 3.41815C3.03617 3.42592 3.01808 3.42994 2.99976 3.42994C2.98145 3.42994 2.96335 3.42592 2.94676 3.41815C2.93017 3.41038 2.91549 3.39907 2.90376 3.385Z" fill="#003366"/>
</svg>
