<svg width="70" height="14" viewBox="0 0 70 14" fill="none" xmlns="http://www.w3.org/2000/svg">
<path d="M7.00033 10.074L10.6053 12.2498L9.64866 8.149L12.8337 5.38984L8.63949 5.034L7.00033 1.1665L5.36116 5.034L1.16699 5.38984L4.35199 8.149L3.39533 12.2498L7.00033 10.074Z" fill="#FFC300"/>
<path d="M21.0003 10.074L24.6053 12.2498L23.6487 8.149L26.8337 5.38984L22.6395 5.034L21.0003 1.1665L19.3612 5.034L15.167 5.38984L18.352 8.149L17.3953 12.2498L21.0003 10.074Z" fill="#FFC300"/>
<path d="M35.0003 10.074L38.6053 12.2498L37.6487 8.149L40.8337 5.38984L36.6395 5.034L35.0003 1.1665L33.3612 5.034L29.167 5.38984L32.352 8.149L31.3953 12.2498L35.0003 10.074Z" fill="#FFC300"/>
<path d="M49.0003 10.074L52.6053 12.2498L51.6487 8.149L54.8337 5.38984L50.6395 5.034L49.0003 1.1665L47.3612 5.034L43.167 5.38984L46.352 8.149L45.3953 12.2498L49.0003 10.074Z" fill="#FFC300"/>
<path d="M63.0003 10.074L66.6053 12.2498L65.6487 8.149L68.8337 5.38984L64.6395 5.034L63.0003 1.1665L61.3612 5.034L57.167 5.38984L60.352 8.149L59.3953 12.2498L63.0003 10.074Z" fill="#D9D9D9"/>
</svg>
