<svg width="25" height="24" viewBox="0 0 25 24" fill="none" xmlns="http://www.w3.org/2000/svg">
<path d="M11.015 1.51505C10.8296 1.51442 10.6437 1.51453 10.4572 1.51538C9.55967 1.51955 8.64782 1.54313 7.72817 1.57725L7.99424 2.74411C8.95194 2.63583 10.0019 2.5552 11.0518 2.51489C11.6205 2.49305 12.1858 2.48152 12.7342 2.48442C14.3793 2.493 15.8719 2.63114 16.8484 3.00952L17.266 3.17142L17.0796 3.57853C15.7173 6.55439 15.4023 9.42534 15.6157 12.2423C15.7211 8.89922 17.1107 5.92584 18.935 2.11406C16.4526 1.70156 13.7959 1.52428 11.015 1.515V1.51505ZM12.3291 3.33333C11.9194 3.33366 11.5018 3.34195 11.0841 3.35799C9.13077 3.43298 7.18419 3.6622 5.91552 3.92498C7.33269 6.55369 8.47911 9.18844 9.21941 11.757C9.31149 11.7539 9.40366 11.7546 9.49569 11.7591C9.68403 11.7683 9.87031 11.7938 10.0523 11.8336C9.29881 9.42436 8.44053 7.20234 7.37361 4.9837L7.13253 4.48242L7.68031 4.38548C9.05638 4.14183 10.4767 4.04752 11.8285 4.04709C11.9186 4.04709 12.0084 4.04747 12.0979 4.04822C12.9568 4.05572 13.7847 4.10016 14.5516 4.16705L15.0698 4.21228L14.9187 4.70995C14.0421 7.59572 13.8704 10.6949 14.366 13.6435C14.3743 13.6511 14.3825 13.6587 14.3907 13.6665C14.5694 13.6038 14.7366 13.54 14.8925 13.4717C14.5055 10.3126 14.677 7.05347 16.1219 3.66544C15.3156 3.45998 14.0864 3.35259 12.7357 3.33572C12.6002 3.33404 12.4646 3.33321 12.3291 3.33333ZM19.1234 3.6795C17.6723 6.75244 16.6417 9.21497 16.4728 11.8734C17.412 8.74205 19.2276 5.93503 21.2964 4.13161C20.5783 3.95247 19.8534 3.80165 19.1234 3.6795ZM5.2971 4.54805C4.41772 4.72936 3.55869 4.95952 2.72778 5.27752C3.13213 5.62814 3.8631 6.28041 4.74997 7.14731C5.15816 6.72717 5.57446 6.31209 6.00866 5.93466C5.77868 5.46879 5.54146 5.00653 5.2971 4.54805ZM11.9544 4.89877C11.316 4.89567 10.6625 4.91395 10.0066 4.95938C9.93777 5.60072 9.55846 6.20072 9.10541 6.79078C9.82874 8.50027 10.4534 10.2447 11.0158 12.0968C11.8772 12.3508 12.7293 12.6511 13.4196 13.011C13.1632 11.0208 13.1983 8.98148 13.5312 6.98719C12.9272 6.36328 12.6125 5.67047 12.5873 4.90875C12.3764 4.90313 12.1654 4.8998 11.9544 4.89877ZM20.4865 6.16369C19.3273 7.53713 18.3058 9.2573 17.6098 11.1283C18.8878 9.31041 20.4593 7.89244 22.1322 6.89081C21.5872 6.64047 21.0386 6.39807 20.4865 6.16369ZM6.38933 6.72427C5.70524 7.34245 5.0293 8.08444 4.32538 8.79131C5.83892 9.69089 7.12808 10.7562 8.17972 11.9629C8.24502 11.9382 8.31097 11.916 8.3773 11.8958C7.88521 10.2038 7.21081 8.47242 6.38933 6.72427ZM17.3293 12.572C16.5607 13.4996 15.8371 13.9893 14.8408 14.38C14.9528 14.8122 14.7864 15.3083 14.4032 15.6878C14.1778 15.911 13.8946 16.1654 13.4805 16.3307C13.5403 16.3661 13.6013 16.3994 13.6633 16.4304C14.2429 16.7197 15.2668 16.6264 16.218 16.1938C17.1663 15.7625 18.0134 15.0176 18.3274 14.2629C18.4848 13.8387 18.3724 13.6175 18.0969 13.293C17.9008 13.0621 17.6143 12.8294 17.3293 12.5721V12.572ZM9.35689 12.5995C8.85463 12.5949 8.34453 12.7398 7.92299 13.057C7.32346 13.5081 6.86127 14.3125 6.85714 15.6789V15.6883L6.85667 15.6976C6.7198 18.5749 6.93167 19.9023 7.35144 20.6226C7.72194 21.2583 8.33816 21.5626 9.23956 22.1223C9.2825 22.0095 9.32722 21.8708 9.36917 21.6958C9.47591 21.2505 9.56422 20.639 9.62019 19.9626C9.73217 18.6099 9.71581 16.9856 9.52855 15.8168L9.4296 15.1985L10.0397 15.3389C11.5217 15.6798 12.3694 15.72 12.8616 15.6332C13.3539 15.5463 13.5207 15.3743 13.8095 15.0884C14.0809 14.8197 14.0758 14.723 14.0183 14.5718C13.9608 14.4205 13.7301 14.1712 13.3386 13.9327C12.5557 13.4557 11.2253 13.0134 9.98174 12.6836C9.77778 12.6296 9.56787 12.6014 9.35689 12.5995ZM18.221 15.8534C17.7516 16.3106 17.174 16.6859 16.5673 16.9618C15.5838 17.4091 14.5019 17.6137 13.6043 17.3159C13.2875 17.4338 13.1034 17.5693 13.0105 17.6815C12.8831 17.8354 12.8751 17.9487 12.9183 18.1109C12.9615 18.273 13.0901 18.4656 13.2492 18.6042C13.4083 18.7427 13.5973 18.8147 13.6692 18.8181C15.8626 18.9223 16.8119 18.2928 17.9946 17.5627C18.3396 17.3498 18.4716 16.9185 18.4385 16.4878C18.422 16.2724 18.3593 16.0701 18.287 15.9426C18.269 15.9101 18.2468 15.8801 18.221 15.8534ZM10.4309 16.2797C10.5588 17.4548 10.5609 18.8257 10.461 20.0322C10.4026 20.7387 10.3122 21.3812 10.1897 21.8925C10.1364 22.1149 10.0777 22.3122 10.0069 22.4858L16.8833 22.1828C16.8057 21.8946 16.7265 21.6051 16.6475 21.3155C16.3833 21.4035 16.1132 21.4727 15.8393 21.5229L15.8414 21.5571L15.4516 21.5814C15.2115 21.6102 14.9616 21.6261 14.7024 21.6279L10.7714 21.8721L10.8883 21.328C11.2608 19.5934 11.2952 18.066 11.0654 16.3952C10.8532 16.3608 10.6416 16.3223 10.4309 16.2797H10.4309ZM11.9296 16.4993C12.1147 17.9962 12.0924 19.4248 11.8168 20.9618L12.7198 20.9057C12.5782 20.6968 12.4809 20.461 12.4339 20.213C12.3732 19.8905 12.407 19.5315 12.6179 19.2347C12.6273 19.2216 12.6373 19.209 12.6473 19.1963C12.4014 18.9691 12.196 18.6777 12.1029 18.3279C12.0038 17.9556 12.0657 17.4997 12.3606 17.1434C12.458 17.0258 12.5758 16.9195 12.7142 16.8239C12.5918 16.7264 12.4846 16.623 12.392 16.5154C12.2483 16.5164 12.0945 16.511 11.9296 16.4993ZM18.1483 18.458C17.0488 19.1261 15.8135 19.7647 13.6291 19.661C13.5578 19.6575 13.487 19.6478 13.4173 19.6321C13.3595 19.6581 13.3287 19.691 13.3057 19.7234C13.2605 19.7869 13.2339 19.9015 13.2631 20.0568C13.3216 20.3675 13.6158 20.7079 13.8898 20.7397C15.8297 20.9654 17.1701 20.3307 17.9839 19.5924C18.3589 19.2522 18.3621 19.0346 18.3069 18.7978C18.2792 18.6795 18.2183 18.5649 18.1483 18.458ZM17.8351 20.7577C17.7048 20.8394 17.5712 20.9154 17.4344 20.9856C17.5118 21.2692 17.5893 21.5528 17.6659 21.8365L18.5996 21.6691C18.3587 21.4635 18.1701 21.2494 18.0188 21.0365C17.9512 20.9414 17.8917 20.8489 17.8351 20.7577Z" fill="white"/>
</svg>
