<svg width="21" height="24" viewBox="0 0 21 24" fill="none" xmlns="http://www.w3.org/2000/svg">
<path d="M17.7515 5.562C17.5995 5.48363 17.4517 5.39752 17.3085 5.304C16.892 5.02894 16.5102 4.70459 16.1715 4.338C15.3225 3.367 15.0055 2.382 14.8895 1.693H14.8935C14.7965 1.12 14.8365 0.75 14.8435 0.75H10.9785V15.693C10.9798 15.893 10.9772 16.0913 10.9705 16.288L10.9665 16.361C10.9665 16.3717 10.9655 16.3827 10.9635 16.394V16.403C10.9229 16.939 10.7512 17.4569 10.4635 17.9109C10.1758 18.365 9.78085 18.7414 9.31349 19.007C8.82638 19.2855 8.2746 19.431 7.71349 19.429C5.91349 19.429 4.45349 17.961 4.45349 16.148C4.45349 14.335 5.91349 12.866 7.71349 12.866C8.05449 12.866 8.39349 12.92 8.71749 13.026L8.72249 9.09C7.73851 8.96317 6.73892 9.04165 5.78678 9.32047C4.83465 9.5993 3.95063 10.0724 3.19049 10.71C2.5246 11.2888 1.96457 11.9791 1.53549 12.75C1.37249 13.031 0.756494 14.162 0.682494 15.996C0.635494 17.036 0.948494 18.116 1.09749 18.561V18.571C1.19049 18.833 1.55449 19.729 2.14649 20.484C2.62436 21.0896 3.18835 21.6219 3.82049 22.064V22.054L3.82949 22.064C5.69949 23.334 7.77449 23.251 7.77449 23.251C8.13349 23.236 9.33649 23.251 10.7025 22.604C12.2175 21.886 13.0795 20.817 13.0795 20.817C13.6311 20.1785 14.0694 19.4503 14.3755 18.664C14.7255 17.744 14.8415 16.642 14.8415 16.202V8.273C14.8885 8.301 15.5135 8.714 15.5135 8.714C15.5135 8.714 16.4135 9.291 17.8165 9.666C18.8225 9.933 20.1795 9.99 20.1795 9.99V6.153C19.7045 6.205 18.7395 6.055 17.7505 5.563" fill="#2D2828"/>
</svg>
