<svg width="25" height="24" viewBox="0 0 25 24" fill="none" xmlns="http://www.w3.org/2000/svg">
<path d="M19.751 5.562C19.599 5.48363 19.4512 5.39752 19.308 5.304C18.8915 5.02894 18.5097 4.70459 18.171 4.338C17.322 3.367 17.005 2.382 16.889 1.693H16.893C16.796 1.12 16.836 0.75 16.843 0.75H12.978V15.693C12.9793 15.893 12.9767 16.0913 12.97 16.288L12.966 16.361C12.966 16.3717 12.965 16.3827 12.963 16.394V16.403C12.9224 16.939 12.7507 17.4569 12.463 17.9109C12.1753 18.365 11.7804 18.7414 11.313 19.007C10.8259 19.2855 10.2741 19.431 9.71301 19.429C7.91301 19.429 6.45301 17.961 6.45301 16.148C6.45301 14.335 7.91301 12.866 9.71301 12.866C10.054 12.866 10.393 12.92 10.717 13.026L10.722 9.09C9.73802 8.96317 8.73843 9.04165 7.7863 9.32047C6.83416 9.5993 5.95014 10.0724 5.19001 10.71C4.52411 11.2888 3.96408 11.9791 3.53501 12.75C3.37201 13.031 2.75601 14.162 2.68201 15.996C2.63501 17.036 2.94801 18.116 3.09701 18.561V18.571C3.19001 18.833 3.55401 19.729 4.14601 20.484C4.62387 21.0896 5.18786 21.6219 5.82001 22.064V22.054L5.82901 22.064C7.69901 23.334 9.77401 23.251 9.77401 23.251C10.133 23.236 11.336 23.251 12.702 22.604C14.217 21.886 15.079 20.817 15.079 20.817C15.6306 20.1785 16.0689 19.4503 16.375 18.664C16.725 17.744 16.841 16.642 16.841 16.202V8.273C16.888 8.301 17.513 8.714 17.513 8.714C17.513 8.714 18.413 9.291 19.816 9.666C20.822 9.933 22.179 9.99 22.179 9.99V6.153C21.704 6.205 20.739 6.055 19.75 5.563" fill="white"/>
</svg>
