<svg width="12" height="12" viewBox="0 0 12 12" fill="none" xmlns="http://www.w3.org/2000/svg">
<path d="M6 0.634766C7.39239 0.634766 8.72774 1.18789 9.71231 2.17245C10.6969 3.15702 11.25 4.49238 11.25 5.88477C11.25 7.27715 10.6969 8.61251 9.71231 9.59708C8.72774 10.5816 7.39239 11.1348 6 11.1348C4.60761 11.1348 3.27226 10.5816 2.28769 9.59708C1.30312 8.61251 0.75 7.27715 0.75 5.88477C0.75 4.49238 1.30312 3.15702 2.28769 2.17245C3.27226 1.18789 4.60761 0.634766 6 0.634766ZM6 10.3848C7.19347 10.3848 8.33807 9.91066 9.18198 9.06675C10.0259 8.22283 10.5 7.07824 10.5 5.88477C10.5 4.69129 10.0259 3.5467 9.18198 2.70279C8.33807 1.85887 7.19347 1.38477 6 1.38477C4.80653 1.38477 3.66193 1.85887 2.81802 2.70279C1.97411 3.5467 1.5 4.69129 1.5 5.88477C1.5 7.07824 1.97411 8.22283 2.81802 9.06675C3.66193 9.91066 4.80653 10.3848 6 10.3848ZM6.5625 8.32227C6.5625 8.47145 6.50324 8.61452 6.39775 8.72001C6.29226 8.8255 6.14918 8.88477 6 8.88477C5.85082 8.88477 5.70774 8.8255 5.60225 8.72001C5.49676 8.61452 5.4375 8.47145 5.4375 8.32227C5.4375 8.17308 5.49676 8.03001 5.60225 7.92452C5.70774 7.81903 5.85082 7.75977 6 7.75977C6.14918 7.75977 6.29226 7.81903 6.39775 7.92452C6.50324 8.03001 6.5625 8.17308 6.5625 8.32227ZM6 2.88477C6.09946 2.88477 6.19484 2.92427 6.26517 2.9946C6.33549 3.06493 6.375 3.16031 6.375 3.25977V6.63477C6.375 6.73422 6.33549 6.8296 6.26517 6.89993C6.19484 6.97026 6.09946 7.00977 6 7.00977C5.90054 7.00977 5.80516 6.97026 5.73484 6.89993C5.66451 6.8296 5.625 6.73422 5.625 6.63477V3.25977C5.625 3.16031 5.66451 3.06493 5.73484 2.9946C5.80516 2.92427 5.90054 2.88477 6 2.88477Z" fill="#F24822"/>
</svg>
