<svg width="25" height="24" viewBox="0 0 25 24" fill="none" xmlns="http://www.w3.org/2000/svg">
<g clip-path="url(#clip0_381_21211)">
<path d="M17.8749 8.62115C17.3165 8.41872 16.7266 8.31689 16.1327 8.3204C14.2149 8.3204 12.8597 9.2894 12.8514 10.6761C12.8357 11.6954 13.8122 12.2699 14.5502 12.6134C15.3084 12.9652 15.5619 13.1842 15.5582 13.4962C15.5544 13.9769 14.9522 14.1914 14.3979 14.1914C13.6277 14.1914 13.2099 14.0864 12.5657 13.8164L12.3264 13.7032L12.0534 15.3052C12.5222 15.4964 13.3622 15.6644 14.2292 15.6802C16.2722 15.6802 17.6042 14.7194 17.6192 13.2381C17.6349 12.4259 17.1122 11.8094 15.9984 11.3009C15.3264 10.9732 14.9057 10.7497 14.9057 10.4137C14.9057 10.1167 15.2649 9.80465 16.0149 9.80465C16.5126 9.79299 17.0073 9.88468 17.4677 10.0739L17.6514 10.1557L17.9207 8.6129L17.8749 8.62115ZM22.8602 8.45315H21.3602C20.8914 8.45315 20.5434 8.5784 20.3364 9.0434L17.4534 15.5782H19.4927L19.9037 14.5079L22.3914 14.5117C22.4537 14.7614 22.6292 15.5774 22.6292 15.5774H24.4299L22.8602 8.45315ZM10.0899 8.39465H12.0317L10.8167 15.5227H8.87493L10.0899 8.3909V8.39465ZM5.15268 12.3202L5.35143 13.3124L7.25343 8.45315H9.31218L6.24918 15.5661H4.19943L2.51943 9.5429C2.50685 9.49274 2.48403 9.44573 2.45241 9.40482C2.42079 9.3639 2.38105 9.32997 2.33568 9.30515C1.73202 8.99174 1.09191 8.75419 0.429932 8.5979L0.453182 8.44865H3.58593C4.00818 8.4644 4.35168 8.5979 4.46868 9.0509L5.15268 12.3239V12.3202ZM20.4572 13.0506L21.2349 11.0549C21.2229 11.0737 21.3947 10.6447 21.4922 10.3747L21.6249 10.9874L22.0749 13.0462H20.4572V13.0506Z" fill="white"/>
</g>
<defs>
<clipPath id="clip0_381_21211">
<rect width="24" height="24" fill="white" transform="translate(0.429932)"/>
</clipPath>
</defs>
</svg>
