<svg width="40" height="40" viewBox="0 0 40 40" fill="none" xmlns="http://www.w3.org/2000/svg">
<rect width="40" height="40" rx="20" fill="#003366" fill-opacity="0.15"/>
<path d="M27.9999 16.2564C27.8983 16.2568 27.7979 16.234 27.7065 16.1897L19.9999 12.2564L12.2932 16.1631C12.1288 16.2409 11.9401 16.2502 11.7689 16.1889C11.5976 16.1276 11.4577 16.0008 11.3799 15.8364C11.3021 15.672 11.2928 15.4834 11.354 15.3121C11.4153 15.1408 11.5421 15.0009 11.7065 14.9231L19.9999 10.8164L28.2932 14.9231C28.468 14.9639 28.6197 15.072 28.7154 15.2238C28.8111 15.3757 28.8432 15.5592 28.8046 15.7345C28.766 15.9098 28.66 16.0629 28.5093 16.1606C28.3587 16.2583 28.1757 16.2927 27.9999 16.2564ZM16.6665 22.9231H12.6665V26.9231H16.6665V22.9231ZM21.9999 22.9231H17.9999V26.9231H21.9999V22.9231ZM27.3332 22.9231H23.3332V26.9231H27.3332V22.9231ZM24.6665 17.5897H20.6665V21.5897H24.6665V17.5897ZM19.3332 17.5897H15.3332V21.5897H19.3332V17.5897Z" fill="#003366"/>
</svg>
