<svg width="40" height="40" viewBox="0 0 40 40" fill="none" xmlns="http://www.w3.org/2000/svg">
<rect width="40" height="40" rx="20" fill="#003366" fill-opacity="0.15"/>
<g clip-path="url(#clip0_3_15500)">
<path d="M20.086 10.0004C20.4135 10.0004 20.736 10.0217 21.036 10.0717C21.3316 10.1098 21.6232 10.1742 21.9073 10.2642C22.1906 10.3492 22.4715 10.4588 22.7498 10.5929C23.021 10.7217 23.2998 10.8792 23.5785 11.0504C24.0498 11.3504 24.5135 11.5929 24.986 11.7867C25.916 12.1597 26.8997 12.3813 27.8998 12.4429C28.4056 12.4804 28.9294 12.4996 29.471 12.5004V17.5004C29.471 18.4496 29.3498 19.3521 29.1073 20.2079C28.8743 21.0532 28.5433 21.8683 28.121 22.6367C27.7006 23.404 27.203 24.1265 26.636 24.7929C26.0607 25.4748 25.4375 26.1148 24.771 26.7079C24.0952 27.3021 23.3844 27.8552 22.6423 28.3642C21.899 28.8808 21.1515 29.3571 20.3998 29.7929L20.0998 29.9717L19.7998 29.7929C19.0287 29.3467 18.2756 28.87 17.5423 28.3642C16.7962 27.8606 16.085 27.3073 15.4135 26.7079C14.7475 26.1147 14.1247 25.4748 13.5498 24.7929C12.9847 24.1234 12.485 23.4013 12.0573 22.6367C11.6426 21.8647 11.312 21.0505 11.071 20.2079C10.8286 19.326 10.7083 18.415 10.7135 17.5004V12.5004C11.2552 12.4996 11.7794 12.4804 12.286 12.4429C12.7857 12.409 13.2821 12.3375 13.771 12.2292C14.2498 12.1217 14.7285 11.9792 15.1998 11.7867C15.6887 11.5891 16.1575 11.345 16.5998 11.0579C17.1498 10.7004 17.7073 10.4367 18.2573 10.2629C18.8497 10.0815 19.4666 9.99299 20.086 10.0004ZM28.2135 13.7292C27.2674 13.6829 26.33 13.5247 25.421 13.2579C24.5172 12.9876 23.6562 12.5908 22.8635 12.0792C22.4523 11.8099 22.006 11.5984 21.5373 11.4504C21.0688 11.3091 20.5816 11.2392 20.0923 11.2429C19.5993 11.2399 19.1086 11.3099 18.636 11.4504C18.1667 11.594 17.7211 11.8058 17.3135 12.0792C16.5193 12.593 15.6561 12.9916 14.7498 13.2629C13.864 13.5204 12.9352 13.6779 11.9635 13.7354V17.5067C11.9635 18.3342 12.071 19.1292 12.286 19.8917C12.5053 20.6487 12.8071 21.3794 13.186 22.0704C13.5697 22.7686 14.0219 23.4269 14.536 24.0354C15.0573 24.6492 15.6135 25.2204 16.2135 25.7629C16.8135 26.3054 17.4423 26.8079 18.0998 27.2704C18.764 27.7338 19.4281 28.1575 20.0923 28.5417C20.7722 28.1465 21.4349 27.7224 22.0785 27.2704C22.7412 26.8092 23.3733 26.3057 23.971 25.7629C24.571 25.2204 25.1285 24.6492 25.6498 24.0354C26.1639 23.4269 26.6161 22.7686 26.9998 22.0704C27.3768 21.3801 27.6742 20.6492 27.886 19.8917C28.1078 19.1162 28.2181 18.3132 28.2135 17.5067V13.7292Z" fill="#003366"/>
<path fill-rule="evenodd" clip-rule="evenodd" d="M24.746 15.8866L24.196 15.4141L23.6885 15.4578L18.2385 21.8928L16.3823 19.2428L15.8823 19.1578L15.3035 19.5716L15.2173 20.0716L17.6035 23.4791L17.8748 23.6291L18.446 23.6641L18.7385 23.5366L24.7823 16.3928L24.746 15.8866Z" fill="#003366"/>
</g>
<defs>
<clipPath id="clip0_3_15500">
<rect width="20" height="20" fill="white" transform="translate(10 10)"/>
</clipPath>
</defs>
</svg>
