<svg width="25" height="25" viewBox="0 0 25 25" fill="none" xmlns="http://www.w3.org/2000/svg">
<rect x="0.935238" y="0.818051" width="23.6579" height="23.6579" rx="11.8289" stroke="#D9D9D9" stroke-width="0.815789"/>
<rect x="0.935238" y="0.818051" width="23.6579" height="23.6579" rx="11.8289" stroke="#D9D9D9" stroke-width="0.815789"/>
<rect x="0.935238" y="0.818051" width="23.6579" height="23.6579" rx="11.8289" stroke="#D9D9D9" stroke-width="0.815789"/>
<path d="M12.7667 7.20898C15.7705 7.20898 18.2053 9.64384 18.2053 12.6476C18.2053 15.6513 15.7705 18.0862 12.7667 18.0862C11.8056 18.0878 10.8614 17.8335 10.0311 17.3492L7.33031 18.0862L8.06561 15.3843C7.58101 14.5538 7.32645 13.6091 7.32813 12.6476C7.32813 9.64384 9.76299 7.20898 12.7667 7.20898ZM10.9133 10.0914L10.8045 10.0958C10.7342 10.1006 10.6654 10.1191 10.6022 10.1502C10.5432 10.1836 10.4894 10.2254 10.4423 10.2742C10.377 10.3356 10.34 10.3889 10.3003 10.4406C10.0992 10.7021 9.99086 11.0232 9.9925 11.3532C9.99359 11.6197 10.0632 11.8791 10.172 12.1217C10.3944 12.6122 10.7604 13.1316 11.2434 13.6129C11.3598 13.7288 11.474 13.8452 11.5969 13.9534C12.197 14.4817 12.9121 14.8627 13.6853 15.0661L13.9942 15.1134C14.0948 15.1189 14.1954 15.1113 14.2966 15.1064C14.455 15.098 14.6096 15.0551 14.7496 14.9807C14.8208 14.9439 14.8903 14.904 14.9579 14.8611C14.9579 14.8611 14.981 14.8455 15.0259 14.8121C15.0993 14.7578 15.1445 14.7191 15.2054 14.6555C15.2511 14.6084 15.2892 14.5536 15.3196 14.4913C15.362 14.4026 15.4044 14.2335 15.4219 14.0926C15.4349 13.9849 15.4311 13.9262 15.4295 13.8898C15.4273 13.8316 15.3789 13.7712 15.3261 13.7456L15.0096 13.6037C15.0096 13.6037 14.5364 13.3976 14.2471 13.2659C14.2168 13.2528 14.1844 13.2452 14.1514 13.2437C14.1142 13.2398 14.0766 13.2439 14.0411 13.2558C14.0056 13.2677 13.9731 13.2871 13.9458 13.3127C13.9431 13.3116 13.9067 13.3426 13.5134 13.8191C13.4909 13.8494 13.4598 13.8723 13.4241 13.8849C13.3885 13.8975 13.3499 13.8992 13.3133 13.8898C13.2779 13.8803 13.2431 13.8683 13.2094 13.8539C13.142 13.8256 13.1186 13.8147 13.0724 13.7951C12.7601 13.6591 12.4711 13.4751 12.2158 13.2496C12.1473 13.1898 12.0836 13.1245 12.0184 13.0615C11.8044 12.8565 11.618 12.6247 11.4636 12.3718L11.4316 12.3202C11.4089 12.2853 11.3902 12.2479 11.3761 12.2087C11.3554 12.1287 11.4093 12.0646 11.4093 12.0646C11.4093 12.0646 11.5414 11.9199 11.6029 11.8416C11.6627 11.7654 11.7133 11.6915 11.7459 11.6387C11.8101 11.5354 11.8302 11.4293 11.7965 11.3472C11.6442 10.9752 11.4868 10.6052 11.3244 10.2372C11.2923 10.1643 11.1972 10.1121 11.1107 10.1018C11.0813 10.0981 11.0519 10.0952 11.0226 10.0931C10.9495 10.0889 10.8763 10.0896 10.8034 10.0952L10.9133 10.0914Z" fill="#15B70D"/>
</svg>
