<svg width="16" height="16" viewBox="0 0 16 16" fill="none" xmlns="http://www.w3.org/2000/svg">
<g clip-path="url(#clip0_2493_40270)">
<path d="M0.34122 7.90403C0.340848 9.24834 0.692103 10.561 1.36001 11.7179L0.277344 15.6709L4.32274 14.6102C5.44165 15.2193 6.69529 15.5385 7.96925 15.5386H7.9726C12.1782 15.5386 15.6016 12.1164 15.6034 7.91005C15.6042 5.87179 14.8112 3.95513 13.3703 2.51315C11.9297 1.07129 10.0137 0.276809 7.97229 0.275879C3.76621 0.275879 0.343018 3.69789 0.341282 7.90403" fill="url(#paint0_linear_2493_40270)"/>
<path d="M0.0683097 7.90177C0.0678756 9.29445 0.431721 10.654 1.12344 11.8524L0.00195312 15.9471L4.1924 14.8484C5.34701 15.4779 6.64698 15.8098 7.96977 15.8103H7.97318C12.3296 15.8103 15.8761 12.265 15.8779 7.90809C15.8787 5.79659 15.0571 3.81104 13.5647 2.3174C12.0722 0.823938 10.0877 0.000868217 7.97318 0C3.61597 0 0.0700461 3.54481 0.0683097 7.90177ZM2.56388 11.646L2.40741 11.3976C1.74967 10.3518 1.40251 9.14326 1.40301 7.90226C1.40437 4.28087 4.3516 1.33457 7.97566 1.33457C9.7307 1.33532 11.3801 2.01947 12.6206 3.26078C13.8611 4.5022 14.5437 6.15243 14.5433 7.9076C14.5417 11.529 11.5944 14.4757 7.97318 14.4757H7.97057C6.79147 14.475 5.63507 14.1584 4.62657 13.56L4.38657 13.4177L1.89988 14.0696L2.56388 11.646Z" fill="url(#paint1_linear_2493_40270)"/>
<path d="M5.99796 4.59831C5.84999 4.26944 5.69427 4.2628 5.55356 4.25704C5.43833 4.25208 5.30661 4.25245 5.17502 4.25245C5.04329 4.25245 4.82928 4.302 4.64838 4.49952C4.46729 4.69722 3.95703 5.17499 3.95703 6.14671C3.95703 7.11843 4.66481 8.0576 4.76348 8.1895C4.86227 8.32116 6.12987 10.3791 8.13743 11.1708C9.8059 11.8287 10.1454 11.6978 10.5075 11.6649C10.8697 11.632 11.6762 11.1872 11.8407 10.726C12.0053 10.2649 12.0053 9.86956 11.956 9.78696C11.9066 9.70466 11.7749 9.65524 11.5774 9.55651C11.3799 9.45778 10.4088 8.97989 10.2277 8.91397C10.0466 8.84811 9.91498 8.81524 9.78326 9.01301C9.65154 9.21046 9.27331 9.65524 9.15802 9.78696C9.04286 9.91899 8.92757 9.93542 8.73012 9.83663C8.53247 9.73753 7.89638 9.52922 7.14171 8.85642C6.55455 8.33288 6.15815 7.68637 6.04292 7.4886C5.9277 7.29115 6.03058 7.18411 6.12962 7.08569C6.21836 6.99719 6.3272 6.85505 6.42605 6.73977C6.52454 6.62442 6.5574 6.54212 6.62326 6.4104C6.68919 6.27856 6.65619 6.16321 6.60689 6.06442C6.5574 5.96563 6.17359 4.98882 5.99796 4.59831Z" fill="white"/>
</g>
<defs>
<linearGradient id="paint0_linear_2493_40270" x1="766.581" y1="1539.78" x2="766.581" y2="0.275879" gradientUnits="userSpaceOnUse">
<stop stop-color="#1FAF38"/>
<stop offset="1" stop-color="#60D669"/>
</linearGradient>
<linearGradient id="paint1_linear_2493_40270" x1="793.8" y1="1594.71" x2="793.8" y2="0" gradientUnits="userSpaceOnUse">
<stop stop-color="#F9F9F9"/>
<stop offset="1" stop-color="white"/>
</linearGradient>
<clipPath id="clip0_2493_40270">
<rect width="15.88" height="16" fill="white"/>
</clipPath>
</defs>
</svg>
