<svg width="20" height="20" viewBox="0 0 20 20" fill="none" xmlns="http://www.w3.org/2000/svg">
<g clip-path="url(#clip0_363_1826)">
<path d="M3.72168 8.55815C4.84085 9.60148 6.39876 10.2932 8.03251 10.6319C7.19918 11.9694 5.67126 12.6761 4.15626 12.7377M3.94168 7.81273C5.05585 8.83523 6.63085 9.41148 8.16168 9.05565C7.24335 7.65732 6.63043 6.06232 6.5796 4.52982M13.4196 15.4698C13.3688 13.9373 12.7558 12.3423 11.8375 10.944C13.3683 10.5882 14.9433 11.1648 16.0575 12.1869M12.7371 15.8431C12.6758 14.3281 11.9692 12.8002 10.6317 11.9669C10.2929 13.6007 9.60126 15.1586 8.55793 16.2777M7.2621 4.15648C7.32335 5.67148 8.03001 7.1994 9.36751 8.03273C9.70751 6.39232 10.4029 4.82898 11.4533 3.70898M4.5296 13.4198C6.0621 13.369 7.6571 12.7561 9.05543 11.8377C9.41126 13.3686 8.8346 14.9436 7.81251 16.0577M15.4746 6.5794C13.9404 6.6294 12.3433 7.24273 10.9438 8.1619C10.5867 6.62565 11.1688 5.0444 12.1979 3.9294M15.8467 7.2619C14.3304 7.32232 12.8008 8.02898 11.9667 9.36773C13.6004 9.70648 15.1583 10.3982 16.2775 11.4415M10.7546 9.99982C10.7546 10.099 10.7351 10.1971 10.6971 10.2887C10.6592 10.3803 10.6036 10.4636 10.5335 10.5337C10.4634 10.6038 10.3801 10.6594 10.2885 10.6973C10.1969 10.7353 10.0987 10.7548 9.9996 10.7548C9.90045 10.7548 9.80227 10.7353 9.71067 10.6973C9.61907 10.6594 9.53584 10.6038 9.46573 10.5337C9.39562 10.4636 9.34001 10.3803 9.30207 10.2887C9.26412 10.1971 9.2446 10.099 9.2446 9.99982C9.2446 9.79958 9.32414 9.60754 9.46573 9.46595C9.60732 9.32436 9.79936 9.24482 9.9996 9.24482C10.1998 9.24482 10.3919 9.32436 10.5335 9.46595C10.6751 9.60754 10.7546 9.79958 10.7546 9.99982Z" stroke="#827E7E" stroke-width="0.416667" stroke-linecap="round" stroke-linejoin="round"/>
<path d="M16.4564 10.0002C16.4564 13.566 13.566 16.4564 10.0002 16.4564C6.43436 16.4564 3.54395 13.566 3.54395 10.0002C3.54395 6.43436 6.43436 3.54395 10.0002 3.54395C13.566 3.54395 16.4564 6.43436 16.4564 10.0002Z" stroke="#827E7E" stroke-width="0.416667" stroke-linecap="round" stroke-linejoin="round"/>
<path d="M18.9587 9.99984C18.9587 14.9473 14.9478 18.9582 10.0003 18.9582C5.05283 18.9582 1.04199 14.9473 1.04199 9.99984C1.04199 5.05234 5.05283 1.0415 10.0003 1.0415C14.9478 1.0415 18.9587 5.05234 18.9587 9.99984Z" stroke="#827E7E" stroke-width="0.416667" stroke-linecap="round" stroke-linejoin="round"/>
</g>
<defs>
<clipPath id="clip0_363_1826">
<rect width="20" height="20" fill="white"/>
</clipPath>
</defs>
</svg>
