<svg width="17" height="16" viewBox="0 0 17 16" fill="none" xmlns="http://www.w3.org/2000/svg">
<path d="M8.75 8C7.65 8 6.70833 7.60833 5.925 6.825C5.14167 6.04167 4.75 5.1 4.75 4C4.75 2.9 5.14167 1.95833 5.925 1.175C6.70833 0.391667 7.65 0 8.75 0C9.85 0 10.7917 0.391667 11.575 1.175C12.3583 1.95833 12.75 2.9 12.75 4C12.75 5.1 12.3583 6.04167 11.575 6.825C10.7917 7.60833 9.85 8 8.75 8ZM0.75 14V13.2C0.75 12.6333 0.896 12.1127 1.188 11.638C1.48 11.1633 1.86733 10.8007 2.35 10.55C3.38333 10.0333 4.43333 9.646 5.5 9.388C6.56667 9.13 7.65 9.00067 8.75 9C9.85 8.99933 10.9333 9.12867 12 9.388C13.0667 9.64733 14.1167 10.0347 15.15 10.55C15.6333 10.8 16.021 11.1627 16.313 11.638C16.605 12.1133 16.7507 12.634 16.75 13.2V14C16.75 14.55 16.5543 15.021 16.163 15.413C15.7717 15.805 15.3007 16.0007 14.75 16H2.75C2.2 16 1.72933 15.8043 1.338 15.413C0.946666 15.0217 0.750667 14.5507 0.75 14ZM2.75 14H14.75V13.2C14.75 13.0167 14.7043 12.85 14.613 12.7C14.5217 12.55 14.4007 12.4333 14.25 12.35C13.35 11.9 12.4417 11.5627 11.525 11.338C10.6083 11.1133 9.68333 11.0007 8.75 11C7.81667 10.9993 6.89167 11.112 5.975 11.338C5.05833 11.564 4.15 11.9013 3.25 12.35C3.1 12.4333 2.979 12.55 2.887 12.7C2.795 12.85 2.74933 13.0167 2.75 13.2V14ZM8.75 6C9.3 6 9.771 5.80433 10.163 5.413C10.555 5.02167 10.7507 4.55067 10.75 4C10.7493 3.44933 10.5537 2.97867 10.163 2.588C9.77233 2.19733 9.30133 2.00133 8.75 2C8.19867 1.99867 7.728 2.19467 7.338 2.588C6.948 2.98133 6.752 3.452 6.75 4C6.748 4.548 6.944 5.019 7.338 5.413C7.732 5.807 8.20267 6.00267 8.75 6Z" fill="#827E7E"/>
</svg>
