<svg width="17" height="16" viewBox="0 0 17 16" fill="none" xmlns="http://www.w3.org/2000/svg">
<path d="M11.8337 12.0002C12.1873 12.0002 12.5264 12.1406 12.7765 12.3907C13.0265 12.6407 13.167 12.9799 13.167 13.3335C13.167 13.6871 13.0265 14.0263 12.7765 14.2763C12.5264 14.5264 12.1873 14.6668 11.8337 14.6668C11.48 14.6668 11.1409 14.5264 10.8908 14.2763C10.6408 14.0263 10.5003 13.6871 10.5003 13.3335C10.5003 12.5935 11.0937 12.0002 11.8337 12.0002ZM1.16699 1.3335H3.34699L3.97366 2.66683H13.8337C14.0105 2.66683 14.18 2.73707 14.3051 2.86209C14.4301 2.98712 14.5003 3.15668 14.5003 3.3335C14.5003 3.44683 14.467 3.56016 14.4203 3.66683L12.0337 7.98016C11.807 8.38683 11.367 8.66683 10.867 8.66683H5.90033L5.30032 9.7535L5.28033 9.8335C5.28033 9.8777 5.29788 9.92009 5.32914 9.95135C5.3604 9.9826 5.40279 10.0002 5.44699 10.0002H13.167V11.3335H5.16699C4.81337 11.3335 4.47423 11.193 4.22418 10.943C3.97413 10.6929 3.83366 10.3538 3.83366 10.0002C3.83366 9.76683 3.89366 9.54683 3.99366 9.36016L4.90033 7.72683L2.50033 2.66683H1.16699V1.3335ZM5.16699 12.0002C5.52061 12.0002 5.85975 12.1406 6.1098 12.3907C6.35985 12.6407 6.50033 12.9799 6.50033 13.3335C6.50033 13.6871 6.35985 14.0263 6.1098 14.2763C5.85975 14.5264 5.52061 14.6668 5.16699 14.6668C4.81337 14.6668 4.47423 14.5264 4.22418 14.2763C3.97413 14.0263 3.83366 13.6871 3.83366 13.3335C3.83366 12.5935 4.42699 12.0002 5.16699 12.0002ZM11.167 7.3335L13.0203 4.00016H4.59366L6.16699 7.3335H11.167Z" fill="#003366"/>
</svg>
