<svg width="20" height="20" viewBox="0 0 20 20" fill="none" xmlns="http://www.w3.org/2000/svg">
<g clip-path="url(#clip0_363_1851)">
<path d="M5.49167 0.550198C7.44167 -0.958136 9.55833 0.883531 10.0333 3.7502C10.3917 3.7502 10.7417 3.8502 11.0583 4.03353C11.4917 3.53353 11.875 2.8502 11.725 2.08353C11.375 0.291864 13.3833 -1.15814 15.2917 1.31686C16.8 3.26686 14.9583 5.38353 12.0833 5.85853C12.0833 6.21686 11.9917 6.5752 11.8 6.89186C12.3 7.31686 12.9833 7.7002 13.75 7.5502C15.525 7.2002 16.9833 9.2002 14.5083 11.1169C12.5583 12.6252 10.4417 10.7835 9.96667 7.91686C9.60833 7.91686 9.25833 7.80853 8.95 7.6252C8.51667 8.1252 8.125 8.81686 8.275 9.58353C8.625 11.3669 6.61667 12.8252 4.70833 10.3502C3.19167 8.39186 5.04167 6.2752 7.91667 5.80853C7.91667 5.4502 8.025 5.1002 8.20833 4.78353C7.70833 4.35853 7.025 3.96686 6.25 4.11686C4.475 4.46686 3.01667 2.46686 5.49167 0.550198ZM4.16667 13.3335H5.83333C6.27536 13.3335 6.69928 13.5091 7.01184 13.8217C7.3244 14.1342 7.5 14.5582 7.5 15.0002V20.0002H5.83333V18.3335H4.16667V20.0002H2.5V15.0002C2.5 14.5582 2.67559 14.1342 2.98816 13.8217C3.30072 13.5091 3.72464 13.3335 4.16667 13.3335ZM4.16667 15.0002V16.6669H5.83333V15.0002H4.16667ZM10.775 13.3335H12.5L10.0583 20.0002H8.33333L10.775 13.3335ZM15 13.3335H17.5V15.0002H15V18.3335H17.5V20.0002H15C14.558 20.0002 14.134 19.8246 13.8215 19.512C13.5089 19.1995 13.3333 18.7756 13.3333 18.3335V15.0002C13.3333 14.5582 13.5089 14.1342 13.8215 13.8217C14.134 13.5091 14.558 13.3335 15 13.3335Z" fill="#827E7E"/>
</g>
<defs>
<clipPath id="clip0_363_1851">
<rect width="20" height="20" fill="white"/>
</clipPath>
</defs>
</svg>
