<svg width="40" height="32" viewBox="0 0 40 32" fill="none" xmlns="http://www.w3.org/2000/svg">
<path d="M18.3332 12.0002H21.6665V8.00016H26.6665V5.3335H21.6665V1.3335H18.3332V5.3335H13.3332V8.00016H18.3332V12.0002ZM11.6665 24.0002C9.83317 24.0002 8.34984 25.2002 8.34984 26.6668C8.34984 28.1335 9.83317 29.3335 11.6665 29.3335C13.4998 29.3335 14.9998 28.1335 14.9998 26.6668C14.9998 25.2002 13.4998 24.0002 11.6665 24.0002ZM28.3332 24.0002C26.4998 24.0002 25.0165 25.2002 25.0165 26.6668C25.0165 28.1335 26.4998 29.3335 28.3332 29.3335C30.1665 29.3335 31.6665 28.1335 31.6665 26.6668C31.6665 25.2002 30.1665 24.0002 28.3332 24.0002ZM13.4998 17.3335H25.9165C27.1665 17.3335 28.2665 16.7868 28.8332 15.9602L35.2665 6.6135L32.3665 5.3335L25.9165 14.6668H14.2165L7.1165 2.66683H1.6665V5.3335H4.99984L10.9998 15.4535L8.74984 18.7068C7.53317 20.4935 9.13317 22.6668 11.6665 22.6668H31.6665V20.0002H11.6665L13.4998 17.3335Z" fill="#2D2828"/>
</svg>
