<svg width="20" height="20" viewBox="0 0 20 20" fill="none" xmlns="http://www.w3.org/2000/svg">
<path d="M11.6667 16.6667V18.75M8.33333 16.6667V18.75M11.6667 3.33333V1.25M8.33333 3.33333V1.25M5.83333 10H3.75M16.25 10H14.1667M5.83333 5.41667H3.75M16.25 5.41667H14.1667M5.83333 14.5833H3.75M16.25 14.5833H14.1667M5.83333 16.1667V3.83333C5.83333 3.70072 5.88601 3.57355 5.97978 3.47978C6.07355 3.38601 6.20072 3.33333 6.33333 3.33333H13.6667C13.7323 3.33333 13.7973 3.34627 13.858 3.37139C13.9187 3.39652 13.9738 3.43335 14.0202 3.47978C14.0666 3.52621 14.1035 3.58133 14.1286 3.64199C14.1537 3.70265 14.1667 3.76767 14.1667 3.83333V16.1667C14.1667 16.2323 14.1537 16.2973 14.1286 16.358C14.1035 16.4187 14.0666 16.4738 14.0202 16.5202C13.9738 16.5666 13.9187 16.6035 13.858 16.6286C13.7973 16.6537 13.7323 16.6667 13.6667 16.6667H6.33333C6.20072 16.6667 6.07355 16.614 5.97978 16.5202C5.88601 16.4265 5.83333 16.2993 5.83333 16.1667Z" stroke="#827E7E" stroke-width="1.25" stroke-linecap="round" stroke-linejoin="round"/>
</svg>
