<svg width="25" height="24" viewBox="0 0 25 24" fill="none" xmlns="http://www.w3.org/2000/svg">
<path d="M11.48 12.0142H12.221C12.259 11.8002 12.191 11.6172 11.954 11.6172C11.717 11.6172 11.549 11.7392 11.48 12.0142ZM7.30299 12.4112L7.26599 12.4052C7.15599 12.3852 6.96199 12.3492 6.79199 12.4652C6.60099 12.5952 6.54699 12.8232 6.74599 12.9002C6.93699 12.9732 7.21899 12.8472 7.25799 12.6482L7.30299 12.4112ZM20.903 12.3422C20.965 12.1442 20.931 11.8962 20.865 11.8082C20.682 11.5642 20.261 11.7572 20.132 12.2362C20.048 12.5492 20.232 12.7862 20.438 12.7862C20.659 12.7862 20.796 12.6102 20.903 12.3422ZM17.383 12.4112L17.346 12.4052C17.236 12.3852 17.041 12.3492 16.872 12.4652C16.681 12.5952 16.627 12.8232 16.826 12.9002C17.017 12.9732 17.299 12.8472 17.337 12.6482L17.383 12.4112Z" fill="white"/>
<path d="M16.5109 6.08009C18.081 6.08009 19.5868 6.70381 20.697 7.81402C21.8072 8.92424 22.4309 10.43 22.4309 12.0001C22.4309 13.5702 21.8072 15.076 20.697 16.1862C19.5868 17.2964 18.081 17.9201 16.5109 17.9201C15.1514 17.9231 13.8331 17.4532 12.7819 16.5911C13.5715 15.8328 14.1534 14.8845 14.4719 13.8371H13.9799C13.6736 14.7697 13.1395 15.6111 12.4259 16.2851C11.7168 15.6107 11.1865 14.7705 10.8829 13.8401H10.3909C10.7054 14.8831 11.2809 15.8287 12.0629 16.5871C11.0159 17.4455 9.70481 17.9164 8.35091 17.9201C6.78083 17.9201 5.27505 17.2964 4.16484 16.1862C3.05462 15.076 2.43091 13.5702 2.43091 12.0001C2.43091 10.43 3.05462 8.92424 4.16484 7.81402C5.27505 6.70381 6.78083 6.08009 8.35091 6.08009C9.76091 6.08009 11.0459 6.59009 12.0629 7.41309C11.2809 8.17153 10.7054 9.11705 10.3909 10.1601H10.8829C11.1865 9.22974 11.7168 8.38951 12.4259 7.71509C13.1395 8.38912 13.6736 9.23053 13.9799 10.1631H14.4719C14.1534 9.11566 13.5715 8.16744 12.7819 7.40909C13.8334 6.54672 15.152 6.07688 16.5119 6.08009M18.4899 11.1961L18.0809 13.3861H18.6829L18.8679 12.3841C19.0359 11.7621 19.2949 11.7641 19.4469 11.7671H19.4699L19.6319 11.1971C19.3309 11.1971 19.1529 11.3041 19.0609 11.4121L19.0069 11.1961H18.4899ZM10.7559 10.6401H10.1599L9.74791 12.7171C9.63291 13.3121 10.0839 13.3971 10.2209 13.3971C10.3757 13.4021 10.5288 13.3648 10.6639 13.2891L10.7019 12.8471C10.3589 12.9001 10.3429 12.7471 10.3739 12.5791L10.5419 11.6931H10.8469L10.9539 11.2201H10.6339L10.7559 10.6401ZM11.9239 11.1901C10.9909 11.1901 10.8479 12.0871 10.8199 12.2671L10.8169 12.2811C10.7939 12.4191 10.7789 13.3891 11.8099 13.3891C12.0619 13.3961 12.4279 13.3661 12.5739 13.2891L12.6649 12.8391C12.4428 12.8756 12.218 12.8934 11.9929 12.8921H11.9729C11.7349 12.8921 11.3769 12.8931 11.4429 12.4121H12.7409C12.8109 12.0601 12.9709 11.1901 11.9239 11.1901ZM9.73291 11.2651C9.48591 11.1711 9.28591 11.1771 9.18291 11.1801H9.13991C9.03891 11.1801 8.34291 11.1801 8.23491 11.7001C8.15091 12.1051 8.29891 12.2721 8.44091 12.3341C8.59091 12.3991 8.69791 12.4601 8.78891 12.5121C8.83558 12.5401 8.88024 12.5648 8.92291 12.5861C9.07291 12.6611 9.04591 12.9141 8.84591 12.9141L8.77391 12.9171C8.61991 12.9261 8.30591 12.9431 8.05991 12.8611L7.97591 13.3111C8.25091 13.3881 8.47191 13.3881 8.67791 13.3881H8.70091C8.88591 13.3901 9.53791 13.3961 9.63191 12.7691C9.68091 12.4491 9.54091 12.3031 9.42591 12.2351C9.28944 12.146 9.14674 12.0668 8.99891 11.9981C8.87691 11.9441 8.78491 11.7381 9.00591 11.6781C9.14391 11.6621 9.42591 11.6621 9.59391 11.7081L9.73291 11.2651ZM6.22791 10.7451H5.24991L4.52491 12.3491L4.40991 10.7451H3.45591L2.94391 13.3881H3.53991L3.90591 11.4781L4.06591 13.3881H4.63191L5.46391 11.5241L5.11291 13.3881H5.72991L6.22791 10.7451ZM6.29591 11.7311L6.43991 11.7131C6.61991 11.6901 6.88091 11.6561 7.03691 11.6621L7.09691 11.6631C7.28391 11.6671 7.46591 11.6711 7.40391 11.9671C7.38324 11.9684 7.34991 11.9684 7.30391 11.9671C6.99091 11.9571 6.15991 11.9321 6.01391 12.7311C5.94491 13.1811 6.33391 13.4111 6.63991 13.3951C6.94491 13.3801 7.02991 13.3421 7.13591 13.2651L7.21291 13.3881H7.76991L8.00691 12.1961C8.06791 11.8991 8.16691 11.1811 7.16691 11.1811L7.07091 11.1841C6.90891 11.1881 6.71091 11.1941 6.38791 11.2571L6.29591 11.7311ZM15.5819 11.2501C15.7809 11.2501 15.8869 11.2651 16.0399 11.3561L16.4299 10.9671C16.2769 10.7991 16.1009 10.6341 15.6129 10.6161C15.1999 10.6001 14.4929 10.9011 14.2689 11.7231C13.9629 12.8381 14.6349 13.3881 15.2539 13.3881C15.5819 13.3881 15.7809 13.3421 15.9789 13.2501L15.8029 12.7161C15.1929 12.9221 14.7569 12.6091 14.8569 11.9751C14.9399 11.4391 15.3829 11.2491 15.5819 11.2491M21.0339 11.3681C20.9539 11.2841 20.8619 11.1881 20.6519 11.1881H20.5979C20.2699 11.1841 19.7969 11.1791 19.5219 12.1191C19.3279 12.7821 19.7209 13.3871 20.1479 13.3871C20.3469 13.3791 20.5449 13.2951 20.6679 13.2111L20.7439 13.3871H21.3849L21.9049 10.6071H21.2779L21.1179 11.4471C21.0884 11.4221 21.0603 11.3954 21.0339 11.3671M16.3759 11.7291L16.5199 11.7111C16.6999 11.6881 16.9599 11.6541 17.1169 11.6601L17.1769 11.6611C17.3639 11.6651 17.5459 11.6691 17.4829 11.9651C17.4629 11.9664 17.4296 11.9664 17.3829 11.9651C17.0709 11.9551 16.2399 11.9301 16.0929 12.7291C16.0249 13.1791 16.4139 13.4091 16.7199 13.3931C17.0249 13.3781 17.1089 13.3401 17.2159 13.2631L17.2929 13.3861H17.8499L18.0869 12.1941C18.1469 11.8971 18.2469 11.1791 17.2469 11.1791L17.1509 11.1821C16.9889 11.1861 16.7909 11.1921 16.4679 11.2551L16.3759 11.7291ZM13.1629 11.2171L12.7579 13.3861H13.3539L13.5369 12.3931C13.7019 11.7831 13.9629 11.7871 14.1129 11.7891H14.1399L14.2929 11.2171C13.9959 11.2171 13.8199 11.3241 13.7279 11.4311L13.6749 11.2171H13.1629Z" fill="white"/>
</svg>
