<svg width="20" height="20" viewBox="0 0 20 20" fill="none" xmlns="http://www.w3.org/2000/svg">
<path d="M9.42992 0.820312L8.83539 2.17773C8.52764 2.19649 8.22143 2.23524 7.91871 2.29375L7.00926 1.11937L6.02902 1.45266L6.02414 2.9468C5.60891 3.16023 5.21098 3.41828 4.83508 3.71945L3.44973 3.0957L2.74047 3.85012L3.44969 5.19531C3.22342 5.51788 3.02457 5.85884 2.85523 6.21461L1.33422 6.25609L1.02539 7.24359L2.25344 8.1482C2.19465 8.51461 2.16594 8.88484 2.1643 9.25539L0.800781 9.94629L0.943594 10.9717L2.4402 11.2646C2.52971 11.5779 2.64065 11.8846 2.77223 12.1826L1.78594 13.407L2.33645 14.2834L3.86965 13.9246C3.96667 14.0387 4.06721 14.1499 4.17113 14.2578C4.38816 14.4823 4.61936 14.6927 4.86332 14.8877L4.56547 16.4233L5.46148 16.9409L6.63211 15.9216C6.96707 16.0562 7.31194 16.1648 7.66363 16.2463L8.04574 17.7465L9.07719 17.8308L9.6973 16.4159C10.1258 16.3902 10.5529 16.3261 10.9729 16.223L11.9581 17.3645L12.9187 16.9799L12.8906 16.4013L10.6482 14.7009C9.99539 14.8659 9.31844 14.9101 8.65355 14.8351C7.41316 14.6953 6.22113 14.1351 5.28566 13.1677C3.14746 10.9562 3.20859 7.4384 5.41996 5.30027C6.49106 4.26461 7.86879 3.73922 9.24809 3.72434C10.7164 3.70848 12.1861 4.27105 13.2886 5.41133C15.083 7.26727 15.3275 10.0592 14.0528 12.1729L15.3016 13.1201C15.4569 12.8767 15.5971 12.6239 15.7215 12.3633L17.2315 12.3218L17.5403 11.3343L16.3209 10.4358C16.3798 10.0664 16.4095 9.69294 16.41 9.31887L17.765 8.63039L17.6222 7.605L16.1269 7.31203C16.001 6.87888 15.8343 6.4587 15.6288 6.05715L16.5198 4.82301L15.9241 3.97703L14.457 4.40305C14.4385 4.38352 14.4206 4.36371 14.402 4.34445C14.171 4.10552 13.9238 3.88281 13.6622 3.67789L13.943 2.2277L13.0469 1.71016L11.9336 2.67945C11.5732 2.53441 11.203 2.42152 10.8276 2.33766L10.4627 0.904531L9.42992 0.820312ZM7.1582 6.81641C6.75414 6.82102 6.35363 6.92023 5.98633 7.10078L7.75273 8.44117C8.28695 8.84648 8.43848 9.61676 8.02852 10.1575C7.61844 10.6985 6.83102 10.7798 6.28906 10.3687L4.52391 9.02957C4.34316 9.99805 4.68543 11.0242 5.52367 11.6602C6.27543 12.2304 7.24023 12.3371 8.07133 12.0386L8.25805 11.9714L8.41547 12.0911L13.6963 16.0975L13.8538 16.2171L13.8403 16.4149C13.7764 17.2957 14.1368 18.1965 14.8889 18.7671C15.7272 19.403 16.8086 19.4558 17.6928 19.021L15.9277 17.682C15.3858 17.2708 15.2527 16.4903 15.6629 15.9498C16.073 15.4091 16.8557 15.348 17.3901 15.7532L19.1553 17.0924C19.3356 16.1243 18.9947 15.0976 18.1567 14.4618C17.4023 13.8892 16.4451 13.7757 15.6189 14.0698L15.4334 14.1358L15.2759 14.0161L9.99508 10.0098L9.83766 9.89016L9.85109 9.69367C9.91164 8.81918 9.54445 7.92828 8.79027 7.35598C8.30027 6.98426 7.72691 6.80996 7.15824 6.81645L7.1582 6.81641ZM8.85988 10.3418L15.2612 15.199L14.8205 15.7812L8.41797 10.9229L8.85988 10.3418Z" fill="#827E7E"/>
</svg>
