<svg width="20" height="20" viewBox="0 0 20 20" fill="none" xmlns="http://www.w3.org/2000/svg">
<path fill-rule="evenodd" clip-rule="evenodd" d="M10.0003 1.6665C14.6028 1.6665 18.3337 5.39734 18.3337 9.99984C18.3337 14.6023 14.6028 18.3332 10.0003 18.3332C5.39783 18.3332 1.66699 14.6023 1.66699 9.99984C1.66699 5.39734 5.39783 1.6665 10.0003 1.6665ZM3.50449 11.5082C3.79612 12.7602 4.44307 13.9013 5.36758 14.7945C6.2921 15.6877 7.45487 16.2949 8.71616 16.5432C8.55533 14.3557 7.83616 13.0432 6.92782 12.3173C6.05783 11.6215 4.87783 11.3523 3.50449 11.5073V11.5082ZM13.0728 12.3165C12.1645 13.044 11.4453 14.3557 11.2845 16.5432C12.5459 16.2948 13.7087 15.6875 14.6333 14.7941C15.5578 13.9008 16.2047 12.7595 16.4962 11.5073C15.1228 11.3523 13.9428 11.6215 13.0728 12.3173V12.3165ZM10.0003 3.33317C8.44701 3.3329 6.94235 3.87503 5.74617 4.86597C4.54999 5.8569 3.73738 7.23442 3.44866 8.76067L3.41283 8.96734L5.25449 8.599C5.73949 8.50234 6.20033 8.2465 6.71532 7.899L7.11283 7.62234C7.77699 7.15067 8.76116 6.6665 10.0003 6.6665C11.157 6.6665 12.0912 7.08817 12.7503 7.52817L13.2853 7.899C13.7353 8.20317 14.1453 8.4365 14.5653 8.55567L14.7462 8.599L16.5878 8.96734C16.3417 7.39713 15.5426 5.96653 14.3348 4.93347C13.1269 3.90041 11.5897 3.33287 10.0003 3.33317Z" fill="#827E7E"/>
</svg>
