<svg width="20" height="20" viewBox="0 0 20 20" fill="none" xmlns="http://www.w3.org/2000/svg">
<path fill-rule="evenodd" clip-rule="evenodd" d="M9.76662 1.04036C9.76662 0.819351 9.85442 0.607389 10.0107 0.451109C10.167 0.294829 10.3789 0.207031 10.6 0.207031C10.821 0.207031 11.0329 0.294829 11.1892 0.451109C11.3455 0.607389 11.4333 0.819351 11.4333 1.04036V2.21703C11.4333 2.43804 11.3455 2.65001 11.1892 2.80629C11.0329 2.96257 10.821 3.05036 10.6 3.05036C10.3789 3.05036 10.167 2.96257 10.0107 2.80629C9.85442 2.65001 9.76662 2.43804 9.76662 2.21703V1.04036ZM3.07912 7.70703C3.07912 7.92804 3.16692 8.14001 3.3232 8.29629C3.47948 8.45257 3.69144 8.54036 3.91246 8.54036H5.09204C5.31305 8.54036 5.52501 8.45257 5.68129 8.29629C5.83758 8.14001 5.92537 7.92804 5.92537 7.70703C5.92537 7.48602 5.83758 7.27406 5.68129 7.11778C5.52501 6.9615 5.31305 6.8737 5.09204 6.8737H3.91246C3.69144 6.8737 3.47948 6.9615 3.3232 7.11778C3.16692 7.27406 3.07912 7.48602 3.07912 7.70703ZM18.6458 7.70703C18.6458 7.92804 18.558 8.14001 18.4017 8.29629C18.2454 8.45257 18.0335 8.54036 17.8125 8.54036H16.6325C16.4114 8.54036 16.1995 8.45257 16.0432 8.29629C15.8869 8.14001 15.7991 7.92804 15.7991 7.70703C15.7991 7.48602 15.8869 7.27406 16.0432 7.11778C16.1995 6.9615 16.4114 6.8737 16.6325 6.8737H17.8125C18.0335 6.8737 18.2454 6.9615 18.4017 7.11778C18.558 7.27406 18.6458 7.48602 18.6458 7.70703ZM5.28079 2.40495C5.20312 2.48202 5.14148 2.57371 5.09941 2.67472C5.05735 2.77573 5.03569 2.88407 5.03569 2.99349C5.03569 3.10291 5.05735 3.21125 5.09941 3.31226C5.14148 3.41327 5.20312 3.50496 5.28079 3.58203L6.11496 4.4137C6.44079 4.7387 6.96912 4.7387 7.29537 4.4137C7.37283 4.33654 7.43428 4.24486 7.47622 4.1439C7.51815 4.04294 7.53974 3.93469 7.53974 3.82536C7.53974 3.71604 7.51815 3.60779 7.47622 3.50683C7.43428 3.40587 7.37283 3.31418 7.29537 3.23703L6.46079 2.40495C6.30407 2.24893 6.09193 2.16133 5.87079 2.16133C5.64965 2.16133 5.43751 2.24893 5.28079 2.40495ZM16.1533 3.39953C16.2307 3.32238 16.2922 3.23069 16.3341 3.12973C16.3761 3.02877 16.3977 2.92052 16.3977 2.8112C16.3977 2.70187 16.3761 2.59363 16.3341 2.49267C16.2922 2.3917 16.2307 2.30002 16.1533 2.22286C15.9966 2.06671 15.7843 1.97904 15.5631 1.97904C15.3418 1.97904 15.1296 2.06671 14.9729 2.22286L14.1383 3.05453C14.0608 3.13168 13.9994 3.22337 13.9574 3.32433C13.9155 3.42529 13.8939 3.53354 13.8939 3.64286C13.8939 3.75219 13.9155 3.86044 13.9574 3.9614C13.9994 4.06236 14.0608 4.15404 14.1383 4.2312C14.4645 4.5562 14.9925 4.5562 15.3187 4.2312L16.1533 3.39953ZM9.92579 7.74411C6.99454 10.4595 4.26329 13.2399 3.13329 14.4049C3.01496 14.5266 2.99912 14.6758 3.04746 14.7862C3.14746 15.0137 3.25871 15.2454 3.36621 15.4308C3.47371 15.6162 3.61912 15.8279 3.76662 16.0283C3.83912 16.1262 3.97954 16.1883 4.14662 16.1466C5.72162 15.7541 9.49621 14.7879 13.3162 13.6166C13.0495 12.9808 12.5733 11.9716 11.7562 10.5604C10.9675 9.19828 10.345 8.29786 9.92579 7.7437M12.0833 3.81203C11.9465 3.66224 11.7597 3.5675 11.558 3.54559C11.3563 3.52369 11.1535 3.57611 10.9877 3.69303C10.8219 3.80996 10.7045 3.98335 10.6574 4.18069C10.6103 4.37803 10.6369 4.58577 10.732 4.76495C7.09162 7.98286 3.31454 11.8237 1.93662 13.2441C1.38121 13.8174 1.18121 14.6824 1.52162 15.457C1.63329 15.7104 1.77246 16.0045 1.92371 16.2662C2.07537 16.527 2.26121 16.7945 2.42579 17.0174C2.92746 17.6979 3.77579 17.9566 4.54954 17.7637C4.84079 17.6912 5.20787 17.5991 5.63704 17.4891L5.69996 17.7245C6.09996 19.2129 7.63287 20.0924 9.12079 19.6954C10.6095 19.2974 11.497 17.7695 11.0966 16.2804L11.03 16.0308C12.7383 15.542 14.5716 14.9895 16.3175 14.4091C16.4252 14.5811 16.5921 14.7078 16.7866 14.7654C16.9812 14.8231 17.1901 14.8078 17.3742 14.7225C17.5583 14.6371 17.7049 14.4874 17.7865 14.3016C17.8681 14.1158 17.8791 13.9066 17.8175 13.7133L17.4025 13.8449L17.817 13.7129V13.7124L17.8162 13.7112L17.8158 13.7087L17.8133 13.702L17.8066 13.682L17.7841 13.617C17.7647 13.5623 17.735 13.4834 17.695 13.3804C17.6141 13.1745 17.4866 12.8695 17.2962 12.4562C16.915 11.6295 16.2791 10.367 15.25 8.58953C14.2208 6.81203 13.4416 5.63245 12.9141 4.88995C12.7206 4.6156 12.5194 4.34674 12.3108 4.0837C12.2437 3.99981 12.175 3.91729 12.1045 3.8362L12.0908 3.82078L12.0858 3.81536L12.0841 3.81328L12.0833 3.81203ZM9.42496 16.482C8.64662 16.697 7.91371 16.8945 7.24996 17.0695L7.30954 17.292C7.38787 17.5801 7.57728 17.8254 7.83622 17.9741C8.09516 18.1227 8.40249 18.1626 8.69079 18.0849C8.83323 18.0472 8.96683 17.9818 9.08397 17.8924C9.2011 17.8031 9.29945 17.6914 9.37341 17.564C9.44736 17.4366 9.49547 17.2958 9.51497 17.1497C9.53446 17.0037 9.52497 16.8552 9.48704 16.7129L9.42496 16.482Z" fill="#FFC300"/>
</svg>
