<svg width="18" height="18" viewBox="0 0 18 18" fill="none" xmlns="http://www.w3.org/2000/svg">
<path d="M15.7875 14.0311L9.7958 2.90418C9.37111 2.11527 8.23978 2.11527 7.81474 2.90418L1.82341 14.0311C1.7312 14.2024 1.68497 14.3946 1.68924 14.5891C1.6935 14.7836 1.74811 14.9736 1.84773 15.1407C1.94736 15.3077 2.0886 15.4461 2.25767 15.5423C2.42673 15.6385 2.61785 15.6892 2.81236 15.6895H14.7968C14.9914 15.6895 15.1828 15.639 15.3521 15.5429C15.5214 15.4469 15.6629 15.3085 15.7627 15.1414C15.8625 14.9743 15.9173 14.7842 15.9216 14.5895C15.926 14.3949 15.8798 14.2025 15.7875 14.0311ZM8.80544 13.9668C8.66638 13.9668 8.53044 13.9256 8.41481 13.8483C8.29918 13.771 8.20906 13.6612 8.15584 13.5327C8.10262 13.4043 8.0887 13.2629 8.11583 13.1265C8.14296 12.9901 8.20993 12.8648 8.30826 12.7665C8.40659 12.6682 8.53188 12.6012 8.66827 12.5741C8.80466 12.5469 8.94604 12.5609 9.07452 12.6141C9.203 12.6673 9.31281 12.7574 9.39007 12.873C9.46733 12.9887 9.50857 13.1246 9.50857 13.2637C9.50857 13.4502 9.43449 13.629 9.30263 13.7609C9.17077 13.8927 8.99192 13.9668 8.80544 13.9668ZM9.56904 6.89512L9.36724 11.1842C9.36724 11.3334 9.30798 11.4764 9.20249 11.5819C9.097 11.6874 8.95393 11.7467 8.80474 11.7467C8.65556 11.7467 8.51248 11.6874 8.40699 11.5819C8.3015 11.4764 8.24224 11.3334 8.24224 11.1842L8.04044 6.89687C8.03591 6.79443 8.05205 6.69211 8.0879 6.59603C8.12374 6.49995 8.17857 6.41208 8.24911 6.33764C8.31964 6.2632 8.40444 6.20372 8.49845 6.16275C8.59246 6.12179 8.69376 6.10017 8.7963 6.09918H8.80369C8.90693 6.09913 9.00911 6.11999 9.10407 6.16052C9.19903 6.20104 9.28479 6.26038 9.35619 6.33496C9.42758 6.40954 9.48312 6.49781 9.51946 6.59445C9.55581 6.69109 9.57219 6.79408 9.56763 6.89723L9.56904 6.89512Z" fill="#FF9600"/>
</svg>
