<svg width="24" height="24" viewBox="0 0 24 24" fill="none" xmlns="http://www.w3.org/2000/svg">
<path opacity="0.3" fill-rule="evenodd" clip-rule="evenodd" d="M9.96505 2.80904C9.7659 2.66329 9.53406 2.56857 9.28982 2.53318C9.04558 2.49779 8.79639 2.52281 8.56405 2.60604C7.47775 3.0042 6.46878 3.58786 5.58205 4.33104C5.39421 4.49052 5.24824 4.69356 5.15691 4.92243C5.06557 5.15129 5.03163 5.39904 5.05805 5.64404C5.13305 6.39704 5.00005 7.12404 4.63805 7.75004C4.27705 8.37704 3.71305 8.85604 3.02305 9.16704C2.56505 9.37004 2.23705 9.78704 2.14805 10.28C1.94935 11.4181 1.94935 12.582 2.14805 13.72C2.24105 14.257 2.60805 14.646 3.02305 14.834C3.71305 15.144 4.27705 15.624 4.63905 16.25C5.00005 16.877 5.13305 17.603 5.05805 18.356C5.01305 18.808 5.16505 19.32 5.58205 19.669C6.46878 20.4122 7.47775 20.9959 8.56405 21.394C9.03505 21.563 9.56005 21.487 9.96405 21.191C10.5791 20.749 11.2761 20.5 12.0001 20.5C12.7241 20.5 13.4201 20.749 14.0351 21.191C14.4051 21.457 14.9251 21.581 15.4361 21.394C16.5224 20.9959 17.5313 20.4122 18.4181 19.669C18.8351 19.32 18.9881 18.809 18.9421 18.356C18.8671 17.603 18.9991 16.876 19.3621 16.25C19.7231 15.623 20.2871 15.145 20.9771 14.834C21.3911 14.646 21.7591 14.257 21.8521 13.72C22.0488 12.5818 22.0488 11.4183 21.8521 10.28C21.8083 10.0371 21.7056 9.80867 21.5531 9.61463C21.4005 9.4206 21.2028 9.26692 20.9771 9.16704C20.2871 8.85604 19.7231 8.37704 19.3611 7.75004C18.9991 7.12404 18.8671 6.39704 18.9421 5.64404C18.9685 5.39904 18.9345 5.15129 18.8432 4.92243C18.7519 4.69356 18.6059 4.49052 18.4181 4.33104C17.5313 3.58786 16.5224 3.0042 15.4361 2.60604C15.2039 2.52298 14.9549 2.49806 14.7108 2.53345C14.4668 2.56883 14.2351 2.66345 14.0361 2.80904C13.4201 3.25004 12.7231 3.50004 12.0001 3.50004C11.2771 3.50004 10.5801 3.25104 9.96505 2.80904Z" fill="black"/>
<path fill-rule="evenodd" clip-rule="evenodd" d="M9 12.0006C9 9.69158 11.5 8.24758 13.5 9.40258C13.956 9.66587 14.3348 10.0446 14.5981 10.5006C14.8614 10.9567 15 11.474 15 12.0006C15 14.3096 12.5 15.7536 10.5 14.5986C10.044 14.3353 9.66525 13.9566 9.40194 13.5005C9.13864 13.0445 9.00001 12.5272 9 12.0006Z" fill="black"/>
</svg>
