<svg width="12" height="13" viewBox="0 0 12 13" fill="none" xmlns="http://www.w3.org/2000/svg">
<path fill-rule="evenodd" clip-rule="evenodd" d="M11.822 10.974C11.8283 11.0037 11.832 11.0337 11.8331 11.064L11.8334 11.0834V11.6667C11.8334 12.311 10.6582 12.8334 9.20842 12.8334C7.77315 12.8334 6.60694 12.3214 6.58378 11.686L6.58342 11.6667V11.0834L6.58378 11.064C6.58487 11.0338 6.58854 11.0038 6.59477 10.9741C6.75555 11.095 6.95125 11.2064 7.17804 11.3018C7.70742 11.5245 8.42117 11.6667 9.20842 11.6667C10.0269 11.6667 10.7658 11.5128 11.3015 11.2747C11.5017 11.1857 11.676 11.0838 11.822 10.974ZM5.41675 0.939177L10.6667 3.85585L10.6668 6.00841C10.2367 5.89799 9.73928 5.83335 9.20842 5.83335C8.40892 5.83335 7.68527 5.98033 7.15141 6.21759C6.42043 6.54249 6.04828 7.03932 6.00125 7.54215L5.99991 7.55738L6.00324 12.28L5.41675 12.6059L0.166748 9.68918V3.85585L5.41675 0.939177ZM11.822 9.22395C11.8283 9.25368 11.832 9.28371 11.8331 9.31405L11.8334 9.33335V9.91668C11.8334 10.561 10.6582 11.0834 9.20842 11.0834C7.77315 11.0834 6.60694 10.5714 6.58378 9.93598L6.58342 9.91668V9.33335L6.58378 9.31405C6.58487 9.28379 6.58854 9.25382 6.59477 9.22414C6.75555 9.34497 6.95125 9.4564 7.17804 9.5518C7.70742 9.77449 8.42117 9.91668 9.20842 9.91668C10.0269 9.91668 10.7658 9.76276 11.3015 9.5247C11.5017 9.4357 11.676 9.33379 11.822 9.22395ZM3.66672 6.38354L3.66675 10.3374L4.83342 10.9855V7.03166L3.66672 6.38354ZM1.33342 5.08728V9.04102L2.50007 9.6892V5.73541L1.33342 5.08728ZM9.20842 6.41668C10.6437 6.41668 11.8099 6.92861 11.8331 7.56405L11.8334 7.58335V8.16668C11.8334 8.811 10.6582 9.33335 9.20842 9.33335C7.77315 9.33335 6.60694 8.8214 6.58378 8.18598L6.58342 8.16668V7.58335L6.58731 7.51934C6.66207 6.90476 7.807 6.41668 9.20842 6.41668ZM7.71338 3.51138L4.27958 5.42779L5.41675 6.05954L8.85842 4.1475L7.71338 3.51138ZM5.41675 2.23546L1.97507 4.1475L3.11427 4.7804L6.54804 2.86399L5.41675 2.23546Z" fill="#003366"/>
</svg>
