<svg width="48" height="48" viewBox="0 0 48 48" fill="none" xmlns="http://www.w3.org/2000/svg">
<path d="M22.2337 18.946C22.6693 18.5115 23.2499 18.2528 23.8643 18.2196C24.4787 18.1864 25.0838 18.381 25.5637 18.766L25.7657 18.946L31.4137 24.586C31.7762 24.9451 31.9878 25.4291 32.0051 25.9391C32.0224 26.4491 31.8441 26.9463 31.5068 27.3292C31.1694 27.712 30.6985 27.9514 30.1905 27.9984C29.6824 28.0454 29.1756 27.8964 28.7737 27.582L28.5857 27.416L25.9997 24.832V42C25.9992 42.5098 25.804 43.0001 25.454 43.3707C25.1041 43.7414 24.6258 43.9645 24.1169 43.9943C23.608 44.0242 23.107 43.8587 22.7161 43.5315C22.3251 43.2043 22.0739 42.7402 22.0137 42.234L21.9997 42V24.832L19.4137 27.416C19.0543 27.7778 18.5702 27.9886 18.0605 28.0054C17.5508 28.0221 17.0539 27.8435 16.6716 27.5061C16.2892 27.1686 16.0501 26.6979 16.0033 26.19C15.9565 25.6822 16.1055 25.1757 16.4197 24.774L16.5857 24.584L22.2337 18.946ZM22.9997 4C28.5677 4 33.3197 7.5 35.1717 12.424C37.9388 13.1796 40.3436 14.9014 41.9506 17.2774C43.5575 19.6534 44.2602 22.5264 43.9313 25.3759C43.6025 28.2254 42.2638 30.8628 40.1579 32.8103C38.052 34.7578 35.3182 35.8865 32.4517 35.992L31.9997 36H29.9997V32C31.1533 32.0001 32.2824 31.6677 33.2518 31.0426C34.2213 30.4175 34.99 29.5262 35.4659 28.4754C35.9418 27.4246 36.1048 26.2589 35.9352 25.1179C35.7656 23.9769 35.2707 22.9089 34.5097 22.042L34.2397 21.754L28.5917 16.116C27.4214 14.9479 25.8499 14.2698 24.1972 14.2196C22.5444 14.1695 20.9347 14.7511 19.6957 15.846L19.4077 16.116L13.7597 21.756C12.9453 22.5696 12.3822 23.6002 12.1374 24.725C11.8927 25.8498 11.9767 27.0213 12.3793 28.0997C12.782 29.1781 13.4864 30.1178 14.4085 30.8069C15.3306 31.496 16.4314 31.9053 17.5797 31.986L17.9997 32V36H13.9997C11.7011 36.0015 9.47222 35.2111 7.6881 33.7618C5.90399 32.3126 4.67361 30.2929 4.20405 28.0428C3.7345 25.7927 4.05444 23.4495 5.11002 21.4077C6.1656 19.3658 7.89238 17.7499 9.99972 16.832C10.0439 13.4134 11.433 10.1498 13.8662 7.74802C16.2994 5.34627 19.5808 3.99971 22.9997 4Z" fill="#003366"/>
</svg>
