<svg width="174" height="45" viewBox="0 0 174 45" fill="none" xmlns="http://www.w3.org/2000/svg">
<ellipse cx="22.25" cy="22.25" rx="22.25" ry="22.25" fill="white"/>
<path d="M29.1623 40.5692C32.954 39.1385 36.2084 36.5664 38.4765 33.2079C40.7446 29.8493 41.9147 25.8697 41.8253 21.818C41.7359 17.7663 40.3915 13.8422 37.9775 10.5869C35.5635 7.33163 32.1989 4.90562 28.3477 3.64352L28.2012 4.0906C31.9598 5.32237 35.2436 7.69009 37.5996 10.8671C39.9556 14.0442 41.2677 17.874 41.355 21.8284C41.4422 25.7827 40.3002 29.6667 38.0866 32.9446C35.873 36.2224 32.6968 38.7326 28.9962 40.129L29.1623 40.5692Z" fill="#003366"/>
<path d="M15.9221 3.72061C12.0005 5.05987 8.60482 7.60886 6.22396 11.0007C3.84309 14.3926 2.59978 18.4523 2.67298 22.5957C2.74617 26.7391 4.13209 30.7525 6.63126 34.0581C9.13043 37.3638 12.614 39.7912 16.5805 40.9912L16.7167 40.5408C12.8455 39.3698 9.44567 37.0006 7.00655 33.7744C4.56743 30.5482 3.21482 26.6313 3.14338 22.5874C3.07195 18.5436 4.28538 14.5814 6.60904 11.271C8.93269 7.96066 12.2467 5.47292 16.0742 4.16584L15.9221 3.72061Z" fill="#003366"/>
<path d="M27.3464 40.676C27.0527 41.219 25.5839 41.2101 25.0587 41.3125C24.6314 40.4758 24.2264 39.6746 23.8348 38.9046H21.3557C21.013 39.6924 20.6658 40.4891 20.3053 41.3214C19.789 41.3214 18.2268 41.2724 17.9153 40.8007C17.5726 40.2755 17.9064 38.6732 17.9064 38.0412C17.2076 37.6673 16.5044 37.2935 15.7656 36.9018C15.3027 37.2312 14.2434 38.2904 13.6737 38.2726C13.1129 38.2548 12.3073 37.2178 11.9335 36.8707C12.4097 36.0295 12.8592 35.2506 13.3176 34.445C12.7524 33.7195 12.1961 33.0074 11.6486 32.3042C11.3504 32.3576 11.0967 32.4066 10.8608 32.4466C10.0107 31.5743 9.17399 30.7242 8.31055 29.8429C8.38621 29.7495 8.47077 29.656 8.57314 29.5358C8.92475 29.9008 9.24966 30.239 9.59681 30.5951C9.68583 30.4927 9.74814 30.426 9.8238 30.3414C9.49445 29.9853 9.17399 29.6382 8.83128 29.2688C9.32977 28.7925 9.806 28.3386 10.3223 27.849C12.7836 30.288 15.1513 33.5014 18.2535 35.126C21.3245 36.7371 25.0721 36.6615 27.8093 34.3827C30.0836 32.4911 31.1473 29.4157 30.5598 26.5182C30.186 24.6712 29.1801 23.6964 27.8983 22.4057C26.5586 21.0527 25.2145 19.7041 23.8748 18.3511C26.7411 15.8587 22.7977 11.6661 20.3632 14.3944C19.3395 15.5382 19.4997 17.3942 20.737 18.3199C21.3023 18.7428 21.8675 18.6938 22.4906 18.8896C23.363 19.1656 24.0528 20.1893 24.6849 20.8213C25.4637 21.6046 26.2471 22.3835 27.0304 23.1624C27.6758 23.8077 28.4769 24.4219 28.8997 25.2409C29.6163 26.625 29.7008 28.4053 29.3092 29.8919C28.419 33.3012 24.9653 35.4598 21.5204 34.9613C19.1704 34.623 17.982 33.092 16.3887 31.4986C14.7864 29.8963 13.1352 28.3252 11.5907 26.6606C11.84 26.447 12.0803 26.2423 12.3652 26.0019C14.6262 28.0226 16.6379 30.3637 18.7832 32.5089C20.4566 34.178 23.0559 34.4227 25.1566 33.3813C27.2084 32.362 28.4991 30.1589 28.4502 27.8757C28.419 26.4248 27.8538 25.0495 26.839 24.0169C26.3005 23.4695 25.7397 22.9443 25.1878 22.4102C24.6849 21.9206 24.0662 21.0171 23.3986 20.7857C25.0587 22.5927 27.3152 24.3418 27.7915 26.8698C28.2277 29.1976 27.2396 31.5209 25.17 32.7181C23.136 33.8931 20.6347 33.5638 18.9389 31.9704C16.7803 29.9364 14.7419 27.7422 12.6634 25.6236C12.8414 25.4233 13.0016 25.2453 13.1975 25.0228C14.3947 26.1978 15.5697 27.355 16.7759 28.5433C17.3367 28.1249 17.7684 27.6621 18.2179 27.1502C16.9227 25.5747 15.3249 24.186 13.8918 22.7351C13.3221 22.1565 12.7568 21.3108 11.9335 21.1684C11.2391 21.0483 10.3089 21.3598 9.58791 21.3598C9.28526 20.6032 9.10723 19.8332 8.95145 19.0232C9.60572 18.4446 10.4469 18.1909 11.1902 17.7146V15.4626C10.616 15.1777 9.66357 14.9018 9.2185 14.4611C8.75117 13.9983 8.97816 13.6778 9.16064 13.0369C9.29861 12.5607 9.32532 12.0622 9.80155 11.8753C10.2867 11.6839 11.5418 11.9687 12.0447 11.9999C12.4275 11.4213 12.8459 10.7804 13.2998 10.0905C12.7746 9.32943 12.2317 8.5372 11.702 7.76722C11.9735 7.28654 12.8058 6.54772 13.4957 6.16495C14.19 6.64118 14.8932 7.12186 15.6098 7.61145C16.264 7.27764 16.9005 6.94829 17.5503 6.61448C17.5147 5.95577 17.0785 4.22443 17.5859 3.66364C17.9998 3.20966 19.4107 3.24526 19.9671 3.15625C20.3365 3.97519 20.6792 4.74072 21.0263 5.51515H23.4342C23.768 4.78077 24.1241 4.00634 24.5024 3.1785C25.0721 3.24972 26.4652 3.20521 26.8301 3.71259C27.2218 4.26004 26.9903 5.92461 26.9903 6.59223C27.6446 6.89488 28.2944 7.19753 28.9798 7.51798C29.6341 7.04175 30.3017 6.56107 31.0049 6.05369C31.628 6.48541 32.2689 6.86817 32.7986 7.44677C32.349 8.33247 31.9129 9.19146 31.4678 10.0683C31.9752 10.6914 32.4648 11.2967 32.9722 11.9153C33.2837 11.8619 33.5997 11.8085 33.8801 11.7595C34.5744 12.7832 35.4913 13.5443 36.3102 14.4344C36.239 14.5235 36.1633 14.6125 36.0521 14.7504C35.7227 14.3944 35.4156 14.0606 35.0506 13.6689C34.9394 13.7935 34.8682 13.8692 34.7836 13.9627C35.153 14.341 35.4824 14.6792 35.834 15.0353C35.3043 15.5382 34.7925 16.0189 34.2896 16.4951C32.9677 15.1955 31.6458 13.8959 30.3373 12.5829C29.0644 11.3011 27.9562 10.0638 26.2782 9.30718C23.1894 7.9141 19.6021 8.07432 16.9183 10.2685C14.7419 12.0533 13.598 15.1644 14.1054 17.9327C14.7641 21.5289 18.4316 23.7899 20.8127 26.3224C19.8024 27.3772 19.3173 28.7347 20.194 30.0699C20.8661 31.0936 22.2681 31.4986 23.3852 30.9912C26.256 29.6871 24.9029 25.8907 22.0411 25.8907C20.8172 24.6712 19.5976 23.4472 18.3692 22.2366C17.083 20.9726 15.8857 20.0958 15.4006 18.2977C14.6306 15.4492 15.8946 12.3737 18.3114 10.7136C20.4255 9.25822 23.5499 9.10245 25.7085 10.5534C27.0349 11.4435 28.0719 12.8322 29.2024 13.9493C30.4664 15.1911 31.717 16.4462 32.9677 17.7057C32.7585 17.9238 32.5493 18.1375 32.3179 18.3734C30.0124 16.3572 28.1386 13.7713 25.7664 11.8441C23.9638 10.3798 21.24 10.2374 19.246 11.3901C17.1898 12.5829 16.0014 15.0575 16.2818 17.4031C16.4421 18.7428 17.0518 19.8198 18.0087 20.75C18.5695 21.2975 19.1481 21.8271 19.7178 22.3657C19.9671 22.6016 21.0486 23.8878 21.3958 23.8611C19.6021 21.925 17.0029 20.0513 16.767 17.2073C16.58 14.9374 17.7995 12.6586 19.8602 11.6616C21.7029 10.7715 24.0128 10.9985 25.5884 12.3292C26.661 13.2327 27.6134 14.3321 28.6015 15.3246C29.7098 16.4373 30.907 17.5055 31.9262 18.6938C31.7571 18.8718 31.5969 19.0454 31.4099 19.2457C30.2305 18.2131 29.2335 16.9758 28.014 15.9922C27.4488 16.4195 26.9102 16.8378 26.483 17.4209C27.876 19.3347 29.8121 20.9548 31.4633 22.6505C32.4336 23.6475 32.8787 23.3715 34.1917 23.287C34.9438 23.238 34.9616 23.2158 35.2554 23.9101C35.4868 24.462 35.6248 25.0717 35.8073 25.6414C34.926 26.1844 33.622 26.5093 33.5686 27.5997C33.5374 28.2763 33.4172 28.9706 33.9113 29.429C34.383 29.8607 35.3088 30.0833 35.8651 30.4304C35.8073 31.2405 35.5046 31.9748 35.2687 32.7582C34.4409 32.7849 33.6531 32.6692 32.8297 32.5935C32.4292 33.2477 32.033 33.8976 31.6102 34.5919C32.0642 35.3619 32.5182 36.1363 32.9855 36.933C32.5271 37.5783 31.9529 38.0412 31.272 38.4507C30.5776 37.9566 29.8922 37.4671 29.2157 36.9864C28.557 37.3558 27.9295 37.7074 27.3197 38.0501C27.342 38.6821 27.6847 40.1108 27.3642 40.6983L27.3464 40.676Z" fill="#003366"/>
<path d="M55.4922 26.9555C56.081 25.0748 56.6434 23.2995 57.2147 21.4539C57.5574 21.4539 57.8563 21.4539 58.1639 21.4539C63.0503 21.4539 67.9366 21.4539 72.823 21.4539C74.071 21.4539 74.6599 21.0672 75.0993 19.8983C75.2312 19.538 75.3366 19.1601 75.3981 18.7822C75.4948 18.1846 75.2223 17.8418 74.6335 17.7628C74.4314 17.7364 74.2204 17.754 74.0183 17.754C70.5732 17.754 67.1281 17.7627 63.683 17.754C63.1733 17.754 62.646 17.7188 62.1626 17.5958C60.7389 17.2354 59.7634 16.049 59.7195 14.5901C59.7019 13.9573 59.781 13.2982 59.9392 12.683C60.2292 11.5669 60.5719 10.4595 60.9498 9.36974C62.1187 6.03012 65.1771 3.78027 68.7189 3.65724C70.1602 3.61329 71.6014 3.63968 73.0428 3.64847C76.7954 3.64847 80.5482 3.64845 84.3096 3.65724C84.6172 3.65724 84.916 3.65724 85.329 3.65724C84.749 5.5116 84.1954 7.27809 83.6241 9.0973C83.3517 9.0973 83.1232 9.0973 82.9035 9.0973C78.2456 9.0973 73.5965 9.09732 68.9386 9.08853C67.1018 9.08853 65.9242 10.1871 65.766 12.0414C65.7308 12.4545 65.8626 12.683 66.2757 12.7709C66.5745 12.8324 66.8908 12.8324 67.1984 12.8324C70.2568 12.8324 73.3152 12.8324 76.3824 12.8324C76.9185 12.8324 77.4634 12.8764 77.9995 12.9027C80.2845 12.9906 81.9983 15.0471 81.4622 17.5606C81.1282 19.1337 80.5833 20.6717 80.0121 22.1834C79.6342 23.2028 78.9222 24.0465 78.0785 24.7408C76.3208 26.1821 74.3435 27.0258 72.0058 27.0082C67.0666 26.9731 62.1275 27.0082 57.1972 26.9994C56.6699 26.9994 56.1338 26.9643 55.5098 26.9467L55.4922 26.9555Z" fill="white"/>
<path d="M154.001 9.09753C152.05 15.1176 150.143 21.0235 148.218 26.9645H142.471C144.967 19.1867 147.445 11.4528 149.923 3.69262C150.108 3.67504 150.257 3.63989 150.407 3.63989C155.733 3.63989 161.05 3.64867 166.375 3.65746C167.333 3.65746 168.291 3.69263 169.196 4.00022C169.82 4.21115 170.462 4.46601 171.016 4.81754C172.624 5.85458 173.573 7.61229 172.958 9.82699C172.563 11.2331 172.088 12.6217 171.64 14.0191C171.095 15.7065 170.48 17.3675 169.996 19.0724C168.845 23.1327 166.024 25.3474 162.095 26.3845C160.619 26.7712 159.116 26.9469 157.596 26.9821C155.513 27.0348 153.43 27.0084 151.347 27.0084C151.145 27.0084 150.943 26.9821 150.644 26.9645C151.233 25.1101 151.804 23.3173 152.384 21.4893C152.621 21.4717 152.824 21.4453 153.017 21.4453C155.328 21.4453 157.648 21.4453 159.96 21.4453C160.346 21.4453 160.733 21.4453 161.12 21.4366C162.429 21.4102 163.361 20.7774 163.923 19.6086C164.143 19.1516 164.31 18.6594 164.468 18.1672C165.286 15.6801 166.085 13.1842 166.894 10.6882C166.947 10.5213 167.008 10.3455 167.043 10.1697C167.219 9.41391 166.991 9.1151 166.208 9.09753C165.004 9.07995 163.792 9.07996 162.579 9.07996C160.004 9.07996 157.437 9.07996 154.862 9.07996C154.581 9.07996 154.3 9.07996 154.001 9.07996V9.09753Z" fill="white"/>
<path d="M93.1769 27.0082C91.3489 27.0082 89.521 27.0345 87.7017 26.9994C86.9635 26.9818 86.1989 26.9203 85.4958 26.7094C83.1669 26.0063 82.1123 23.941 82.5693 21.9548C82.8154 20.8826 83.1581 19.828 83.5008 18.7822C84.5115 15.6271 85.5749 12.4896 86.5592 9.32579C87.6578 5.80161 90.848 3.68359 94.3634 3.6748C98.1161 3.6748 101.869 3.66602 105.63 3.6748C106.193 3.6748 106.764 3.73633 107.318 3.84179C109.77 4.31637 111.176 6.45196 110.596 8.88636C110.297 10.1607 109.858 11.3999 109.462 12.6478C108.601 15.3635 107.687 18.0703 106.861 20.7947C105.815 24.231 103.38 26.059 100.041 26.9115C99.6717 27.0082 99.2762 27.0082 98.8895 27.0082C96.9824 27.017 95.0841 27.0082 93.1769 27.0082ZM94.5216 21.4539C96.2178 21.4539 97.9139 21.4451 99.6101 21.4627C100.357 21.4715 100.832 21.1463 101.087 20.4696C101.148 20.3026 101.21 20.1356 101.262 19.9598C102.194 17.1036 103.126 14.2473 104.048 11.3911C104.189 10.9517 104.356 10.5122 104.461 10.0728C104.628 9.37852 104.417 9.09728 103.714 9.09728C100.401 9.09728 97.0879 9.09728 93.7746 9.09728C92.9485 9.09728 92.4212 9.50155 92.096 10.2222C91.9905 10.4595 91.9202 10.7056 91.8323 10.9429C90.804 14.0891 89.7846 17.2354 88.7651 20.3905C88.4751 21.2781 88.5981 21.4451 89.5121 21.4715C89.5912 21.4715 89.6703 21.4715 89.7406 21.4715C91.3313 21.4715 92.9221 21.4715 94.5216 21.4715V21.4539Z" fill="white"/>
<path d="M115.06 3.67505H120.816C120.702 4.0969 120.614 4.48359 120.491 4.8615C118.839 9.94124 117.178 15.0122 115.535 20.0919C115.411 20.4698 115.174 20.8477 115.394 21.375C115.693 21.4014 116.044 21.4629 116.387 21.4629C121.528 21.4629 126.67 21.4629 131.811 21.4541C132.013 21.4541 132.215 21.4541 132.532 21.4541C131.934 23.3348 131.363 25.1541 130.783 26.9645C130.572 26.9821 130.422 26.9996 130.264 26.9996C124.815 26.9996 119.366 26.9996 113.917 26.9996C113.434 26.9996 112.933 26.9909 112.459 26.903C109.963 26.4723 108.706 24.6531 109.163 22.166C109.242 21.7617 109.339 21.3574 109.462 20.9708C111.272 15.3198 113.091 9.67758 114.911 4.03538C114.946 3.93871 114.981 3.84201 115.042 3.68382L115.06 3.67505Z" fill="white"/>
<path d="M140.608 3.68335H146.443C143.912 11.4875 141.399 19.2302 138.894 26.9464H133.146C135.651 19.1335 138.13 11.4172 140.608 3.68335Z" fill="white"/>
<path d="M63.5894 37.0623C63.3609 37.0272 63.1674 36.9657 62.9653 36.9657C61.6822 36.9481 60.3992 36.9393 59.1161 36.9305C58.9139 36.9305 58.7029 36.9305 58.5008 36.9129C57.7977 36.8514 57.3583 36.4472 57.2968 35.7529C57.2704 35.4277 57.2968 35.0762 57.3846 34.7686C57.578 34.0743 57.8241 33.3975 58.0702 32.7208C58.4305 31.7189 59.1775 31.1565 60.2233 31.1389C62.6665 31.1038 65.101 31.1389 67.5442 31.1389C67.5881 31.1389 67.632 31.1829 67.7287 31.2268C67.5266 31.8684 67.3245 32.5099 67.1048 33.1954C66.4896 33.1954 65.9271 33.1954 65.3646 33.1954C63.9233 33.1954 62.4908 33.1866 61.0495 33.1866C60.1267 33.1866 60.1267 33.1866 59.8103 34.0918C59.7312 34.3028 59.6784 34.5312 59.5818 34.8564C59.9597 34.8828 60.2761 34.9179 60.6013 34.9179C61.7613 34.9179 62.9126 34.9179 64.0727 34.9179C64.5912 34.9179 65.1009 34.9795 65.5052 35.3574C65.8479 35.6738 66.0589 36.0341 66.0062 36.5087C65.9007 37.6775 65.5316 38.7849 64.89 39.7516C64.3627 40.5426 63.475 40.8326 62.5347 40.8414C61.7349 40.8502 60.944 40.7974 60.1442 40.7886C58.9842 40.7799 57.8329 40.7886 56.6728 40.7886C56.2949 40.7886 55.9082 40.7886 55.3984 40.7886C55.6533 40.0416 55.8731 39.4089 56.1104 38.7234C56.4443 38.7234 56.7431 38.7234 57.0507 38.7234C58.7732 38.7234 60.4958 38.7234 62.2183 38.7234C63.3608 38.7234 63.6597 38.3806 63.5894 37.0711V37.0623Z" fill="white"/>
<path d="M95.9475 40.8062H93.4692C93.0562 39.778 92.643 38.7585 92.2036 37.6775H90.1911C90.4548 36.9481 90.6833 36.3065 90.9381 35.5859C91.2282 35.5859 91.5006 35.5859 91.7818 35.5859C92.731 35.5683 93.6801 35.5507 94.6293 35.5419C94.9456 35.5419 95.1653 35.4101 95.2796 35.1113C95.4378 34.707 95.6224 34.3028 95.7366 33.8897C95.8509 33.4503 95.6926 33.213 95.262 33.213C93.724 33.1954 92.1861 33.213 90.613 33.213C89.7605 35.7704 88.9168 38.2927 88.0907 40.7886H86.0078C87.0185 37.5369 88.0115 34.3731 89.0046 31.1741C89.2067 31.1565 89.4089 31.1301 89.6111 31.1301C91.7203 31.1301 93.8207 31.1301 95.9299 31.1301C96.2375 31.1301 96.5452 31.1301 96.8528 31.1741C97.7931 31.2971 98.4259 32.0793 98.1798 32.9757C97.881 34.0831 97.4943 35.1816 97.0461 36.245C96.7561 36.9393 96.1409 37.3436 95.3938 37.5106C95.1478 37.5721 94.8929 37.616 94.559 37.6951C95.0248 38.7234 95.4642 39.7165 95.9563 40.8062H95.9475Z" fill="white"/>
<path d="M142.948 40.8238H140.532C140.11 39.8043 139.706 38.8113 139.31 37.8445C138.554 37.7918 137.869 37.7391 137.166 37.6863C137.438 36.9657 137.684 36.3329 137.948 35.6211C138.212 35.6123 138.484 35.5947 138.756 35.5947C139.6 35.5947 140.453 35.5947 141.296 35.6035C141.771 35.6122 142.078 35.4189 142.228 34.9619C142.351 34.5664 142.518 34.1885 142.597 33.793C142.685 33.3976 142.527 33.1954 142.122 33.1866C140.637 33.169 139.152 33.1866 137.64 33.1866C136.814 35.7441 136.006 38.2576 135.188 40.7974H133.018C134.081 37.5369 135.118 34.3555 136.155 31.1741C136.304 31.1565 136.401 31.1301 136.507 31.1301C138.792 31.1301 141.085 31.1301 143.37 31.1389C143.573 31.1389 143.783 31.1477 143.986 31.1917C144.873 31.385 145.383 32.1935 145.111 33.0548C144.812 34.0127 144.469 34.9531 144.126 35.8935C143.819 36.7196 143.195 37.2205 142.36 37.4842C142.14 37.5545 141.92 37.5984 141.639 37.6688C142.078 38.7234 142.5 39.7428 142.957 40.8238H142.948Z" fill="white"/>
<path d="M161.484 37.0533C161.15 37.0357 160.895 37.0094 160.649 37.0094C159.418 37.0094 158.179 37.0094 156.949 37.0094C156.668 37.0094 156.378 36.9918 156.114 36.9303C155.314 36.7369 154.84 36.1129 155.051 35.3308C155.332 34.2673 155.719 33.2303 156.14 32.2196C156.422 31.5517 157.054 31.2793 157.749 31.165C158.03 31.1211 158.311 31.1299 158.592 31.1299C160.728 31.1299 162.855 31.1299 164.99 31.1299C165.14 31.1299 165.289 31.1475 165.527 31.165C165.298 31.8681 165.087 32.5184 164.867 33.1864C164.586 33.1952 164.358 33.2215 164.138 33.2215C162.415 33.2215 160.693 33.2215 158.97 33.2215C158.795 33.2215 158.61 33.2303 158.434 33.2391C157.995 33.2391 157.714 33.4324 157.591 33.8719C157.503 34.1883 157.388 34.4958 157.248 34.9089C157.608 34.9441 157.872 34.988 158.135 34.988C159.216 34.988 160.289 34.9792 161.37 34.988C161.73 34.988 162.09 34.988 162.442 35.0495C163.417 35.2077 163.98 35.9987 163.734 36.9478C163.514 37.7652 163.224 38.5649 162.881 39.3383C162.424 40.3578 161.51 40.806 160.456 40.8323C158.452 40.8763 156.448 40.8323 154.444 40.8148C154.066 40.8148 153.688 40.7884 153.223 40.7708C153.469 40.059 153.68 39.4438 153.908 38.7846C154.145 38.7758 154.374 38.7495 154.602 38.7495C156.43 38.7495 158.25 38.7495 160.078 38.7495C161.106 38.7495 161.176 38.6879 161.396 37.6597C161.431 37.5103 161.44 37.3609 161.475 37.0884L161.484 37.0533Z" fill="white"/>
<path d="M116.627 37.7654C116.934 36.9481 117.18 36.2977 117.444 35.5947C117.875 35.5947 118.279 35.5947 118.683 35.5947C119.377 35.5947 120.072 35.5947 120.766 35.5947C121.698 35.5771 121.759 35.5244 122.049 34.6016C122.128 34.3292 122.225 34.0655 122.26 33.7842C122.313 33.4151 122.181 33.2745 121.812 33.213C121.759 33.213 121.706 33.213 121.654 33.213C120.195 33.213 118.727 33.213 117.207 33.213C116.381 35.7441 115.563 38.2576 114.746 40.7799C114.034 40.9293 113.357 40.8678 112.602 40.7359C113.639 37.5281 114.658 34.3643 115.678 31.1829C115.932 31.1653 116.135 31.1477 116.337 31.1477C118.393 31.1477 120.45 31.1477 122.506 31.1477C122.814 31.1477 123.13 31.1477 123.429 31.2092C124.378 31.3762 124.976 32.2111 124.721 33.1339C124.448 34.1182 124.15 35.1201 123.719 36.0429C123.2 37.1502 122.181 37.7127 120.986 37.783C119.58 37.8621 118.173 37.8006 116.635 37.8006L116.627 37.7654Z" fill="white"/>
<path d="M68.7557 31.1301C68.9754 31.1301 69.2039 31.1301 69.4324 31.1301C71.4362 31.1301 73.44 31.1301 75.4525 31.1301C75.7337 31.1301 76.0237 31.1301 76.2962 31.1653C77.2278 31.2708 77.9308 32.0178 77.7199 32.9142C77.4562 34.0831 77.096 35.2607 76.5599 36.3241C76.1029 37.2293 75.1713 37.6688 74.1079 37.6775C72.7017 37.6775 71.2867 37.6775 69.7927 37.6775C70.03 36.9833 70.2673 36.3241 70.5222 35.5947C70.9265 35.5947 71.3043 35.5947 71.6822 35.5947C72.5347 35.5771 73.3784 35.5595 74.2309 35.5507C74.5824 35.5507 74.8198 35.4101 74.9252 35.0674C75.0834 34.5401 75.4174 34.0479 75.3471 33.38C75.1361 33.3272 74.9252 33.2306 74.7055 33.2306C73.2906 33.213 71.8756 33.2306 70.3903 33.2306C69.5466 35.7441 68.7029 38.2664 67.8417 40.859C67.1474 40.8238 66.4619 40.7974 65.75 40.7623C66.7519 37.5545 67.745 34.3906 68.7557 31.1565V31.1301Z" fill="white"/>
<path d="M84.4789 31.1301C84.9095 34.3994 85.3137 37.5545 85.7356 40.7535H83.4418C83.3275 40.2349 83.2221 39.734 83.1078 39.2067C81.9302 39.1539 80.7965 39.1012 79.61 39.0485C79.9352 38.5475 80.234 38.1257 80.4801 37.6863C80.6471 37.3962 80.858 37.2996 81.1656 37.3084C81.7281 37.3259 82.2817 37.3084 82.9145 37.3084C82.7563 35.9989 82.5981 34.7861 82.4311 33.4326C81.6138 34.5751 80.858 35.6122 80.1197 36.658C79.2321 37.9148 78.3533 39.1891 77.4569 40.4371C77.3514 40.5865 77.1581 40.771 76.9999 40.7886C76.2441 40.8589 75.4794 40.938 74.6621 40.6744C74.9609 40.2613 75.2333 39.8922 75.5058 39.5231C77.4129 36.9392 79.3375 34.3642 81.2183 31.7628C81.5786 31.2619 81.9917 31.0861 82.5717 31.1213C83.1518 31.1564 83.7406 31.1213 84.4613 31.1213L84.4789 31.1301Z" fill="white"/>
<path d="M121.521 40.8414C122.102 40.0416 122.559 39.4177 123.007 38.8025C124.729 36.4384 126.469 34.0743 128.174 31.6926C128.482 31.2708 128.807 31.0862 129.326 31.1126C129.967 31.1477 130.609 31.1213 131.312 31.1213C131.962 34.3116 132.173 37.5457 132.736 40.7184C132.243 40.8853 131.277 40.9205 130.442 40.7799C130.345 40.2438 130.24 39.6989 130.125 39.1013C128.948 39.0749 127.805 39.0486 126.575 39.0134C127.005 38.4158 127.375 37.8973 127.796 37.3172H129.897C129.739 36.0253 129.598 34.8125 129.44 33.5206C129.334 33.6085 129.255 33.6436 129.211 33.714C127.603 35.9814 126.004 38.24 124.413 40.5162C124.22 40.7975 123.991 40.8502 123.692 40.8502C123.033 40.8502 122.365 40.8502 121.521 40.8502V40.8414Z" fill="white"/>
<path d="M108.419 33.2042H101.336C100.747 34.9795 100.184 36.7108 99.6044 38.4509C99.8681 38.7497 100.211 38.6794 100.527 38.6794C102.197 38.6794 103.867 38.6794 105.537 38.6794C105.844 38.6794 106.143 38.6794 106.556 38.6794C106.328 39.4177 106.126 40.0592 105.915 40.7447C105.22 40.7711 104.552 40.8238 103.893 40.8238C102.171 40.8238 100.448 40.7974 98.7256 40.7623C97.4161 40.7447 96.8624 39.9977 97.2666 38.7234C97.7764 37.1063 98.3389 35.5068 98.875 33.8985C98.9717 33.6085 99.0595 33.3097 99.1298 33.0109C99.4198 31.8156 100.184 31.1477 101.424 31.1213C102.918 31.0862 104.403 31.1038 105.897 31.1038C106.723 31.1038 107.54 31.1038 108.366 31.1038C108.569 31.1038 108.762 31.1301 109.07 31.1477C108.841 31.8596 108.639 32.5011 108.419 33.1954V33.2042Z" fill="white"/>
<path d="M146.227 31.1389H155.472C155.261 31.842 155.068 32.4836 154.857 33.1691H151.254C150.331 35.6913 149.619 38.2576 148.81 40.815H146.701C147.351 38.2488 148.23 35.8056 148.969 33.2218C147.817 33.2042 146.727 33.1778 145.541 33.1603C145.787 32.4396 145.998 31.8244 146.227 31.1389Z" fill="white"/>
<path d="M101.907 35.0237H107.514C107.338 35.6652 107.172 36.254 106.996 36.8868C105.08 36.8956 103.199 36.9571 101.248 36.8429C101.485 36.1837 101.687 35.6125 101.907 35.0149V35.0237Z" fill="white"/>
</svg>
